<svg width="103" height="37" viewBox="0 0 103 37" fill="none" xmlns="http://www.w3.org/2000/svg">
<path d="M1.188 19.772C1.188 24.237 1.188 28.749 1.188 33.214C1.188 33.543 1.188 33.919 1.188 34.295C1.235 34.577 1.517 34.859 1.846 34.812C2.034 34.812 2.269 34.765 2.457 34.765C3.068 34.765 3.726 34.624 4.337 34.812C5.183 35.047 6.076 35.047 6.922 35.047C8.285 35.047 9.648 35.047 11.011 35.047C13.455 35.047 15.241 34.671 17.074 32.838C18.766 31.099 19.941 29.689 20.223 27.151C20.317 26.211 20.599 25.318 20.505 24.331C20.505 24.19 20.552 24.049 20.599 23.908C20.928 23.156 20.834 22.498 20.552 21.793C20.27 21.088 20.129 20.383 20.176 19.631C20.223 19.161 20.082 18.738 19.847 18.315C19.377 17.328 18.954 16.294 18.484 15.354C17.732 13.85 16.792 13.004 15.523 11.97C15.1 11.594 14.959 11.124 15.053 10.56C15.382 9.244 15.382 7.599 14.959 6.565C14.301 4.873 13.502 2.993 11.622 2.335C11.058 2.194 10.541 1.959 10.024 1.724C9.554 1.489 9.037 1.395 8.52 1.395C6.499 1.395 4.478 1.395 2.457 1.395C2.175 1.395 1.94 1.395 1.658 1.442C1.423 1.442 1.282 1.583 1.188 1.771C0.765 2.429 0.812 3.134 0.906 3.886C1.047 4.685 1.188 5.531 1.188 6.377C1.188 10.842 1.188 15.307 1.188 19.772ZM6.123 3.745C6.264 3.886 6.405 4.074 6.546 4.215L6.64 4.262H6.546L6.123 3.792V3.745ZM3.021 4.873L3.115 4.92L3.021 4.967V4.873ZM4.337 5.296C4.29 5.343 4.243 5.437 4.243 5.531C4.149 5.484 4.055 5.437 4.008 5.343C3.914 5.202 4.055 4.967 4.149 5.014C4.243 5.108 4.29 5.202 4.337 5.296ZM12.186 6.424C12.233 6.471 12.28 6.471 12.327 6.565L12.186 6.424ZM7.909 10.466C7.627 10.466 7.392 10.466 7.11 10.466C6.781 10.466 6.499 10.184 6.546 9.855C6.64 8.868 6.734 7.881 6.875 6.941C6.922 6.706 7.251 6.471 7.486 6.518C8.426 6.612 9.272 6.988 9.93 7.74C10.306 8.163 10.588 8.68 10.353 9.291C10.071 9.949 9.554 10.372 8.849 10.466C8.52 10.513 8.191 10.466 7.909 10.466ZM3.914 6.659L4.008 6.612V6.753L3.914 6.659ZM11.951 8.492C11.951 8.21 11.904 7.975 11.904 7.693C11.904 7.646 11.951 7.599 11.998 7.599C12.045 7.646 12.186 7.693 12.186 7.74C12.139 7.975 12.045 8.21 11.951 8.492ZM12.797 8.586L12.844 8.633C12.797 8.633 12.797 8.633 12.797 8.633V8.586ZM3.773 8.821C3.82 8.868 3.867 8.915 3.961 8.962C3.867 8.915 3.82 8.868 3.773 8.821ZM3.914 10.043C3.867 10.09 3.82 10.231 3.726 10.231C3.632 10.231 3.491 10.231 3.35 10.184C3.35 10.137 3.35 9.996 3.397 9.902C3.491 9.714 3.585 9.808 3.726 9.902L3.914 10.043ZM4.008 9.996C4.196 9.714 4.431 9.902 4.666 9.949L4.008 9.996ZM5.089 10.56C5.042 10.513 4.948 10.513 4.948 10.466C4.901 10.325 4.901 10.184 4.854 10.09C4.948 10.184 4.995 10.278 5.089 10.419C5.136 10.466 5.089 10.513 5.089 10.56ZM10.165 13.85V13.803C10.024 14.038 9.883 14.132 9.695 14.132C9.601 13.897 9.507 13.662 9.413 13.474C9.413 13.427 9.46 13.38 9.507 13.333C9.507 13.333 9.601 13.333 9.648 13.333C9.789 13.474 9.977 13.662 10.165 13.803L10.635 13.427C10.635 13.286 10.635 13.145 10.682 13.004C10.776 12.816 11.199 12.816 11.011 12.487C10.87 12.205 10.541 12.393 10.306 12.393C10.259 12.393 10.165 12.299 10.071 12.252C10.165 12.158 10.212 12.017 10.353 11.97C10.541 11.876 10.729 11.923 10.917 11.876C11.199 11.782 11.481 11.735 11.763 11.641V11.594H11.81C11.81 11.5 11.81 11.453 11.763 11.359H11.716V11.312L10.494 11.171V11.265L10.447 11.171H10.494C10.823 11.077 11.152 10.936 11.434 10.654C11.481 10.56 11.669 10.56 11.81 10.56L11.716 11.312L11.763 11.359C12.045 11.312 12.374 11.265 12.656 11.218C13.22 11.077 13.549 11.265 13.784 11.829C13.831 11.876 13.69 12.064 13.643 12.064C13.502 12.111 13.314 12.111 13.22 12.064C12.75 11.923 12.28 11.735 11.81 11.594L11.763 11.641C11.81 12.017 11.857 12.393 11.904 12.769C11.951 13.286 11.81 13.521 11.293 13.568C11.058 13.568 10.823 13.474 10.635 13.427L10.165 13.85ZM5.747 10.795V10.748H5.841L5.747 10.795ZM4.196 10.983H4.102L4.149 10.889L4.196 10.983ZM5.183 11.735C5.324 11.782 5.465 11.829 5.512 11.876C5.559 11.97 5.559 12.111 5.512 12.158C5.324 12.628 5.042 12.863 4.619 12.863C4.384 12.863 4.055 12.722 3.773 12.534C3.773 12.534 3.726 12.487 3.726 12.44C3.726 12.346 3.773 12.205 3.82 12.158C4.29 12.017 4.76 11.876 5.183 11.735ZM2.974 11.923C2.833 11.782 2.974 11.782 3.068 11.735C3.021 11.782 2.974 11.876 2.974 11.923ZM8.708 12.487C8.661 12.44 8.614 12.346 8.614 12.252C8.567 12.064 8.426 11.829 8.708 11.782C8.802 11.735 9.037 11.876 9.084 11.97C9.225 12.205 9.037 12.346 8.802 12.44C8.802 12.487 8.755 12.487 8.708 12.487ZM6.546 12.393L6.499 12.299L6.593 12.346L6.546 12.393ZM13.079 13.192L13.032 13.145L13.408 13.944L13.361 13.85L13.455 13.897C13.502 14.226 13.549 14.508 13.596 14.79C13.596 14.837 13.549 14.884 13.502 14.884C13.455 14.931 13.361 14.931 13.361 14.931C13.314 14.837 13.267 14.743 13.173 14.696C12.75 14.038 12.562 13.286 12.327 12.581C12.327 12.534 12.374 12.44 12.374 12.44C12.421 12.44 12.515 12.44 12.515 12.44C12.703 12.675 12.891 12.91 13.032 13.145L13.079 13.192ZM7.627 13.051C7.674 13.004 7.674 12.863 7.721 12.863C8.05 12.769 8.379 12.675 8.661 12.581C8.614 13.004 8.332 13.192 7.862 13.145C7.768 13.145 7.721 13.098 7.627 13.051ZM3.209 14.367C3.773 14.461 3.773 14.461 3.82 14.038C3.82 13.897 3.773 13.709 3.82 13.568C3.82 13.521 3.914 13.427 4.008 13.38C4.055 13.38 4.102 13.427 4.149 13.427C4.243 13.568 4.29 13.709 4.431 13.85C4.619 14.038 4.948 14.085 5.089 13.85C5.324 13.615 5.559 13.286 5.794 13.051C5.841 13.004 6.076 13.098 6.17 13.192C6.217 13.239 6.217 13.427 6.17 13.474C6.029 13.615 5.794 13.756 5.606 13.944C5.324 14.273 5.183 14.649 5.418 15.072C5.418 15.119 5.324 15.26 5.277 15.354H4.901C4.525 15.26 4.149 15.119 3.726 15.072C3.35 14.978 3.303 14.696 3.209 14.414L3.162 14.367H3.209ZM8.332 14.038C8.144 14.602 7.768 14.649 7.251 14.649C7.298 14.367 7.392 14.132 7.58 13.897C7.674 13.709 8.097 13.709 8.238 13.897C8.285 13.944 8.285 13.991 8.332 14.038ZM11.998 14.038C11.857 14.226 11.763 14.414 11.669 14.555C11.575 14.508 11.481 14.461 11.434 14.414C11.387 14.132 11.528 13.897 11.81 13.897C11.857 13.897 11.904 13.991 11.998 14.038ZM15.57 14.79C15.523 14.79 15.429 14.79 15.335 14.837C15.335 14.743 15.335 14.696 15.288 14.602C15.382 14.602 15.476 14.555 15.57 14.555C15.57 14.555 15.57 14.696 15.57 14.79ZM6.17 22.733C6.264 21.135 6.405 19.02 6.499 16.952C6.546 16.67 6.64 15.965 7.063 15.965C8.332 15.965 9.695 15.824 10.964 16.012C12.28 16.2 13.361 16.999 14.019 18.174C14.724 19.349 15.288 20.571 15.194 21.981C15.147 22.169 15.147 22.31 15.194 22.451C15.664 24.284 15.006 25.882 14.16 27.339C13.455 28.608 12.233 29.219 10.823 29.407C9.695 29.501 8.567 29.407 7.392 29.407C6.593 29.407 6.546 28.42 6.546 27.856C6.499 27.48 6.546 27.104 6.452 26.728C6.076 25.6 6.17 24.378 6.17 22.733ZM5.277 16.388V16.294L5.371 16.388H5.277ZM3.632 16.482C3.679 16.529 3.726 16.576 3.773 16.67C3.726 16.67 3.632 16.717 3.585 16.717C3.538 16.764 3.491 16.67 3.491 16.67C3.538 16.576 3.585 16.529 3.632 16.482ZM16.04 17.563C15.946 17.469 15.852 17.422 15.852 17.328C15.852 17.281 15.946 17.187 16.04 17.14C16.087 17.187 16.181 17.281 16.181 17.328C16.181 17.422 16.087 17.469 16.04 17.563ZM17.215 20.101C17.262 20.148 17.309 20.242 17.403 20.336C17.309 20.336 17.215 20.43 17.121 20.43C17.074 20.383 17.027 20.289 16.933 20.195C17.027 20.195 17.121 20.148 17.215 20.101ZM17.638 21.558C17.732 21.605 17.873 21.699 17.92 21.84C17.967 21.934 17.92 22.122 17.873 22.263L17.779 22.31C17.638 22.216 17.497 22.169 17.45 22.028C17.403 21.934 17.45 21.746 17.45 21.605C17.497 21.605 17.544 21.558 17.638 21.558ZM17.497 23.391C17.544 23.344 17.591 23.344 17.638 23.344C17.92 23.297 18.155 23.203 18.39 23.156C18.672 23.109 18.86 23.25 18.954 23.579C18.954 23.626 18.86 23.814 18.86 23.814C18.39 23.767 17.873 23.908 17.638 23.344L17.497 23.391ZM17.027 25.036C16.98 24.989 16.933 24.989 16.886 24.942C16.886 24.942 16.886 24.848 16.933 24.848C17.121 24.754 17.309 24.707 17.497 24.613L17.591 24.707C17.591 24.801 17.544 24.895 17.497 24.942C17.356 24.989 17.168 25.036 17.027 25.036ZM17.45 27.527C17.403 27.198 17.168 26.916 17.403 26.587C17.403 26.54 17.497 26.493 17.497 26.493C17.591 26.493 17.685 26.54 17.732 26.587C17.732 26.587 17.732 26.681 17.732 26.728L17.403 27.574C17.356 27.856 17.215 28.091 17.45 28.373C17.826 28.749 17.826 28.89 17.356 29.031C17.168 29.125 16.98 29.125 16.792 29.125C16.604 29.078 16.369 28.984 16.416 28.749C16.416 27.856 16.51 27.809 17.403 27.527H17.45ZM3.209 27.339C3.444 27.245 3.632 27.245 3.867 27.386L3.209 27.339ZM3.162 27.339V27.292V27.339ZM3.867 27.386C3.867 27.386 3.82 27.339 3.914 27.386H3.867ZM4.149 29.125C4.055 28.984 3.961 28.937 3.961 28.89C3.961 28.796 4.055 28.702 4.102 28.655C4.149 28.655 4.243 28.749 4.337 28.796C4.29 28.89 4.196 28.984 4.149 29.125ZM15.053 29.924C15.053 29.877 15.053 29.83 15.053 29.783C15.053 29.83 15.053 29.877 15.053 29.924C15.053 30.018 15.1 30.112 15.053 30.206C15.053 30.253 14.959 30.3 14.912 30.347C14.865 30.253 14.818 30.206 14.865 30.112C14.865 30.065 14.959 30.018 15.053 29.924ZM4.149 31.052C3.961 31.005 3.773 31.005 3.585 30.911C3.444 30.77 3.491 30.441 3.632 30.394C3.82 30.3 4.008 30.253 4.196 30.206C4.666 30.065 4.76 30.112 4.807 30.347C4.854 30.629 4.713 30.817 4.384 30.911C4.29 30.958 4.243 31.005 4.149 31.052C4.149 31.146 4.149 31.24 4.102 31.334C4.149 31.24 4.149 31.146 4.149 31.052ZM12.844 30.488C13.079 30.488 13.314 30.488 13.549 30.488C13.596 30.394 13.643 30.347 13.69 30.3C13.643 30.347 13.596 30.441 13.549 30.488C13.314 30.488 13.079 30.488 12.844 30.488ZM5.7 30.582C5.653 30.629 5.606 30.676 5.606 30.676L5.512 30.535C5.559 30.488 5.606 30.488 5.606 30.488C5.653 30.488 5.653 30.535 5.7 30.582ZM16.181 30.723C16.134 30.723 16.087 30.723 16.087 30.77C16.087 30.723 16.134 30.723 16.134 30.676L16.181 30.723ZM12.092 31.005C12.139 31.005 12.186 31.052 12.233 31.052C12.233 31.099 12.233 31.193 12.233 31.193C11.998 31.334 11.763 31.475 11.481 31.616C11.669 31.334 11.857 31.052 12.092 31.005ZM14.865 31.193L14.771 31.146L14.865 31.099V31.193ZM13.831 32.039C13.737 31.992 13.596 31.898 13.455 31.851C13.361 31.804 13.267 31.804 13.173 31.757C13.126 31.71 13.126 31.569 13.126 31.475C13.126 31.475 13.126 31.381 13.173 31.381C13.267 31.381 13.361 31.334 13.408 31.381C13.549 31.569 13.69 31.804 13.831 31.992H13.925L13.831 32.039ZM7.815 31.71C7.721 31.851 7.674 31.992 7.58 31.992C7.345 32.086 7.063 31.851 7.11 31.569C7.157 31.522 7.298 31.381 7.345 31.428C7.486 31.475 7.627 31.616 7.815 31.71ZM4.854 32.18L4.807 32.086C4.807 31.992 4.807 31.898 4.807 31.804C4.807 31.71 4.854 31.569 4.901 31.569C5.183 31.475 5.465 31.663 5.606 31.992C5.747 32.18 5.559 32.321 5.418 32.462C5.324 32.509 5.23 32.556 5.183 32.603C5.136 32.697 5.136 32.744 5.136 32.791C5.136 32.744 5.136 32.697 5.136 32.603L4.854 32.039V32.18ZM11.434 31.663C11.575 31.851 11.857 31.992 11.669 32.274C11.528 32.509 11.669 32.65 11.81 32.791C11.951 32.838 12.186 32.885 12.045 33.073C11.951 33.167 11.716 33.167 11.575 33.167C11.246 33.12 11.011 32.791 11.105 32.509C11.152 32.274 11.293 31.945 11.434 31.663ZM6.64 33.12C6.452 33.261 6.311 33.355 6.17 33.449C6.123 33.496 6.029 33.496 6.029 33.449C6.029 33.12 6.029 33.12 6.358 32.979C6.405 32.932 6.499 33.026 6.64 33.12ZM4.995 33.214H5.089C5.089 33.214 5.089 33.214 5.089 33.261L4.995 33.214ZM28.3893 15.495H28.4363C28.4363 11.735 28.4363 7.975 28.4363 4.215C28.4363 3.604 28.4363 2.993 28.6243 2.382C28.8123 1.771 28.4363 1.348 27.8253 1.348C26.7913 1.301 25.7573 1.301 24.7233 1.301C22.8432 1.301 22.9842 1.207 22.9842 3.134C22.9842 7.505 22.9842 11.876 23.0312 16.247C23.0312 17.093 22.6082 17.892 22.7022 18.691C22.7962 19.537 23.0312 20.336 22.9842 21.182C22.9842 23.72 22.9842 26.258 22.9842 28.796C22.9842 29.689 22.9842 30.582 22.7492 31.428C22.7022 31.757 22.6552 32.086 22.7492 32.368C22.9372 32.932 22.9842 33.496 23.0312 34.06C23.0783 34.718 23.3133 34.953 24.0183 35C24.2063 35 24.4413 35 24.6293 35C28.4833 35 32.3373 35 36.1913 35C36.5203 35 36.8023 35 37.1313 34.953C37.4603 34.953 37.7423 34.765 37.8833 34.483C37.9773 34.248 38.1183 34.013 38.1183 33.778C38.1653 32.65 38.1653 31.475 38.1653 30.347C38.1653 29.924 37.8833 29.689 37.4133 29.689C37.0843 29.642 36.7083 29.642 36.3323 29.642C34.6403 29.642 32.9013 29.642 31.2093 29.642C30.8333 29.642 30.4573 29.642 30.0813 29.642C28.9062 29.642 28.3893 27.997 28.3893 27.057C28.4363 23.203 28.3893 19.349 28.3893 15.495ZM25.5223 21.417C25.5223 21.417 25.5223 21.464 25.4283 21.511L25.5223 21.417ZM24.8643 26.305H24.7703V26.211L24.8643 26.305ZM25.2873 27.057C25.3813 27.057 25.4753 27.057 25.5223 27.057C25.6163 27.057 25.6633 27.057 25.7573 27.104C25.6633 27.104 25.5693 27.151 25.4753 27.104C25.4283 27.104 25.3813 27.104 25.3343 27.104V27.151C25.7573 27.574 26.1332 28.138 26.7913 28.326V27.903V28.326C26.8383 28.514 26.7913 28.702 26.8853 28.843C27.1203 29.172 27.2143 29.407 27.0263 29.783C26.9793 29.924 27.0263 30.159 27.0263 30.347H27.0733C27.2613 30.206 27.4023 30.018 27.6373 29.877C27.6843 29.877 27.7783 29.924 27.8723 29.924C27.9193 29.971 27.9193 30.065 27.9193 30.065C27.7783 30.347 27.5903 30.582 27.4023 30.817C27.3553 30.864 27.0733 30.911 26.9793 30.817C26.7913 30.676 26.9323 30.488 27.0733 30.347H27.0263C26.6973 30.394 26.3683 30.441 25.9923 30.441C25.6633 30.488 25.3343 30.488 25.0053 30.488L24.9583 30.535C25.0523 30.723 25.0993 30.864 25.1463 31.052C25.1463 31.099 25.0053 31.146 24.9583 31.193C24.9583 31.193 24.9113 31.146 24.9113 31.099C24.9113 30.911 24.9583 30.723 24.9583 30.535V30.488H25.0053C25.0523 30.018 25.0993 29.595 25.7103 29.454C26.0393 29.36 26.0863 29.031 25.9453 28.702C25.7573 28.42 25.5693 28.138 25.4283 27.809C25.3343 27.621 25.3343 27.386 25.3343 27.151C25.2873 27.104 25.2873 27.104 25.2403 27.057H24.5822H25.2873ZM25.2873 27.057L25.3343 27.104V27.057H25.2873ZM25.9923 32.838C25.8983 32.791 25.7573 32.697 25.7573 32.65C25.7573 32.603 25.8043 32.509 25.8043 32.462L25.9923 32.039C25.9923 31.992 26.0393 31.898 26.0393 31.804C26.1332 31.569 26.2273 31.334 26.5093 31.287C26.9323 31.24 27.2143 31.381 27.4493 31.757C27.4493 31.804 27.4493 31.992 27.4023 32.039C26.9323 32.321 26.4623 32.603 25.9923 32.838ZM28.6713 31.334C29.1413 31.428 29.7993 31.569 30.4103 31.757C30.7393 31.851 30.8333 32.462 30.6453 32.838C30.6453 32.885 30.4573 32.932 30.4103 32.885C30.2693 32.697 30.1753 32.415 30.0343 32.321C29.8933 32.227 29.5643 32.227 29.4233 32.321C29.0003 32.509 28.6713 32.509 28.4363 31.992C28.3893 31.898 28.2013 31.804 28.1073 31.71C28.0603 31.616 28.1073 31.522 28.1073 31.428C28.1073 31.381 28.1543 31.381 28.2013 31.334C28.3423 31.334 28.4363 31.334 28.6713 31.334ZM31.4443 31.757C31.4443 31.663 31.3973 31.616 31.3973 31.522C31.3973 31.522 31.4443 31.522 31.4913 31.475C31.4913 31.569 31.5383 31.616 31.5383 31.71C31.5383 31.71 31.4913 31.71 31.4443 31.757ZM34.2173 32.368L34.3113 32.274L34.3583 32.415L34.2173 32.368ZM27.0733 33.12C27.1203 33.167 27.1673 33.214 27.2613 33.214C27.2143 33.261 27.2143 33.308 27.1673 33.308C27.1203 33.355 27.0733 33.308 27.0263 33.308C27.0263 33.261 27.0733 33.167 27.0733 33.12ZM33.8883 33.308L33.7943 33.261H33.8883V33.308ZM28.5773 33.402L28.6713 33.355V33.402H28.5773ZM39.7405 18.268C39.7405 20.242 39.7405 22.263 39.7405 24.284C39.6935 25.694 39.8815 27.057 40.2105 28.42C41.0095 31.898 42.8425 33.308 45.6155 35.047C46.6495 35.658 47.7305 36.081 48.9995 35.893C49.4225 35.846 49.9395 35.94 50.3625 35.893C53.8875 35.517 57.8355 32.415 58.3995 28.749C58.5875 27.809 58.9635 26.916 58.9635 25.882C58.9635 21.135 58.9635 16.388 58.9635 11.641C58.9165 9.526 58.5405 7.552 57.4125 5.719C56.7075 4.591 56.0025 3.369 54.8275 2.664C53.1355 1.583 51.3495 0.689999 49.2345 0.830997C48.6705 0.877999 48.0595 0.783998 47.5425 0.924999C42.8425 2.382 39.8815 6.095 39.7405 11.124C39.6465 13.474 39.7405 15.871 39.7405 18.268ZM49.9395 2.899L49.9865 2.758L50.0805 2.852L49.9395 2.899ZM51.1615 4.356C51.1615 4.403 51.1145 4.497 51.1145 4.497C50.9735 4.497 50.5505 4.027 50.5505 3.886C50.5505 3.839 50.6445 3.792 50.6445 3.792C50.9265 3.745 51.2085 4.074 51.1615 4.356ZM52.3835 3.792C52.3365 3.792 52.2895 3.792 52.2425 3.792C52.2895 3.792 52.3365 3.792 52.3835 3.792ZM46.4145 4.544C46.3675 4.544 46.3205 4.497 46.2735 4.497C46.3675 4.45 46.4145 4.356 46.5085 4.356C46.5555 4.309 46.6025 4.356 46.6495 4.403C46.5555 4.45 46.4615 4.497 46.4145 4.544ZM49.2815 4.591L49.3285 4.685H49.2345L49.2815 4.591ZM53.9345 4.967H53.8405L53.8875 4.873L53.9345 4.967ZM54.0285 5.813C54.0755 6.001 54.1225 6.142 54.1695 6.236C54.0755 6.283 53.9345 6.377 53.7935 6.377C53.7935 6.377 53.6525 6.189 53.6995 6.142C53.7465 6.048 53.8875 5.954 54.0285 5.813ZM44.6285 19.443C44.7225 18.08 44.8165 16.764 44.9105 15.401C44.9575 14.414 45.0045 13.38 45.0045 12.346C45.0515 11.406 45.2395 10.513 45.5215 9.62C45.8975 8.116 47.5425 6.189 49.2345 6.189C50.2685 6.189 51.4435 6.988 52.0075 7.787C52.8065 8.727 53.4175 9.808 53.2765 11.171C53.2295 11.406 53.2765 11.688 53.3705 11.923C53.6995 12.675 53.6055 13.427 53.6055 14.179C53.6055 15.307 53.6995 16.341 53.8405 17.422C53.9815 18.409 53.8405 19.396 53.8405 20.383C53.7935 21.417 53.6525 22.404 53.6525 23.438C53.6525 25.929 52.9005 28.326 51.0205 30.018C50.3155 30.629 49.4695 30.77 48.5765 30.535C47.0725 30.112 45.4745 28.796 45.3335 27.151C45.2865 26.587 45.1925 26.023 45.0985 25.459C45.0515 24.989 45.0515 24.519 45.0045 24.049C44.7225 22.545 44.6285 20.994 44.6285 19.443ZM44.0645 6.518C44.0175 6.612 44.0175 6.706 44.0175 6.706C43.9235 6.706 43.8295 6.706 43.7825 6.659C43.6885 6.612 43.6415 6.518 43.5945 6.424C43.5945 6.377 43.6415 6.283 43.6885 6.236C43.7355 6.189 43.8295 6.189 43.8295 6.236C43.9235 6.33 44.0175 6.424 44.0645 6.518ZM45.4275 6.283L45.3335 6.236L45.4275 6.283ZM53.0885 6.753L53.0415 6.847L52.9945 6.8L53.0885 6.753ZM43.4065 7.74C43.5005 7.787 43.5945 7.787 43.5945 7.834C43.5475 7.928 43.5475 8.022 43.5005 8.069C43.4535 8.163 43.4065 8.257 43.3595 8.351C43.3595 8.304 43.2655 8.21 43.2655 8.116C43.2655 8.022 43.3595 7.881 43.4065 7.74ZM54.7335 8.68C54.7335 8.68 54.7335 8.727 54.6865 8.774C54.6395 8.727 54.5925 8.68 54.4985 8.633L54.7335 8.68ZM41.6205 9.338C41.8085 9.197 41.9495 9.056 42.1375 8.915C42.1845 8.915 42.2785 8.915 42.2785 8.915C42.2785 9.009 42.2785 9.15 42.2785 9.197C42.0435 9.244 41.8555 9.291 41.6205 9.338ZM55.2975 10.278C55.2975 10.184 55.3915 10.09 55.3915 9.996C55.4855 9.573 55.5795 9.526 55.9085 9.855C55.9555 9.855 55.9555 9.902 56.0025 9.949C55.7675 10.043 55.5325 10.184 55.2975 10.278ZM43.8295 9.949V9.855L43.9235 9.902L43.8295 9.949ZM41.4795 9.902C41.4795 9.902 41.4795 9.902 41.4795 9.855H41.5735L41.4795 9.902ZM56.7075 9.949C56.6605 9.949 56.6605 9.902 56.6605 9.902H56.7075V9.949ZM55.2975 10.278C55.4385 10.325 55.6265 10.372 55.8145 10.466L55.8615 10.56C55.7675 10.607 55.6265 10.701 55.6265 10.701C55.4855 10.56 55.3915 10.419 55.2975 10.278ZM42.2785 12.017C42.2315 12.017 42.1845 11.97 42.1375 11.97C41.9025 11.923 41.5735 11.97 41.6675 11.594C41.7615 11.171 41.3855 10.607 42.0905 10.466C42.2785 10.419 42.5135 10.372 42.7015 10.372C42.7485 10.325 42.9365 10.466 42.8895 10.513C42.8895 10.983 42.8425 11.406 42.7955 11.876C42.7955 12.111 42.7015 12.158 42.2785 12.017V11.97C42.3255 11.923 42.4195 11.876 42.4665 11.876C42.4195 11.829 42.3725 11.782 42.2785 11.782C42.2785 11.829 42.2785 11.923 42.2315 11.97L42.2785 12.017ZM55.8145 11.218C55.6735 11.312 55.5795 11.406 55.4855 11.5C55.4855 11.5 55.2975 11.406 55.3445 11.359C55.3445 11.265 55.3915 11.171 55.4855 11.124C55.5325 11.124 55.6735 11.171 55.8145 11.218ZM41.7615 13.239V13.145L41.8085 13.239C41.7615 13.239 41.7145 13.239 41.6675 13.239C41.6675 13.239 41.7145 13.239 41.7615 13.239ZM41.8085 18.268C41.7615 18.127 41.7615 18.033 41.8085 17.892C41.8085 17.845 41.8085 17.798 41.8555 17.798C41.9025 17.845 41.9495 17.892 41.9495 17.939C41.9025 18.033 41.8555 18.174 41.8085 18.268ZM56.2845 18.409C56.2375 18.315 56.1435 18.221 56.1435 18.08C56.0965 18.033 56.2375 17.939 56.2845 17.892C56.3315 17.939 56.4725 18.033 56.4725 18.08C56.4255 18.221 56.3315 18.315 56.2845 18.409ZM41.8085 18.315L41.9025 18.268C41.8555 18.268 41.8085 18.315 41.8085 18.315ZM42.6075 21.135L42.5605 21.088L42.6075 21.135ZM55.9555 21.558H56.0495H55.9555ZM42.1375 22.968C42.0905 22.968 42.0435 22.968 42.0435 22.921C42.0905 22.921 42.1375 22.968 42.1845 22.968C42.3725 22.592 42.4195 22.592 42.6075 22.874C42.6545 22.874 42.6545 22.921 42.6545 22.968C42.6075 23.015 42.5135 23.062 42.4195 23.062C42.3255 23.062 42.2315 23.015 42.1375 22.968ZM56.2845 24.143L56.3785 24.284C56.3315 24.237 56.3315 24.19 56.2845 24.143ZM56.3315 24.284C56.2845 24.378 56.2375 24.472 56.1435 24.472C55.9555 24.472 56.0025 24.331 56.0025 24.19L56.3315 24.284ZM42.1845 26.117L42.2315 26.023C42.2315 26.023 42.2785 26.023 42.3255 26.07C42.3255 26.07 42.2785 26.117 42.2785 26.164C42.2785 26.164 42.2315 26.117 42.1845 26.117ZM56.5665 26.211C56.6135 26.258 56.7075 26.305 56.7545 26.399C56.8015 26.54 56.8015 26.634 56.8015 26.775C56.7075 26.775 56.5665 26.822 56.4725 26.775C56.3785 26.775 56.2845 26.681 56.2375 26.587C56.3315 26.446 56.4725 26.352 56.5665 26.258C56.4255 26.258 56.3315 26.258 56.1905 26.211H56.5665ZM56.1905 26.258L56.2375 26.587C56.1905 26.493 56.1905 26.352 56.1905 26.258ZM43.3595 27.48C42.9835 27.339 42.8425 27.151 43.0305 26.916C43.1245 26.775 43.3125 26.681 43.4535 26.587L43.3595 27.48ZM55.0155 26.728L54.9685 26.681V26.634L55.0155 26.728ZM55.1095 27.997C55.1095 27.903 55.0155 27.809 55.0155 27.809C55.1565 27.668 55.2975 27.527 55.4385 27.433C55.4385 27.386 55.6265 27.527 55.6265 27.574C55.6265 27.856 55.4385 27.997 55.1095 27.997ZM42.3255 27.903C42.5135 28.044 42.7485 28.185 42.8895 28.373C42.9835 28.467 43.3595 28.42 43.1715 28.702C43.1245 28.749 42.8895 28.702 42.7485 28.655C42.3255 28.561 42.3255 28.514 42.3255 27.903ZM54.9685 28.655C55.0155 28.796 55.1095 28.89 55.1565 28.984C55.0625 29.031 54.9685 29.078 54.9215 29.078C54.7805 29.031 54.6865 28.937 54.5455 28.89C54.6865 28.796 54.7805 28.749 54.9685 28.655ZM44.4875 30.018L44.5815 30.065L44.4875 30.112V30.018ZM53.4645 30.206C53.5115 30.3 53.5585 30.394 53.6055 30.488C53.5585 30.535 53.4645 30.629 53.4175 30.582C53.3235 30.582 53.2295 30.488 53.2295 30.394C53.2295 30.347 53.3235 30.3 53.4645 30.206ZM44.3465 31.287C44.3465 31.287 44.3465 31.24 44.3935 31.193C44.3465 31.24 44.3465 31.287 44.3465 31.287ZM44.3465 31.428L44.4405 31.475L44.3465 31.428ZM51.6785 32.744C51.7725 32.791 51.8195 32.791 51.8665 32.791C51.9135 32.697 51.9605 32.65 52.0075 32.556C52.1955 31.945 52.1955 31.898 52.8065 32.18V32.133L52.8535 32.18H52.8065C52.8065 32.227 52.8535 32.321 52.8535 32.415C52.7125 33.261 51.6785 33.825 50.9265 33.543C50.5975 33.402 50.5505 33.214 50.7855 32.697L50.6915 32.744L50.7855 32.65V32.697C51.1145 33.261 51.2555 33.261 51.7255 32.791L51.6315 32.697L51.6785 32.744ZM48.2945 32.18V32.086L48.3415 32.18H48.2945ZM46.4615 32.462C46.4615 32.509 46.4615 32.603 46.4615 32.603C46.2735 32.65 46.0855 32.744 45.8975 32.791C45.8505 32.791 45.7565 32.65 45.7565 32.556C45.8035 32.321 45.9915 32.274 46.2265 32.321C46.3205 32.321 46.3675 32.415 46.4615 32.462ZM51.8665 32.744V32.791H51.9135L51.8665 32.744ZM47.6365 33.919C47.5895 33.919 47.5425 33.919 47.4955 33.919C47.4955 33.872 47.4955 33.825 47.4955 33.778C47.5425 33.778 47.5895 33.778 47.6365 33.778C47.6365 33.825 47.6365 33.872 47.6365 33.919ZM80.5816 26.258H80.5346C80.5816 23.814 80.6286 21.37 80.6756 18.926C80.6756 18.456 80.7227 17.986 80.6286 17.516C80.6286 17.187 80.4876 16.811 80.3466 16.482C80.2056 16.106 79.9236 15.965 79.4536 16.153C79.0306 16.294 78.6076 16.247 78.1376 16.153C77.6676 16.012 77.1976 15.965 76.6806 15.965C76.2106 15.965 75.6936 16.012 75.2236 16.153C74.7066 16.294 74.1896 16.341 73.6726 16.341C72.9206 16.341 72.1216 16.341 71.3696 16.341C70.9466 16.341 70.6646 16.576 70.5236 16.905C70.3826 17.187 70.3356 17.516 70.3356 17.798C70.4296 18.55 70.5706 19.255 70.6646 19.96C70.7116 20.148 70.7586 20.383 70.8056 20.571C70.9936 21.135 71.2286 21.323 71.8396 21.37C72.3566 21.37 72.8736 21.37 73.3906 21.37C75.2706 21.37 75.1296 21.323 75.3646 23.109C75.5056 24.049 75.5056 24.989 75.1766 25.882C74.5186 27.997 73.4376 28.984 71.5576 30.159C71.3226 30.3 71.0876 30.347 70.8526 30.347C70.5706 30.347 70.3356 30.3 70.1006 30.159C69.8186 30.018 69.5836 29.83 69.3486 29.595C67.7976 28.279 66.9986 26.587 66.9516 24.566C66.9046 23.673 66.9516 22.827 66.9516 21.934C66.9986 20.242 67.0456 18.597 66.8106 16.952C66.7636 16.717 66.7636 16.435 66.7636 16.2C66.8106 15.072 66.8576 13.991 66.9046 12.91C66.9046 12.487 66.9046 12.064 67.0456 11.688C67.1866 11.218 67.2336 10.795 67.2336 10.325C67.3746 8.727 68.7376 5.766 70.6646 5.766C73.3436 5.766 74.6126 8.774 75.1766 10.936C75.2706 11.171 75.4116 11.265 75.6466 11.265C77.0566 11.312 78.5136 11.312 79.9706 11.312C80.2996 11.312 80.4876 11.124 80.5346 10.842C80.6286 9.479 80.5816 8.116 80.0646 6.847C79.2656 4.92 78.0436 3.228 76.2106 2.147C75.4586 1.677 74.6596 1.254 73.9076 0.830997C73.4376 0.548998 72.9676 0.454999 72.4036 0.454999C71.3696 0.454999 70.3356 0.501999 69.3016 0.454999C68.6906 0.454999 68.2206 0.595998 67.7506 1.019C67.3746 1.348 66.8576 1.536 66.3876 1.724C65.3536 2.241 64.4606 2.946 63.8496 3.933C63.3326 4.779 62.8156 5.625 62.3456 6.471C61.6876 7.646 61.4526 8.868 61.4526 10.184C61.4996 13.427 61.4996 16.623 61.4996 19.866C61.4996 20.9 61.5466 21.934 61.3586 22.968C61.3116 23.156 61.2646 23.391 61.3116 23.579C61.6406 24.425 61.4996 25.318 61.4996 26.211C61.4526 27.668 61.8756 29.078 62.4866 30.394C62.6746 30.864 62.8626 31.334 63.2386 31.71C64.0376 32.65 64.9306 33.496 65.8706 34.389C66.1526 34.624 66.5756 34.765 66.8576 35.047C67.3746 35.47 67.9386 35.658 68.5966 35.658C70.0066 35.658 71.3696 35.658 72.7796 35.658C73.3436 35.658 73.8136 35.517 74.2836 35.282C74.4716 35.141 74.7066 35 74.9416 34.906C75.1766 34.765 75.3646 34.812 75.4116 35.047C75.5056 35.423 75.6466 35.611 76.0226 35.658C76.3046 35.658 76.5396 35.752 76.7746 35.846C77.1506 35.987 77.5266 36.034 77.8556 35.846C78.3256 35.658 78.7016 35.752 79.1716 35.893C79.8296 36.081 80.4876 35.611 80.5346 34.953C80.5816 34.483 80.5816 34.013 80.5816 33.543C80.5816 31.099 80.5816 28.702 80.5816 26.258ZM68.8316 3.604C68.8786 3.604 68.9726 3.604 68.9726 3.604C69.0196 3.745 68.9726 3.792 68.8316 3.745C68.8316 3.745 68.8316 3.651 68.8316 3.604ZM67.6096 4.168H67.5156H67.6096ZM75.3646 6.189C75.5056 6.001 75.6466 5.86 75.7406 5.672C75.8346 5.531 75.8816 5.531 75.9756 5.625C75.9756 5.719 76.0226 5.813 75.9756 5.907C75.8816 6.189 75.5996 6.189 75.3646 6.189ZM75.3646 6.283V6.189V6.283ZM75.8816 7.364C75.8346 7.364 75.7876 7.364 75.7876 7.364C75.7406 7.317 75.7406 7.27 75.7876 7.223C75.8346 7.129 75.9286 7.129 75.9286 7.27C75.9286 7.317 75.8816 7.364 75.8816 7.364ZM63.8966 8.257L63.9906 8.304H63.9436L63.8966 8.257ZM65.5886 8.492L65.6356 8.398L65.7296 8.492H65.5886ZM64.9776 8.774C65.1656 9.15 65.1186 9.526 64.8366 9.855C64.6016 10.09 64.4136 10.372 64.2256 10.654C64.0376 10.607 63.8496 10.607 63.6616 10.56C63.5676 10.56 63.5206 10.466 63.4736 10.372C63.4736 10.325 63.5206 10.231 63.5206 10.231C64.4606 10.184 64.5546 9.338 64.9776 8.774ZM64.2726 11.03C64.2256 11.03 64.2256 10.983 64.2256 10.936C64.2256 10.842 64.2256 10.748 64.2256 10.701C64.3196 10.748 64.3666 10.795 64.4136 10.889C64.4606 10.936 64.4136 11.03 64.3666 11.124C64.3196 11.077 64.2726 11.077 64.2726 11.03ZM64.7426 18.221C64.6486 18.315 64.6016 18.456 64.5076 18.503C64.4136 18.55 64.2726 18.503 64.2256 18.456C64.1786 18.362 64.1786 18.221 64.2256 18.174C64.3196 18.08 64.4606 18.033 64.6016 17.939C64.6486 18.033 64.6956 18.127 64.7426 18.221ZM76.8216 18.08V18.127H76.7276L76.8216 18.08ZM78.7016 19.067L78.5606 19.114L78.6546 19.067H78.7016ZM75.7406 19.161L75.6466 19.255L75.6936 19.114L75.7406 19.161ZM76.6336 19.913C76.6336 19.866 76.6336 19.772 76.6806 19.725C76.6806 19.725 76.7276 19.725 76.7746 19.725C76.7746 19.772 76.7746 19.819 76.7276 19.866L76.6336 19.913ZM78.0436 21.605C77.9966 21.558 77.9496 21.558 77.9026 21.511C77.7616 21.229 77.5266 20.994 77.3856 20.759C77.3386 20.665 77.4326 20.43 77.5266 20.383C77.7146 20.242 77.9496 20.148 77.9496 19.866C78.0906 19.96 78.2316 19.96 78.2786 20.054C78.3726 20.195 78.4196 20.383 78.3726 20.477C78.2786 20.759 78.0906 21.041 78.1376 21.37C78.1376 21.417 78.0906 21.511 78.0436 21.605ZM77.6676 22.827C77.7146 22.827 77.8086 22.827 77.8086 22.827C77.8086 22.921 77.8086 22.968 77.7616 23.062C77.7146 23.015 77.6676 22.968 77.6206 22.921L77.6676 22.827ZM63.9906 23.626C63.8496 23.297 63.8966 23.25 64.1316 23.156L63.9906 23.626ZM64.0376 23.673C64.0846 23.626 64.1786 23.579 64.2726 23.532C64.3196 23.532 64.3666 23.532 64.4136 23.532C64.5076 23.626 64.4606 23.673 64.3196 23.673C64.2256 23.673 64.1316 23.673 64.0376 23.673ZM78.7486 23.861C78.7016 24.284 78.3726 24.425 78.0906 24.613C77.9496 24.707 77.6206 24.613 77.6206 24.425C77.6206 24.284 77.6206 24.049 77.7146 24.002C78.0436 23.861 78.3726 23.72 78.6546 23.626C78.7016 23.626 78.7486 23.673 78.7486 23.72C78.7956 23.767 78.7486 23.814 78.7486 23.861ZM64.9776 24.707L65.0246 24.801H64.9306L64.9776 24.707ZM63.9436 25.365C63.8496 25.318 63.7556 25.271 63.6146 25.224C63.6616 25.224 63.6616 25.13 63.6616 25.13C63.8026 25.13 63.9436 25.177 64.0846 25.177C64.0376 25.224 63.9906 25.271 63.9436 25.365ZM77.6206 25.412L77.6676 25.459V25.506L77.6206 25.412ZM76.9626 25.788C77.0096 25.741 77.0566 25.694 77.1036 25.647C77.2446 25.6 77.4326 25.553 77.6206 25.506C77.4796 25.647 77.3856 25.788 77.2446 25.882C77.1976 25.882 77.0566 25.788 76.9626 25.788ZM64.9306 26.07L64.9776 25.976L65.0246 26.07H64.9306ZM78.1846 26.54L78.1376 26.446C78.1376 26.352 78.0906 26.258 78.1376 26.164C78.1846 26.117 78.2786 26.07 78.3256 26.023C78.3726 26.023 78.4666 26.07 78.4666 26.07C78.4196 26.164 78.4196 26.258 78.3726 26.305C78.3256 26.352 78.2316 26.399 78.1376 26.399L78.1846 26.54ZM76.9156 27.245C76.7746 27.198 76.6336 27.151 76.5396 27.057C76.4926 27.01 76.5396 26.869 76.5866 26.775C76.6336 26.634 76.8686 26.681 76.9156 26.869C76.9626 26.963 76.9156 27.104 76.9156 27.245ZM65.7766 26.963L65.8236 27.057H65.7766V26.963ZM65.4006 27.151C65.4476 27.151 65.4476 27.057 65.4946 27.057C65.5416 27.057 65.6356 27.057 65.6826 27.104C65.5886 27.104 65.4946 27.151 65.4006 27.151ZM76.9626 27.245C77.2446 27.104 77.5736 27.057 77.9026 27.245C77.9026 27.292 77.9496 27.339 77.9496 27.386C77.9496 27.433 77.9026 27.48 77.8556 27.48C77.5266 27.621 77.1976 27.527 76.9626 27.245ZM76.0226 27.903L75.9286 27.95L75.9756 27.856L76.0226 27.903ZM71.2756 31.71L71.3696 31.616L71.3226 31.663L72.4036 31.475L73.4846 31.381C73.4846 31.24 73.4846 31.099 73.5316 30.911C73.5786 30.582 73.6726 30.488 74.0486 30.535C74.1896 30.535 74.3306 30.629 74.5186 30.629H75.0826C75.1766 30.253 75.3646 30.018 75.8346 30.206C76.1166 30.347 76.3516 30.206 76.4926 29.971C76.4926 29.877 76.4926 29.689 76.4456 29.689C76.0696 29.595 75.6466 29.501 75.2706 29.407C75.0826 29.36 74.8006 29.454 74.8476 29.125C74.8476 29.031 75.0356 28.89 75.1766 28.843C75.4116 28.749 75.6936 28.655 75.9286 28.655C76.3516 28.702 76.6806 28.514 77.0566 28.373C77.1506 28.232 77.1506 28.091 77.2446 27.997C77.3856 27.809 77.6676 27.809 77.8086 27.95C78.4196 28.702 79.0306 29.501 78.3726 30.535C78.2786 30.77 78.2316 31.099 78.5136 31.24C78.8426 31.381 78.8426 31.475 78.6546 31.757C78.5136 31.945 78.7016 32.133 78.8896 32.274C78.9366 32.321 78.8896 32.415 78.8896 32.509C78.7956 32.509 78.7016 32.556 78.6076 32.509C78.5136 32.509 78.4196 32.509 78.3256 32.462C78.0436 33.073 77.6206 33.543 76.9626 33.778C76.9626 33.637 76.9626 33.496 76.9626 33.355C76.9156 32.838 76.9156 32.838 76.3516 32.791C76.3046 32.744 76.2576 32.65 76.2106 32.556C76.0226 32.321 76.0696 32.227 76.3516 32.18C76.4926 32.18 76.6806 32.227 76.8216 32.18C77.0096 32.133 77.0096 31.945 76.9156 31.804C76.8686 31.71 76.7746 31.663 76.7276 31.616C76.4926 31.71 76.2576 31.851 76.0226 31.851C75.5996 31.898 75.3646 32.18 75.1296 32.556L74.7536 32.509C74.4246 32.368 74.1896 32.133 74.2366 31.663C74.2836 31.428 74.1896 31.193 74.1896 30.911L73.4846 31.381L72.4036 31.475L72.5916 32.368H72.6386C72.6386 32.415 72.6856 32.462 72.6856 32.509C72.6856 32.509 72.7326 32.556 72.6386 32.556C72.6386 32.509 72.6386 32.462 72.6386 32.415L72.5916 32.368C72.3566 32.274 72.1216 32.18 71.8866 32.039C71.6986 31.945 71.5106 31.804 71.3226 31.663L71.2756 31.71ZM65.7296 27.997L65.8236 27.95V28.044L65.7296 27.997ZM77.0566 28.42C77.0566 28.561 76.9626 28.655 76.9626 28.749C76.9626 28.796 77.0566 28.843 77.1506 28.89C77.1506 28.89 77.1976 28.843 77.1976 28.796C77.1506 28.655 77.1036 28.561 77.1036 28.373L77.0566 28.42ZM63.6616 28.843C63.6146 28.843 63.5676 28.89 63.5676 28.89C63.5206 28.89 63.5206 28.796 63.5206 28.796C63.5206 28.749 63.5676 28.749 63.6146 28.749L63.6616 28.843ZM65.9176 28.984C65.9176 29.548 65.5416 29.783 65.1186 29.971C65.0716 29.971 65.0246 29.971 64.9776 29.924C64.9306 29.924 64.8836 29.877 64.9306 29.83C64.9776 29.219 65.2126 29.031 65.9176 28.984ZM66.6226 29.313C66.5756 29.266 66.5756 29.172 66.5286 29.031C66.5756 29.078 66.6226 29.078 66.6696 29.125C66.6696 29.219 66.6226 29.266 66.6226 29.313ZM65.7766 30.723C66.1526 30.77 66.4346 30.864 66.6226 31.193C66.6226 31.24 66.6226 31.334 66.6226 31.334C66.5286 31.381 66.4346 31.475 66.3876 31.475C66.1526 31.287 65.9176 31.099 65.6826 30.911V30.817C65.6826 30.77 65.7296 30.77 65.7766 30.723ZM76.6806 31.569C76.9626 31.569 77.1976 31.522 77.2446 31.193C77.2446 31.099 77.1506 30.864 77.0566 30.864C76.9156 30.864 76.6806 30.911 76.5396 31.005C76.2576 31.287 76.5396 31.428 76.6806 31.569ZM68.3616 31.757C68.3616 31.522 68.3616 31.287 68.3616 31.099L68.4086 31.052L68.3616 31.757ZM76.7276 31.569C76.7276 31.569 76.7276 31.569 76.6806 31.569H76.7276ZM68.9256 32.415C68.6436 32.415 68.4086 32.415 68.1266 32.415C67.8916 32.415 67.7036 32.321 67.5626 32.086C67.5156 32.086 67.4686 32.086 67.4216 32.086C67.9856 32.18 68.4556 32.321 68.9256 32.415ZM73.8606 32.744C73.8136 32.838 73.8136 32.932 73.7666 32.932C73.7196 32.979 73.6726 32.979 73.6256 32.979C73.5316 32.791 73.4376 32.603 73.3436 32.415C73.3436 32.368 73.4376 32.274 73.4846 32.227C73.4846 32.18 73.6256 32.227 73.6256 32.274C73.7196 32.415 73.8136 32.603 73.8606 32.744ZM69.0196 32.415C68.9726 32.415 68.9726 32.415 68.9726 32.415V32.274L69.0196 32.415ZM78.3256 32.462H78.0906C78.1846 32.462 78.2316 32.462 78.3256 32.462ZM71.3226 32.791H71.1816C70.9936 32.979 70.8056 33.12 70.5706 32.932C70.4766 32.885 70.4766 32.697 70.4766 32.556C70.5236 32.556 70.6646 32.556 70.7116 32.603C70.8526 32.744 70.9936 32.838 71.2286 32.744L71.3226 32.791ZM76.9626 33.778C76.6806 33.919 76.3986 34.013 76.1636 33.684C76.0226 33.543 75.8816 33.355 75.9286 33.214C75.9756 33.073 76.2106 32.979 76.3516 32.838L76.9626 33.778ZM75.1296 33.637V33.543L75.1766 33.59C75.1296 33.59 75.1296 33.637 75.1296 33.637ZM102.246 26.258H102.199C102.246 23.814 102.293 21.37 102.34 18.926C102.34 18.456 102.387 17.986 102.293 17.516C102.293 17.187 102.152 16.811 102.011 16.482C101.87 16.106 101.588 15.965 101.118 16.153C100.695 16.294 100.272 16.247 99.8017 16.153C99.3317 16.012 98.8617 15.965 98.3447 15.965C97.8747 15.965 97.3577 16.012 96.8877 16.153C96.3707 16.294 95.8537 16.341 95.3367 16.341C94.5847 16.341 93.7857 16.341 93.0337 16.341C92.6107 16.341 92.3287 16.576 92.1877 16.905C92.0467 17.187 91.9997 17.516 91.9997 17.798C92.0937 18.55 92.2347 19.255 92.3287 19.96C92.3757 20.148 92.4227 20.383 92.4697 20.571C92.6577 21.135 92.8927 21.323 93.5037 21.37C94.0207 21.37 94.5377 21.37 95.0547 21.37C96.9347 21.37 96.7937 21.323 97.0287 23.109C97.1697 24.049 97.1697 24.989 96.8407 25.882C96.1827 27.997 95.1017 28.984 93.2217 30.159C92.9867 30.3 92.7517 30.347 92.5167 30.347C92.2347 30.347 91.9997 30.3 91.7647 30.159C91.4827 30.018 91.2477 29.83 91.0127 29.595C89.4617 28.279 88.6627 26.587 88.6157 24.566C88.5687 23.673 88.6157 22.827 88.6157 21.934C88.6627 20.242 88.7097 18.597 88.4747 16.952C88.4277 16.717 88.4277 16.435 88.4277 16.2C88.4747 15.072 88.5217 13.991 88.5687 12.91C88.5687 12.487 88.5687 12.064 88.7097 11.688C88.8507 11.218 88.8977 10.795 88.8977 10.325C89.0387 8.727 90.4017 5.766 92.3287 5.766C95.0077 5.766 96.2767 8.774 96.8407 10.936C96.9347 11.171 97.0757 11.265 97.3107 11.265C98.7207 11.312 100.178 11.312 101.635 11.312C101.964 11.312 102.152 11.124 102.199 10.842C102.293 9.479 102.246 8.116 101.729 6.847C100.93 4.92 99.7077 3.228 97.8747 2.147C97.1227 1.677 96.3237 1.254 95.5717 0.830997C95.1017 0.548998 94.6317 0.454999 94.0677 0.454999C93.0337 0.454999 91.9997 0.501999 90.9657 0.454999C90.3547 0.454999 89.8847 0.595998 89.4147 1.019C89.0387 1.348 88.5217 1.536 88.0517 1.724C87.0177 2.241 86.1247 2.946 85.5137 3.933C84.9967 4.779 84.4797 5.625 84.0097 6.471C83.3517 7.646 83.1167 8.868 83.1167 10.184C83.1637 13.427 83.1637 16.623 83.1637 19.866C83.1637 20.9 83.2107 21.934 83.0227 22.968C82.9757 23.156 82.9287 23.391 82.9757 23.579C83.3047 24.425 83.1637 25.318 83.1637 26.211C83.1167 27.668 83.5397 29.078 84.1507 30.394C84.3387 30.864 84.5267 31.334 84.9027 31.71C85.7017 32.65 86.5947 33.496 87.5347 34.389C87.8167 34.624 88.2397 34.765 88.5217 35.047C89.0387 35.47 89.6027 35.658 90.2607 35.658C91.6707 35.658 93.0337 35.658 94.4437 35.658C95.0077 35.658 95.4777 35.517 95.9477 35.282C96.1357 35.141 96.3707 35 96.6057 34.906C96.8407 34.765 97.0287 34.812 97.0757 35.047C97.1697 35.423 97.3107 35.611 97.6867 35.658C97.9687 35.658 98.2037 35.752 98.4387 35.846C98.8147 35.987 99.1907 36.034 99.5197 35.846C99.9897 35.658 100.366 35.752 100.836 35.893C101.494 36.081 102.152 35.611 102.199 34.953C102.246 34.483 102.246 34.013 102.246 33.543C102.246 31.099 102.246 28.702 102.246 26.258ZM90.4957 3.604C90.5427 3.604 90.6367 3.604 90.6367 3.604C90.6837 3.745 90.6367 3.792 90.4957 3.745C90.4957 3.745 90.4957 3.651 90.4957 3.604ZM89.2737 4.168H89.1797H89.2737ZM97.0287 6.189C97.1697 6.001 97.3107 5.86 97.4047 5.672C97.4987 5.531 97.5457 5.531 97.6397 5.625C97.6397 5.719 97.6867 5.813 97.6397 5.907C97.5457 6.189 97.2637 6.189 97.0287 6.189ZM97.0287 6.283V6.189V6.283ZM97.5457 7.364C97.4987 7.364 97.4517 7.364 97.4517 7.364C97.4047 7.317 97.4047 7.27 97.4517 7.223C97.4987 7.129 97.5927 7.129 97.5927 7.27C97.5927 7.317 97.5457 7.364 97.5457 7.364ZM85.5607 8.257L85.6547 8.304H85.6077L85.5607 8.257ZM87.2527 8.492L87.2997 8.398L87.3937 8.492H87.2527ZM86.6417 8.774C86.8297 9.15 86.7827 9.526 86.5007 9.855C86.2657 10.09 86.0777 10.372 85.8897 10.654C85.7017 10.607 85.5137 10.607 85.3257 10.56C85.2317 10.56 85.1847 10.466 85.1377 10.372C85.1377 10.325 85.1847 10.231 85.1847 10.231C86.1247 10.184 86.2187 9.338 86.6417 8.774ZM85.9367 11.03C85.8897 11.03 85.8897 10.983 85.8897 10.936C85.8897 10.842 85.8897 10.748 85.8897 10.701C85.9837 10.748 86.0307 10.795 86.0777 10.889C86.1247 10.936 86.0777 11.03 86.0307 11.124C85.9837 11.077 85.9367 11.077 85.9367 11.03ZM86.4067 18.221C86.3127 18.315 86.2657 18.456 86.1717 18.503C86.0777 18.55 85.9367 18.503 85.8897 18.456C85.8427 18.362 85.8427 18.221 85.8897 18.174C85.9837 18.08 86.1247 18.033 86.2657 17.939C86.3127 18.033 86.3597 18.127 86.4067 18.221ZM98.4857 18.08V18.127H98.3917L98.4857 18.08ZM100.366 19.067L100.225 19.114L100.319 19.067H100.366ZM97.4047 19.161L97.3107 19.255L97.3577 19.114L97.4047 19.161ZM98.2977 19.913C98.2977 19.866 98.2977 19.772 98.3447 19.725C98.3447 19.725 98.3917 19.725 98.4387 19.725C98.4387 19.772 98.4387 19.819 98.3917 19.866L98.2977 19.913ZM99.7077 21.605C99.6607 21.558 99.6137 21.558 99.5667 21.511C99.4257 21.229 99.1907 20.994 99.0497 20.759C99.0027 20.665 99.0967 20.43 99.1907 20.383C99.3787 20.242 99.6137 20.148 99.6137 19.866C99.7547 19.96 99.8957 19.96 99.9427 20.054C100.037 20.195 100.084 20.383 100.037 20.477C99.9427 20.759 99.7547 21.041 99.8017 21.37C99.8017 21.417 99.7547 21.511 99.7077 21.605ZM99.3317 22.827C99.3787 22.827 99.4727 22.827 99.4727 22.827C99.4727 22.921 99.4727 22.968 99.4257 23.062C99.3787 23.015 99.3317 22.968 99.2847 22.921L99.3317 22.827ZM85.6547 23.626C85.5137 23.297 85.5607 23.25 85.7957 23.156L85.6547 23.626ZM85.7017 23.673C85.7487 23.626 85.8427 23.579 85.9367 23.532C85.9837 23.532 86.0307 23.532 86.0777 23.532C86.1717 23.626 86.1247 23.673 85.9837 23.673C85.8897 23.673 85.7957 23.673 85.7017 23.673ZM100.413 23.861C100.366 24.284 100.037 24.425 99.7547 24.613C99.6137 24.707 99.2847 24.613 99.2847 24.425C99.2847 24.284 99.2847 24.049 99.3787 24.002C99.7077 23.861 100.037 23.72 100.319 23.626C100.366 23.626 100.413 23.673 100.413 23.72C100.46 23.767 100.413 23.814 100.413 23.861ZM86.6417 24.707L86.6887 24.801H86.5947L86.6417 24.707ZM85.6077 25.365C85.5137 25.318 85.4197 25.271 85.2787 25.224C85.3257 25.224 85.3257 25.13 85.3257 25.13C85.4667 25.13 85.6077 25.177 85.7487 25.177C85.7017 25.224 85.6547 25.271 85.6077 25.365ZM99.2847 25.412L99.3317 25.459V25.506L99.2847 25.412ZM98.6267 25.788C98.6737 25.741 98.7207 25.694 98.7677 25.647C98.9087 25.6 99.0967 25.553 99.2847 25.506C99.1437 25.647 99.0497 25.788 98.9087 25.882C98.8617 25.882 98.7207 25.788 98.6267 25.788ZM86.5947 26.07L86.6417 25.976L86.6887 26.07H86.5947ZM99.8487 26.54L99.8017 26.446C99.8017 26.352 99.7547 26.258 99.8017 26.164C99.8487 26.117 99.9427 26.07 99.9897 26.023C100.037 26.023 100.131 26.07 100.131 26.07C100.084 26.164 100.084 26.258 100.037 26.305C99.9897 26.352 99.8957 26.399 99.8017 26.399L99.8487 26.54ZM98.5797 27.245C98.4387 27.198 98.2977 27.151 98.2037 27.057C98.1567 27.01 98.2037 26.869 98.2507 26.775C98.2977 26.634 98.5327 26.681 98.5797 26.869C98.6267 26.963 98.5797 27.104 98.5797 27.245ZM87.4407 26.963L87.4877 27.057H87.4407V26.963ZM87.0647 27.151C87.1117 27.151 87.1117 27.057 87.1587 27.057C87.2057 27.057 87.2997 27.057 87.3467 27.104C87.2527 27.104 87.1587 27.151 87.0647 27.151ZM98.6267 27.245C98.9087 27.104 99.2377 27.057 99.5667 27.245C99.5667 27.292 99.6137 27.339 99.6137 27.386C99.6137 27.433 99.5667 27.48 99.5197 27.48C99.1907 27.621 98.8617 27.527 98.6267 27.245ZM97.6867 27.903L97.5927 27.95L97.6397 27.856L97.6867 27.903ZM92.9397 31.71L93.0337 31.616L92.9867 31.663L94.0677 31.475L95.1487 31.381C95.1487 31.24 95.1487 31.099 95.1957 30.911C95.2427 30.582 95.3367 30.488 95.7127 30.535C95.8537 30.535 95.9947 30.629 96.1827 30.629H96.7467C96.8407 30.253 97.0287 30.018 97.4987 30.206C97.7807 30.347 98.0157 30.206 98.1567 29.971C98.1567 29.877 98.1567 29.689 98.1097 29.689C97.7337 29.595 97.3107 29.501 96.9347 29.407C96.7467 29.36 96.4647 29.454 96.5117 29.125C96.5117 29.031 96.6997 28.89 96.8407 28.843C97.0757 28.749 97.3577 28.655 97.5927 28.655C98.0157 28.702 98.3447 28.514 98.7207 28.373C98.8147 28.232 98.8147 28.091 98.9087 27.997C99.0497 27.809 99.3317 27.809 99.4727 27.95C100.084 28.702 100.695 29.501 100.037 30.535C99.9427 30.77 99.8957 31.099 100.178 31.24C100.507 31.381 100.507 31.475 100.319 31.757C100.178 31.945 100.366 32.133 100.554 32.274C100.601 32.321 100.554 32.415 100.554 32.509C100.46 32.509 100.366 32.556 100.272 32.509C100.178 32.509 100.084 32.509 99.9897 32.462C99.7077 33.073 99.2847 33.543 98.6267 33.778C98.6267 33.637 98.6267 33.496 98.6267 33.355C98.5797 32.838 98.5797 32.838 98.0157 32.791C97.9687 32.744 97.9217 32.65 97.8747 32.556C97.6867 32.321 97.7337 32.227 98.0157 32.18C98.1567 32.18 98.3447 32.227 98.4857 32.18C98.6737 32.133 98.6737 31.945 98.5797 31.804C98.5327 31.71 98.4387 31.663 98.3917 31.616C98.1567 31.71 97.9217 31.851 97.6867 31.851C97.2637 31.898 97.0287 32.18 96.7937 32.556L96.4177 32.509C96.0887 32.368 95.8537 32.133 95.9007 31.663C95.9477 31.428 95.8537 31.193 95.8537 30.911L95.1487 31.381L94.0677 31.475L94.2557 32.368H94.3027C94.3027 32.415 94.3497 32.462 94.3497 32.509C94.3497 32.509 94.3967 32.556 94.3027 32.556C94.3027 32.509 94.3027 32.462 94.3027 32.415L94.2557 32.368C94.0207 32.274 93.7857 32.18 93.5507 32.039C93.3627 31.945 93.1747 31.804 92.9867 31.663L92.9397 31.71ZM87.3937 27.997L87.4877 27.95V28.044L87.3937 27.997ZM98.7207 28.42C98.7207 28.561 98.6267 28.655 98.6267 28.749C98.6267 28.796 98.7207 28.843 98.8147 28.89C98.8147 28.89 98.8617 28.843 98.8617 28.796C98.8147 28.655 98.7677 28.561 98.7677 28.373L98.7207 28.42ZM85.3257 28.843C85.2787 28.843 85.2317 28.89 85.2317 28.89C85.1847 28.89 85.1847 28.796 85.1847 28.796C85.1847 28.749 85.2317 28.749 85.2787 28.749L85.3257 28.843ZM87.5817 28.984C87.5817 29.548 87.2057 29.783 86.7827 29.971C86.7357 29.971 86.6887 29.971 86.6417 29.924C86.5947 29.924 86.5477 29.877 86.5947 29.83C86.6417 29.219 86.8767 29.031 87.5817 28.984ZM88.2867 29.313C88.2397 29.266 88.2397 29.172 88.1927 29.031C88.2397 29.078 88.2867 29.078 88.3337 29.125C88.3337 29.219 88.2867 29.266 88.2867 29.313ZM87.4407 30.723C87.8167 30.77 88.0987 30.864 88.2867 31.193C88.2867 31.24 88.2867 31.334 88.2867 31.334C88.1927 31.381 88.0987 31.475 88.0517 31.475C87.8167 31.287 87.5817 31.099 87.3467 30.911V30.817C87.3467 30.77 87.3937 30.77 87.4407 30.723ZM98.3447 31.569C98.6267 31.569 98.8617 31.522 98.9087 31.193C98.9087 31.099 98.8147 30.864 98.7207 30.864C98.5797 30.864 98.3447 30.911 98.2037 31.005C97.9217 31.287 98.2037 31.428 98.3447 31.569ZM90.0257 31.757C90.0257 31.522 90.0257 31.287 90.0257 31.099L90.0727 31.052L90.0257 31.757ZM98.3917 31.569C98.3917 31.569 98.3917 31.569 98.3447 31.569H98.3917ZM90.5897 32.415C90.3077 32.415 90.0727 32.415 89.7907 32.415C89.5557 32.415 89.3677 32.321 89.2267 32.086C89.1797 32.086 89.1327 32.086 89.0857 32.086C89.6497 32.18 90.1197 32.321 90.5897 32.415ZM95.5247 32.744C95.4777 32.838 95.4777 32.932 95.4307 32.932C95.3837 32.979 95.3367 32.979 95.2897 32.979C95.1957 32.791 95.1017 32.603 95.0077 32.415C95.0077 32.368 95.1017 32.274 95.1487 32.227C95.1487 32.18 95.2897 32.227 95.2897 32.274C95.3837 32.415 95.4777 32.603 95.5247 32.744ZM90.6837 32.415C90.6367 32.415 90.6367 32.415 90.6367 32.415V32.274L90.6837 32.415ZM99.9897 32.462H99.7547C99.8487 32.462 99.8957 32.462 99.9897 32.462ZM92.9867 32.791H92.8457C92.6577 32.979 92.4697 33.12 92.2347 32.932C92.1407 32.885 92.1407 32.697 92.1407 32.556C92.1877 32.556 92.3287 32.556 92.3757 32.603C92.5167 32.744 92.6577 32.838 92.8927 32.744L92.9867 32.791ZM98.6267 33.778C98.3447 33.919 98.0627 34.013 97.8277 33.684C97.6867 33.543 97.5457 33.355 97.5927 33.214C97.6397 33.073 97.8747 32.979 98.0157 32.838L98.6267 33.778ZM96.7937 33.637V33.543L96.8407 33.59C96.7937 33.59 96.7937 33.637 96.7937 33.637Z" fill="white"/>
</svg>
