<svg width="53" height="52" viewBox="0 0 53 52" fill="none" xmlns="http://www.w3.org/2000/svg">
<path d="M31.1961 34.8835C32.1572 35.8445 33.1081 36.7387 34.0023 37.6896C34.9734 38.7175 36.0479 39.565 36.9238 40.6111C37.0391 40.7265 37.2213 40.8519 37.3366 40.9672C37.9983 41.4587 38.5226 41.4725 39.0149 41.0572C39.6105 40.4615 40.2061 39.8659 40.8018 39.2703C41.3123 38.7598 41.3489 38.5694 40.7502 37.6304C40.5864 37.4099 40.4509 37.1609 40.2203 36.9303C38.9334 35.7569 37.8451 34.385 36.3881 33.3818C36.1008 33.2079 35.8115 32.8052 35.5992 32.4794C34.9438 31.5971 34.175 30.8283 33.3028 30.2397C32.3537 29.5743 31.5465 28.767 30.8526 27.8463C30.1588 26.9256 29.3516 26.1183 28.5727 25.2827C26.8429 23.5529 25.113 21.823 23.3447 20.0548C22.9219 19.6319 22.4423 19.2658 21.9728 18.9665C21.4932 18.6003 21.042 18.2059 20.7043 17.6979C20.5203 17.3437 20.2411 17.0079 19.9336 16.7003C18.5781 15.2881 17.1841 13.8374 15.8003 12.4535C15.5312 12.1845 14.4548 11.1081 14.1145 11.4485C13.5838 11.8254 13.0632 12.2691 12.4172 12.5307C12.2936 12.5774 12.1619 12.786 12.1537 12.948C12.0339 13.4522 11.6835 13.7257 11.2946 13.9608C10.9441 14.2344 10.9662 14.5968 11.3222 15.0095C11.6682 15.3555 12.0142 15.7015 12.3601 16.0474C15.5507 19.238 18.7413 22.4286 21.9319 25.6192C22.5469 26.2343 23.1437 26.9445 23.8439 27.4744C24.6492 28.0529 25.1326 28.8766 25.8529 29.5402C27.6211 31.3085 29.4279 33.1152 31.1961 34.8835ZM16.4251 16.5954C16.3583 16.5853 16.3198 16.5469 16.3198 16.5469C16.2997 16.4133 16.2795 16.2797 16.3262 16.1561L16.4314 16.2046C16.4131 16.2998 16.4616 16.4051 16.4717 16.4719C16.4818 16.5387 16.4534 16.567 16.4251 16.5954ZM17.4813 17.5381C17.6332 17.4631 17.775 17.3213 17.9269 17.2463C17.9552 17.2179 18.1273 17.2765 18.1657 17.315C18.2142 17.4202 18.2728 17.5922 18.2445 17.6206C18.0926 17.6956 17.9508 17.8374 17.7888 17.8456C17.6653 17.8923 17.5134 17.9673 17.4163 17.7568C17.3779 17.7184 17.4245 17.5948 17.4813 17.5381ZM18.9741 19.4281C18.879 19.4463 18.7939 19.5314 18.717 19.4546C18.5065 19.3575 18.3811 19.1754 18.446 18.9567C18.5028 18.9 18.6931 18.8634 18.77 18.9403C19.0189 19.0758 19.0491 19.2762 18.9741 19.4281ZM19.419 20.2133L19.3138 20.1648L19.2753 20.1263L19.419 20.2133ZM21.2007 20.123C21.3645 20.3436 21.3279 20.5339 21.1477 20.6373C21.091 20.694 20.9574 20.6739 20.8906 20.6638C20.8137 20.5869 20.7652 20.4817 20.745 20.348C20.7148 20.1476 20.8282 20.0342 21.057 20.0361C21.1238 20.0461 21.1906 20.0562 21.2007 20.123ZM20.5155 21.4232C20.5539 21.4617 20.5924 21.5001 20.6025 21.5669C20.4688 21.5468 20.3737 21.5651 20.2016 21.5065C20.2016 21.5065 20.1531 21.4012 20.1046 21.296C20.1714 21.306 20.1998 21.2777 20.2666 21.2878C20.3334 21.2978 20.4103 21.3747 20.5155 21.4232ZM22.6084 22.098L22.5902 22.1932L22.6084 22.098ZM23.0597 22.4925C23.0597 22.4925 22.9929 22.4824 22.9544 22.444C22.8775 22.3671 22.7622 22.2518 22.6469 22.1365C22.8189 22.1951 22.9242 22.2436 23.0294 22.2921C23.0962 22.3022 23.0496 22.4257 23.0597 22.4925ZM22.1117 23.1329C22.0934 23.2281 22.1035 23.2949 22.0468 23.3516C22.0084 23.3132 21.9699 23.2747 21.9699 23.2747C21.9598 23.2079 21.9781 23.1128 22.0348 23.056L22.1117 23.1329ZM24.0774 23.3968C24.0875 23.4636 24.0875 23.4636 24.0976 23.5304C24.0308 23.5203 23.9255 23.4718 23.8587 23.4618C23.8203 23.4233 23.877 23.3666 23.8385 23.3281C23.9438 23.3767 24.0106 23.3867 24.0774 23.3968ZM25.5538 25.6107C25.5438 25.5439 25.5438 25.5439 25.5337 25.4771C25.5621 25.4487 25.5904 25.4204 25.6572 25.4304C25.7139 25.3737 25.7807 25.3838 25.8759 25.3655C25.8192 25.4222 25.8009 25.5174 25.7725 25.5458C25.7158 25.6025 25.649 25.5924 25.5538 25.6107ZM25.8759 25.3655L25.7707 25.317L25.8759 25.3655ZM26.7071 26.7639C26.6119 26.7822 26.5268 26.8673 26.373 26.7135C26.4014 26.6852 26.4581 26.6284 26.4581 26.6284C26.5634 26.677 26.6018 26.7154 26.7071 26.7639ZM26.7739 26.774C27.0575 26.4904 27.1911 26.5105 27.6587 26.5811L27.7073 26.6863C27.6808 26.9435 27.4721 27.0752 27.1665 26.9964C27.0329 26.9763 26.9176 26.861 26.7739 26.774ZM27.4266 28.5046C27.2546 28.446 27.0825 28.3874 26.9105 28.3288C26.8721 28.2903 26.8135 28.1183 26.8702 28.0616C27.012 27.9197 27.346 27.9701 27.4815 28.2191C27.5199 28.2575 27.4733 28.381 27.4266 28.5046ZM29.0285 30.9006C28.9132 30.7852 28.7594 30.6315 28.7777 30.5363C28.8307 30.022 28.9605 29.5846 29.0419 29.042C28.868 28.7546 28.694 28.4673 28.8157 28.1918C28.834 28.0967 28.9191 28.0116 28.9859 28.0217C29.0527 28.0317 29.2348 28.1571 29.2449 28.2239C29.3236 28.5296 29.4024 28.8353 29.4811 29.1409C29.5681 29.2846 29.7319 29.5052 29.7036 29.5335C29.5353 29.9325 29.6525 30.2766 29.9802 30.7177C30.1824 30.9767 30.0973 31.0618 29.7633 31.0114C29.5629 30.9812 29.2957 30.9409 29.0285 30.9006L29.0669 30.939L29.0285 30.9006ZM31.1699 31.6806C31.1882 31.5854 31.2065 31.4903 31.2248 31.3951L31.1397 31.4802L31.158 31.385C31.32 31.3768 31.4435 31.3302 31.567 31.2835L31.1699 31.6806ZM31.6238 31.2268L31.5853 31.1884L31.6238 31.2268ZM31.7566 32.324L31.18 31.7474L31.7566 32.324ZM32.9811 32.8678C33.0196 32.9062 33.0297 32.9731 33.0297 32.9731C32.9546 33.1249 32.8796 33.2768 32.7662 33.3903C32.6811 33.4754 32.24 33.1477 32.1429 32.9372C32.1045 32.8988 32.1328 32.8704 32.1612 32.842C32.2929 32.6334 32.7221 32.6655 32.9811 32.8678ZM34.5905 36.1789L34.552 36.1405C34.3781 35.8531 34.2042 35.5657 34.0971 35.2884C34.0485 35.1832 34.2004 35.1082 34.2855 35.0231C34.3624 35.1 34.4393 35.1769 34.5162 35.2537C34.6617 35.5695 34.6737 35.865 34.5136 36.102L34.5905 36.1789ZM36.2531 35.5158C36.2814 35.4874 36.2714 35.4206 36.3382 35.4307C36.4718 35.4508 36.5203 35.5561 36.4352 35.6412C36.4352 35.6412 36.34 35.6594 36.3016 35.621C36.3016 35.621 36.2632 35.5826 36.2531 35.5158ZM37.0193 37.1329L37.076 37.0761L37.1529 37.153L37.0193 37.1329Z" fill="white"/>
<path d="M35.8014 21.2167C36.7624 20.2556 37.6509 19.299 38.6076 18.4105C39.6411 17.4451 40.4659 16.3479 41.5291 15.489C41.6444 15.3737 41.7641 15.1859 41.8794 15.0705C42.3539 14.3918 42.3167 13.8164 41.8106 13.2334C41.0958 12.5187 40.3811 11.8039 39.6663 11.0892C39.0537 10.4765 38.8407 10.4173 37.8676 10.9819C37.6414 11.14 37.3811 11.2642 37.1505 11.4948C35.9884 12.793 34.5882 13.8529 33.6303 15.3553C33.4678 15.654 33.0537 15.9319 32.7166 16.1329C31.8116 16.7656 31.0428 17.5344 30.4826 18.435C29.8455 19.4124 29.0383 20.2197 28.0949 20.8908C27.1515 21.5619 26.3442 22.3692 25.5029 23.1424C23.7731 24.8722 22.0432 26.6021 20.275 28.3703C19.8521 28.7932 19.4973 29.2841 19.215 29.7706C18.8602 30.2615 18.4714 30.7184 17.9465 31.0392C17.5753 31.2061 17.2337 31.4796 16.9262 31.7872C15.5083 33.137 14.0519 34.5253 12.6681 35.9091C12.399 36.1782 11.3226 37.2546 11.7311 37.663C12.1988 38.2845 12.7389 38.9015 13.0913 39.6383C13.155 39.7788 13.3976 39.9446 13.5766 39.9698C14.1432 40.152 14.4791 40.5648 14.7767 41.0161C15.1126 41.4289 15.509 41.441 15.9275 41.0906C16.2734 40.7446 16.6194 40.3986 16.9654 40.0527C20.156 36.8621 23.3465 33.6715 26.5371 30.4809C27.1522 29.8659 27.8738 29.2804 28.3867 28.5633C28.9425 27.7352 29.8002 27.2859 30.4581 26.5599C32.2264 24.7917 34.0331 22.9849 35.8014 21.2167ZM17.1616 35.636C17.1572 35.7085 17.1188 35.7469 17.1188 35.7469C16.9738 35.7557 16.8289 35.7646 16.6883 35.7009L16.7312 35.59C16.8377 35.6196 16.9486 35.5768 17.0211 35.5724C17.0935 35.5679 17.1276 35.602 17.1616 35.636ZM18.093 34.5685C17.9953 34.3939 17.8251 34.2237 17.7274 34.0491C17.6934 34.0151 17.7406 33.8317 17.7791 33.7933C17.89 33.7504 18.0734 33.7032 18.1074 33.7372C18.2051 33.9118 18.3753 34.082 18.4005 34.261C18.4642 34.4015 18.5619 34.5761 18.3401 34.6618C18.3016 34.7002 18.1611 34.6366 18.093 34.5685ZM20.0226 33.1153C20.0523 33.2219 20.1544 33.324 20.0775 33.4008C19.9918 33.6227 19.804 33.7424 19.557 33.6491C19.4889 33.581 19.4296 33.368 19.5065 33.2911C19.6306 33.0309 19.8481 33.0176 20.0226 33.1153ZM20.8419 32.7045L20.7991 32.8154L20.7606 32.8539L20.8419 32.7045ZM20.5644 30.7356C20.7907 30.5775 21.0037 30.6367 21.1354 30.8453C21.2035 30.9134 21.1947 31.0584 21.1903 31.1308C21.1134 31.2077 21.0025 31.2506 20.8575 31.2594C20.6401 31.2726 20.504 31.1364 20.4832 30.885C20.4876 30.8125 20.492 30.74 20.5644 30.7356ZM22.0632 31.6193C22.1017 31.5809 22.1401 31.5425 22.2126 31.5381C22.2038 31.683 22.2334 31.7895 22.1861 31.9729C22.1861 31.9729 22.0752 32.0158 21.9643 32.0586C21.9687 31.9861 21.9347 31.9521 21.9391 31.8796C21.9435 31.8071 22.0204 31.7303 22.0632 31.6193ZM22.5962 29.3846L22.7027 29.4142L22.5962 29.3846ZM22.985 28.9277C22.985 28.9277 22.9806 29.0002 22.9422 29.0386C22.8653 29.1155 22.75 29.2308 22.6346 29.3461C22.6819 29.1628 22.7247 29.0518 22.7676 28.9409C22.772 28.8684 22.9125 28.9321 22.985 28.9277ZM23.7842 30.0345C23.8908 30.0641 23.9632 30.0597 24.0313 30.1278C23.9929 30.1662 23.9544 30.2046 23.9544 30.2046C23.8819 30.209 23.7754 30.1794 23.7074 30.1113L23.7842 30.0345ZM23.878 27.8986C23.9504 27.8942 23.9504 27.8942 24.0229 27.8898C24.0185 27.9623 23.9757 28.0732 23.9713 28.1457C23.9328 28.1841 23.8647 28.116 23.8263 28.1545C23.8691 28.0436 23.8736 27.9711 23.878 27.8986ZM26.1656 26.4959C26.0931 26.5003 26.0931 26.5003 26.0206 26.5047C25.9866 26.4707 25.9526 26.4367 25.957 26.3642C25.8889 26.2961 25.8933 26.2236 25.8637 26.1171C25.9317 26.1852 26.0382 26.2148 26.0723 26.2489C26.1404 26.3169 26.1359 26.3894 26.1656 26.4959ZM25.8637 26.1171L25.8208 26.228L25.8637 26.1171ZM27.3188 25.3427C27.3484 25.4492 27.4505 25.5513 27.2968 25.7051C27.2627 25.671 27.1947 25.603 27.1947 25.603C27.2375 25.492 27.276 25.4536 27.3188 25.3427ZM27.3232 25.2702C26.9829 24.9299 26.9917 24.7849 27.0225 24.2776L27.1334 24.2347C27.4189 24.2896 27.5847 24.5322 27.5286 24.8606C27.5198 25.0055 27.4045 25.1208 27.3232 25.2702ZM29.1616 24.7252C29.1143 24.9086 29.067 25.092 29.0198 25.2754C28.9814 25.3138 28.798 25.3611 28.7299 25.293C28.5597 25.1228 28.5817 24.7605 28.842 24.6363C28.8805 24.5979 29.021 24.6616 29.1616 24.7252ZM31.637 23.2028C31.5217 23.3181 31.3679 23.4719 31.2614 23.4422C30.6904 23.3325 30.1963 23.1459 29.5912 23.0022C29.2925 23.1648 28.9938 23.3273 28.6787 23.166C28.5721 23.1363 28.47 23.0342 28.4744 22.9618C28.4788 22.8893 28.5986 22.7015 28.6711 22.6971C28.9994 22.641 29.3277 22.585 29.6561 22.5289C29.8054 22.4476 30.0317 22.2894 30.0657 22.3235C30.5214 22.5485 30.8882 22.454 31.3407 22.1377C31.6054 21.9411 31.7075 22.0432 31.6854 22.4056C31.6722 22.623 31.6546 22.9129 31.637 23.2028L31.6754 23.1644L31.637 23.2028ZM32.2809 20.9252C32.1744 20.8956 32.0678 20.8659 31.9613 20.8363L32.0634 20.9384L31.9569 20.9088C31.9317 20.7298 31.868 20.5892 31.8044 20.4487L32.2809 20.9252ZM31.7363 20.3806L31.6979 20.4191L31.7363 20.3806ZM32.93 20.3442L32.3533 20.9208L32.93 20.3442ZM33.4057 19.0516C33.4441 19.0132 33.5166 19.0088 33.5166 19.0088C33.6912 19.1065 33.8658 19.2042 34.0019 19.3403C34.104 19.4424 33.7877 19.8949 33.5658 19.9806C33.5274 20.019 33.4934 19.985 33.4593 19.9509C33.2167 19.7852 33.2091 19.3163 33.4057 19.0516ZM36.887 17.6125L36.8485 17.6509C36.5498 17.8135 36.2511 17.976 35.9568 18.0661C35.8459 18.109 35.7482 17.9344 35.646 17.8323C35.7229 17.7554 35.7998 17.6785 35.8767 17.6017C36.2094 17.4731 36.5334 17.4895 36.8101 17.6893L36.887 17.6125ZM35.9912 15.7173C35.9572 15.6832 35.8847 15.6876 35.8891 15.6152C35.8979 15.4702 36.0088 15.4274 36.111 15.5295C36.111 15.5295 36.1406 15.636 36.1021 15.6744C36.1021 15.6744 36.0637 15.7129 35.9912 15.7173ZM37.6934 15.0361L37.6254 14.9681L37.7022 14.8912L37.6934 15.0361Z" fill="white"/>
</svg>
