<svg width="139" height="37" viewBox="0 0 139 37" fill="none" xmlns="http://www.w3.org/2000/svg">
<path d="M5.593 9.432V3.181C5.593 2.899 5.593 2.57 5.593 2.241C5.593 1.489 5.452 1.348 4.7 1.301C3.619 1.301 2.538 1.301 1.41 1.301C0.329 1.301 0.235 1.442 0.047 2.57C0 2.993 0.047 3.51 0.094 3.98C0.141 4.779 0.188 5.625 0.188 6.471C0.188 10.466 0.188 14.461 0.235 18.456C0.235 19.396 0.282 20.336 0.329 21.276C0.423 22.357 0.517 23.438 0.517 24.519C0.564 27.433 0.517 30.347 0.517 33.261C0.517 33.684 0.517 34.107 0.517 34.53C0.564 34.812 0.752 35 1.034 35C1.645 35.047 2.256 35.047 2.914 35.047C3.666 35.047 4.465 35.047 5.217 35.047C5.64 35.047 5.922 34.812 6.016 34.389C6.063 33.966 6.11 33.543 6.11 33.167C6.063 32.415 5.969 31.71 5.969 30.958C5.875 29.454 6.11 27.997 7.003 26.681C7.473 26.023 7.849 25.365 8.272 24.707C8.413 24.425 8.648 24.425 8.836 24.754C9.212 25.412 9.588 26.117 9.964 26.775C10.481 27.762 10.951 28.749 11.515 29.689C12.314 30.911 13.019 32.18 13.63 33.496C13.724 33.778 13.912 34.013 14.1 34.295C14.429 34.812 14.805 35.094 15.51 35.047C16.779 35 18.095 35.047 19.411 35.047C19.646 35.047 19.928 35.047 20.163 35C20.351 35 20.539 34.718 20.492 34.577C20.445 34.295 20.445 34.06 20.351 33.825C20.069 33.261 19.787 32.697 19.552 32.133C19.223 31.24 18.753 30.441 18.236 29.642C17.954 29.172 17.625 28.702 17.343 28.185C15.745 25.647 14.429 22.921 12.69 20.43C11.891 19.255 11.844 18.221 12.596 16.999C14.053 14.602 15.416 12.111 16.826 9.714C16.967 9.432 17.108 9.15 17.296 8.915C18.612 7.176 19.411 5.108 20.68 3.322C21.009 2.899 21.197 2.429 21.244 1.865C21.244 1.63 21.103 1.348 20.821 1.348C19.129 1.348 17.484 1.348 15.839 1.348C15.463 1.348 15.275 1.583 15.134 1.865C14.711 2.664 14.335 3.463 13.912 4.215C11.421 8.539 8.883 12.863 5.969 16.905C5.969 16.905 5.875 16.952 5.828 16.952C5.781 16.905 5.64 16.858 5.64 16.764C5.593 16.623 5.593 16.435 5.593 16.294C5.593 13.991 5.593 11.735 5.593 9.432ZM3.29 15.166L3.384 15.213H3.29V15.166ZM3.666 18.127C3.619 18.033 3.572 17.986 3.525 17.892C3.431 17.798 3.055 17.798 3.384 17.516C3.901 17.093 3.854 17.046 4.277 17.234C4.7 17.375 5.17 17.422 5.264 18.033C5.264 18.221 5.593 18.315 5.781 18.456C5.452 18.55 5.123 18.55 4.794 18.409C4.418 18.268 4.042 18.221 3.666 18.127ZM8.93 17.187C8.977 17.187 8.977 17.187 8.977 17.234H8.93V17.187ZM5.875 18.456C6.016 18.268 6.157 18.127 6.439 18.174L6.768 17.751C6.815 17.751 6.815 17.751 6.862 17.751L7.003 17.657C6.956 17.704 6.956 17.751 6.862 17.751L6.439 18.174V18.456H5.875C5.828 18.456 5.828 18.456 5.781 18.456H5.875ZM8.46 18.033V17.939V18.033ZM3.102 19.819L3.055 19.772C2.867 19.866 2.726 19.913 2.585 19.96C2.491 19.96 2.444 19.866 2.35 19.772C2.444 19.725 2.491 19.631 2.538 19.631C2.726 19.678 2.867 19.725 3.055 19.772H3.102C3.008 19.443 2.914 19.161 2.82 18.832C2.726 18.409 2.726 18.409 3.243 18.268C3.384 18.221 3.478 18.174 3.619 18.174C3.619 18.174 3.666 18.221 3.666 18.268C3.478 18.973 3.713 19.537 3.995 20.148C4.042 20.336 4.183 20.336 4.324 20.289C4.465 20.195 4.653 20.195 4.794 20.195C4.841 20.148 4.982 20.148 4.982 20.148C5.17 19.396 5.781 19.067 6.439 18.738H6.486V18.456C6.815 18.456 7.144 18.315 7.473 18.597C7.473 18.644 7.473 18.644 7.473 18.644L7.426 18.738L7.473 18.597L6.486 18.738V18.785C6.486 18.973 6.533 19.114 6.58 19.302C6.627 19.49 6.815 19.678 6.768 19.819C6.533 20.336 6.721 20.759 6.768 21.276C6.533 21.276 6.298 21.37 6.016 21.37C5.922 21.37 5.781 21.276 5.64 21.229C5.546 21.135 5.405 20.947 5.311 20.947C5.076 20.947 5.076 21.182 5.076 21.417C5.076 21.652 4.888 21.746 4.7 21.84C4.324 22.075 3.901 22.31 3.478 22.498C3.243 22.639 3.055 22.545 3.055 22.169C3.102 21.84 2.914 21.887 2.726 21.887C2.585 21.605 2.491 21.323 2.397 21.041C2.35 20.994 2.444 20.9 2.444 20.806C2.538 20.806 2.632 20.853 2.679 20.9C2.773 20.994 2.914 21.182 3.055 21.041C3.337 20.712 3.478 20.336 3.337 19.913C3.29 19.866 3.196 19.819 3.102 19.772V19.819ZM6.439 18.456H6.486C6.439 18.456 6.439 18.456 6.439 18.456ZM4.747 20.101L4.418 19.396C4.465 19.396 4.512 19.349 4.559 19.396C4.841 19.537 4.7 19.866 4.747 20.101ZM7.191 20.524V20.43L7.332 20.477L7.191 20.524ZM8.319 20.665C8.366 20.712 8.366 20.712 8.366 20.759C8.366 20.759 8.413 20.759 8.46 20.759C8.413 20.759 8.366 20.712 8.366 20.618L8.319 20.665ZM2.679 23.767L2.115 23.485L2.256 23.532L2.397 22.874C2.397 22.874 2.397 22.827 2.35 22.827L2.397 22.733C2.068 22.545 2.021 22.357 2.256 22.169C2.35 22.075 2.491 21.981 2.679 21.934V21.84C2.726 21.887 2.726 21.887 2.726 21.887L2.679 21.934L2.397 22.733C2.397 22.78 2.397 22.78 2.444 22.78L2.397 22.874C2.632 23.109 2.679 23.438 2.679 23.767H2.726C2.679 23.767 2.679 23.767 2.679 23.767ZM9.917 23.109C9.776 22.968 9.729 22.733 9.588 22.639C9.353 22.545 9.071 22.545 8.836 22.451C8.789 22.451 8.789 22.404 8.742 22.357C8.789 22.31 8.883 22.216 8.93 22.216C9.212 22.169 9.447 22.122 9.682 22.169C9.964 22.169 10.763 22.733 10.998 23.109C10.998 23.109 10.998 23.203 10.998 23.25V23.203L11.045 23.25C11.421 23.25 11.797 23.25 12.173 23.25C12.22 23.25 12.314 23.391 12.267 23.485C12.267 23.579 12.173 23.673 12.079 23.673C11.938 23.673 11.797 23.673 11.656 23.579C11.468 23.485 11.233 23.344 11.045 23.25H10.998L10.246 23.438C10.199 23.438 10.199 23.438 10.199 23.438C10.199 23.485 10.199 23.485 10.152 23.485C10.152 23.438 10.199 23.438 10.199 23.438L9.917 23.109ZM9.917 23.156L9.87 23.485H10.152C10.058 23.532 10.011 23.626 9.87 23.485C9.87 23.344 9.87 23.25 9.917 23.156ZM8.507 23.767H8.413L8.507 23.673V23.767ZM3.008 25.365C2.914 25.318 2.82 25.271 2.726 25.271L2.679 25.365L2.726 25.224V25.271L2.961 24.707V24.566H3.008C2.961 24.519 2.961 24.472 2.961 24.378C2.773 24.237 2.773 24.002 2.726 23.767C3.055 23.297 3.525 23.109 4.136 23.297C4.559 23.391 4.747 23.532 4.747 24.002C4.747 24.19 4.841 24.472 5.17 24.472C5.358 24.472 5.499 24.237 5.452 23.908C5.405 23.673 5.405 23.532 5.546 23.344C5.687 23.109 5.734 22.78 5.828 22.545V22.498C5.687 22.592 5.593 22.686 5.452 22.733C5.405 22.733 5.264 22.733 5.17 22.733C5.217 22.639 5.217 22.498 5.264 22.451C5.499 22.263 5.734 22.075 5.969 21.887C6.204 21.699 6.486 21.464 6.768 21.276C7.144 21.229 7.52 21.182 7.802 20.853C7.896 20.712 8.131 20.665 8.319 20.618C8.272 20.43 8.272 20.242 8.178 20.101C8.084 19.96 7.708 19.96 7.849 19.678C7.896 19.537 8.178 19.537 8.366 19.443C8.46 19.349 8.601 19.255 8.601 19.114C8.648 19.02 8.507 18.832 8.413 18.832C7.802 18.691 7.943 18.221 7.896 17.845C7.849 17.657 8.037 17.61 8.178 17.563C8.366 17.516 8.554 17.422 8.601 17.187V16.905C8.601 16.905 8.601 16.905 8.554 16.905L8.742 16.294H8.695L8.601 16.247L9.917 16.999L9.964 16.905L9.917 16.952C9.682 17.328 9.306 17.187 8.977 17.187C8.93 16.999 8.789 16.905 8.601 16.905C8.789 16.999 8.789 17.093 8.601 17.187C8.742 17.234 8.836 17.234 8.93 17.234C8.977 17.516 9.024 17.798 9.118 18.08C9.212 18.268 9.165 18.644 9.541 18.597C9.682 18.597 9.823 18.362 9.964 18.221C10.058 18.174 10.246 18.174 10.246 18.174C10.293 18.315 10.34 18.409 10.34 18.55L10.481 18.503L10.387 18.55C10.199 18.785 10.152 19.161 9.682 19.067C9.494 19.02 9.306 19.114 9.306 19.396C9.259 19.631 9.212 19.913 9.212 20.148C9.212 20.289 9.259 20.477 9.353 20.524C9.447 20.618 9.635 20.618 9.776 20.571C9.917 20.571 10.058 20.477 10.199 20.383C10.34 20.242 10.481 20.101 10.622 20.007V19.96H10.528H10.669L10.622 20.007C10.716 20.289 10.81 20.524 10.904 20.806C10.998 21.041 10.81 21.276 10.575 21.276C10.387 21.276 10.199 21.229 9.964 21.182C9.682 21.135 9.4 21.135 9.118 21.417C8.93 21.652 8.601 21.699 8.272 21.605C8.225 21.605 8.084 21.652 8.037 21.699C7.802 22.075 7.426 21.981 7.097 22.122C6.674 22.263 6.251 22.404 5.828 22.498V22.545C6.392 22.78 6.439 22.733 7.285 22.592C7.426 22.592 7.52 22.686 7.661 22.733V22.827C7.661 22.78 7.661 22.78 7.661 22.78V22.827C7.755 23.015 7.849 23.25 7.755 23.485C7.614 23.767 7.473 23.814 7.191 23.673C7.097 23.579 7.003 23.438 6.956 23.485C6.674 23.579 6.392 23.673 6.157 23.861C6.063 24.002 6.063 24.237 6.016 24.425L6.157 24.378L6.016 24.425L5.734 25.083L5.781 25.036H5.828L5.734 25.083C5.64 25.13 5.405 25.177 5.405 25.271C5.264 25.882 4.888 26.446 4.935 27.057C4.935 27.433 4.653 27.574 4.324 27.574C4.277 27.527 4.183 27.433 4.136 27.339C4.136 27.245 4.136 27.104 4.183 27.01C4.324 26.634 4.465 26.305 4.183 25.835C3.995 25.553 4.418 25.036 4.136 24.66L4.277 24.613H4.183C3.807 24.801 3.384 24.613 3.008 24.566V24.613L2.961 24.707V25.318L3.055 25.412L3.008 25.365ZM2.397 26.869C2.444 26.775 2.491 26.681 2.585 26.587C2.632 26.54 2.726 26.54 2.82 26.493C2.867 26.587 2.914 26.681 2.914 26.728C2.867 26.916 2.773 27.01 2.679 27.198L2.397 26.869ZM2.397 26.869V27.198H2.679C2.585 27.339 2.538 27.48 2.397 27.198C2.397 27.104 2.397 26.963 2.397 26.869ZM15.651 30.723C15.651 30.77 15.651 30.817 15.651 30.864C15.604 30.864 15.557 30.864 15.51 30.864C15.463 30.817 15.416 30.817 15.369 30.77C15.416 30.77 15.463 30.723 15.51 30.723C15.557 30.723 15.604 30.723 15.651 30.723ZM20.1057 18.268C20.1057 20.242 20.1057 22.263 20.1057 24.284C20.0587 25.694 20.2467 27.057 20.5757 28.42C21.3747 31.898 23.2077 33.308 25.9807 35.047C27.0147 35.658 28.0957 36.081 29.3647 35.893C29.7877 35.846 30.3047 35.94 30.7277 35.893C34.2527 35.517 38.2007 32.415 38.7647 28.749C38.9527 27.809 39.3287 26.916 39.3287 25.882C39.3287 21.135 39.3287 16.388 39.3287 11.641C39.2817 9.526 38.9057 7.552 37.7777 5.719C37.0727 4.591 36.3677 3.369 35.1927 2.664C33.5007 1.583 31.7147 0.689999 29.5997 0.830997C29.0357 0.877999 28.4247 0.783998 27.9077 0.924999C23.2077 2.382 20.2467 6.095 20.1057 11.124C20.0117 13.474 20.1057 15.871 20.1057 18.268ZM30.3047 2.899L30.3517 2.758L30.4457 2.852L30.3047 2.899ZM31.5267 4.356C31.5267 4.403 31.4797 4.497 31.4797 4.497C31.3387 4.497 30.9157 4.027 30.9157 3.886C30.9157 3.839 31.0097 3.792 31.0097 3.792C31.2917 3.745 31.5737 4.074 31.5267 4.356ZM32.7487 3.792C32.7017 3.792 32.6547 3.792 32.6077 3.792C32.6547 3.792 32.7017 3.792 32.7487 3.792ZM26.7797 4.544C26.7327 4.544 26.6857 4.497 26.6387 4.497C26.7327 4.45 26.7797 4.356 26.8737 4.356C26.9207 4.309 26.9677 4.356 27.0147 4.403C26.9207 4.45 26.8267 4.497 26.7797 4.544ZM29.6467 4.591L29.6937 4.685H29.5997L29.6467 4.591ZM34.2997 4.967H34.2057L34.2527 4.873L34.2997 4.967ZM34.3937 5.813C34.4407 6.001 34.4877 6.142 34.5347 6.236C34.4407 6.283 34.2997 6.377 34.1587 6.377C34.1587 6.377 34.0177 6.189 34.0647 6.142C34.1117 6.048 34.2527 5.954 34.3937 5.813ZM24.9937 19.443C25.0877 18.08 25.1817 16.764 25.2757 15.401C25.3227 14.414 25.3697 13.38 25.3697 12.346C25.4167 11.406 25.6047 10.513 25.8867 9.62C26.2627 8.116 27.9077 6.189 29.5997 6.189C30.6337 6.189 31.8087 6.988 32.3727 7.787C33.1717 8.727 33.7827 9.808 33.6417 11.171C33.5947 11.406 33.6417 11.688 33.7357 11.923C34.0647 12.675 33.9707 13.427 33.9707 14.179C33.9707 15.307 34.0647 16.341 34.2057 17.422C34.3467 18.409 34.2057 19.396 34.2057 20.383C34.1587 21.417 34.0177 22.404 34.0177 23.438C34.0177 25.929 33.2657 28.326 31.3857 30.018C30.6807 30.629 29.8347 30.77 28.9417 30.535C27.4377 30.112 25.8397 28.796 25.6987 27.151C25.6517 26.587 25.5577 26.023 25.4637 25.459C25.4167 24.989 25.4167 24.519 25.3697 24.049C25.0877 22.545 24.9937 20.994 24.9937 19.443ZM24.4297 6.518C24.3827 6.612 24.3827 6.706 24.3827 6.706C24.2887 6.706 24.1947 6.706 24.1477 6.659C24.0537 6.612 24.0067 6.518 23.9597 6.424C23.9597 6.377 24.0067 6.283 24.0537 6.236C24.1007 6.189 24.1947 6.189 24.1947 6.236C24.2887 6.33 24.3827 6.424 24.4297 6.518ZM25.7927 6.283L25.6987 6.236L25.7927 6.283ZM33.4537 6.753L33.4067 6.847L33.3597 6.8L33.4537 6.753ZM23.7717 7.74C23.8657 7.787 23.9597 7.787 23.9597 7.834C23.9127 7.928 23.9127 8.022 23.8657 8.069C23.8187 8.163 23.7717 8.257 23.7247 8.351C23.7247 8.304 23.6307 8.21 23.6307 8.116C23.6307 8.022 23.7247 7.881 23.7717 7.74ZM35.0987 8.68C35.0987 8.68 35.0987 8.727 35.0517 8.774C35.0047 8.727 34.9577 8.68 34.8637 8.633L35.0987 8.68ZM21.9857 9.338C22.1737 9.197 22.3147 9.056 22.5027 8.915C22.5497 8.915 22.6437 8.915 22.6437 8.915C22.6437 9.009 22.6437 9.15 22.6437 9.197C22.4087 9.244 22.2207 9.291 21.9857 9.338ZM35.6627 10.278C35.6627 10.184 35.7567 10.09 35.7567 9.996C35.8507 9.573 35.9447 9.526 36.2737 9.855C36.3207 9.855 36.3207 9.902 36.3677 9.949C36.1327 10.043 35.8977 10.184 35.6627 10.278ZM24.1947 9.949V9.855L24.2887 9.902L24.1947 9.949ZM21.8447 9.902C21.8447 9.902 21.8447 9.902 21.8447 9.855H21.9387L21.8447 9.902ZM37.0727 9.949C37.0257 9.949 37.0257 9.902 37.0257 9.902H37.0727V9.949ZM35.6627 10.278C35.8037 10.325 35.9917 10.372 36.1797 10.466L36.2267 10.56C36.1327 10.607 35.9917 10.701 35.9917 10.701C35.8507 10.56 35.7567 10.419 35.6627 10.278ZM22.6437 12.017C22.5967 12.017 22.5497 11.97 22.5027 11.97C22.2677 11.923 21.9387 11.97 22.0327 11.594C22.1267 11.171 21.7507 10.607 22.4557 10.466C22.6437 10.419 22.8787 10.372 23.0667 10.372C23.1137 10.325 23.3017 10.466 23.2547 10.513C23.2547 10.983 23.2077 11.406 23.1607 11.876C23.1607 12.111 23.0667 12.158 22.6437 12.017V11.97C22.6907 11.923 22.7847 11.876 22.8317 11.876C22.7847 11.829 22.7377 11.782 22.6437 11.782C22.6437 11.829 22.6437 11.923 22.5967 11.97L22.6437 12.017ZM36.1797 11.218C36.0387 11.312 35.9447 11.406 35.8507 11.5C35.8507 11.5 35.6627 11.406 35.7097 11.359C35.7097 11.265 35.7567 11.171 35.8507 11.124C35.8977 11.124 36.0387 11.171 36.1797 11.218ZM22.1267 13.239V13.145L22.1737 13.239C22.1267 13.239 22.0797 13.239 22.0327 13.239C22.0327 13.239 22.0797 13.239 22.1267 13.239ZM22.1737 18.268C22.1267 18.127 22.1267 18.033 22.1737 17.892C22.1737 17.845 22.1737 17.798 22.2207 17.798C22.2677 17.845 22.3147 17.892 22.3147 17.939C22.2677 18.033 22.2207 18.174 22.1737 18.268ZM36.6497 18.409C36.6027 18.315 36.5087 18.221 36.5087 18.08C36.4617 18.033 36.6027 17.939 36.6497 17.892C36.6967 17.939 36.8377 18.033 36.8377 18.08C36.7907 18.221 36.6967 18.315 36.6497 18.409ZM22.1737 18.315L22.2677 18.268C22.2207 18.268 22.1737 18.315 22.1737 18.315ZM22.9727 21.135L22.9257 21.088L22.9727 21.135ZM36.3207 21.558H36.4147H36.3207ZM22.5027 22.968C22.4557 22.968 22.4087 22.968 22.4087 22.921C22.4557 22.921 22.5027 22.968 22.5497 22.968C22.7377 22.592 22.7847 22.592 22.9727 22.874C23.0197 22.874 23.0197 22.921 23.0197 22.968C22.9727 23.015 22.8787 23.062 22.7847 23.062C22.6907 23.062 22.5967 23.015 22.5027 22.968ZM36.6497 24.143L36.7437 24.284C36.6967 24.237 36.6967 24.19 36.6497 24.143ZM36.6967 24.284C36.6497 24.378 36.6027 24.472 36.5087 24.472C36.3207 24.472 36.3677 24.331 36.3677 24.19L36.6967 24.284ZM22.5497 26.117L22.5967 26.023C22.5967 26.023 22.6437 26.023 22.6907 26.07C22.6907 26.07 22.6437 26.117 22.6437 26.164C22.6437 26.164 22.5967 26.117 22.5497 26.117ZM36.9317 26.211C36.9787 26.258 37.0727 26.305 37.1197 26.399C37.1667 26.54 37.1667 26.634 37.1667 26.775C37.0727 26.775 36.9317 26.822 36.8377 26.775C36.7437 26.775 36.6497 26.681 36.6027 26.587C36.6967 26.446 36.8377 26.352 36.9317 26.258C36.7907 26.258 36.6967 26.258 36.5557 26.211H36.9317ZM36.5557 26.258L36.6027 26.587C36.5557 26.493 36.5557 26.352 36.5557 26.258ZM23.7247 27.48C23.3487 27.339 23.2077 27.151 23.3957 26.916C23.4897 26.775 23.6777 26.681 23.8187 26.587L23.7247 27.48ZM35.3807 26.728L35.3337 26.681V26.634L35.3807 26.728ZM35.4747 27.997C35.4747 27.903 35.3807 27.809 35.3807 27.809C35.5217 27.668 35.6627 27.527 35.8037 27.433C35.8037 27.386 35.9917 27.527 35.9917 27.574C35.9917 27.856 35.8037 27.997 35.4747 27.997ZM22.6907 27.903C22.8787 28.044 23.1137 28.185 23.2547 28.373C23.3487 28.467 23.7247 28.42 23.5367 28.702C23.4897 28.749 23.2547 28.702 23.1137 28.655C22.6907 28.561 22.6907 28.514 22.6907 27.903ZM35.3337 28.655C35.3807 28.796 35.4747 28.89 35.5217 28.984C35.4277 29.031 35.3337 29.078 35.2867 29.078C35.1457 29.031 35.0517 28.937 34.9107 28.89C35.0517 28.796 35.1457 28.749 35.3337 28.655ZM24.8527 30.018L24.9467 30.065L24.8527 30.112V30.018ZM33.8297 30.206C33.8767 30.3 33.9237 30.394 33.9707 30.488C33.9237 30.535 33.8297 30.629 33.7827 30.582C33.6887 30.582 33.5947 30.488 33.5947 30.394C33.5947 30.347 33.6887 30.3 33.8297 30.206ZM24.7117 31.287C24.7117 31.287 24.7117 31.24 24.7587 31.193C24.7117 31.24 24.7117 31.287 24.7117 31.287ZM24.7117 31.428L24.8057 31.475L24.7117 31.428ZM32.0437 32.744C32.1377 32.791 32.1847 32.791 32.2317 32.791C32.2787 32.697 32.3257 32.65 32.3727 32.556C32.5607 31.945 32.5607 31.898 33.1717 32.18V32.133L33.2187 32.18H33.1717C33.1717 32.227 33.2187 32.321 33.2187 32.415C33.0777 33.261 32.0437 33.825 31.2917 33.543C30.9627 33.402 30.9157 33.214 31.1507 32.697L31.0567 32.744L31.1507 32.65V32.697C31.4797 33.261 31.6207 33.261 32.0907 32.791L31.9967 32.697L32.0437 32.744ZM28.6597 32.18V32.086L28.7067 32.18H28.6597ZM26.8267 32.462C26.8267 32.509 26.8267 32.603 26.8267 32.603C26.6387 32.65 26.4507 32.744 26.2627 32.791C26.2157 32.791 26.1217 32.65 26.1217 32.556C26.1687 32.321 26.3567 32.274 26.5917 32.321C26.6857 32.321 26.7327 32.415 26.8267 32.462ZM32.2317 32.744V32.791H32.2787L32.2317 32.744ZM28.0017 33.919C27.9547 33.919 27.9077 33.919 27.8607 33.919C27.8607 33.872 27.8607 33.825 27.8607 33.778C27.9077 33.778 27.9547 33.778 28.0017 33.778C28.0017 33.825 28.0017 33.872 28.0017 33.919ZM61.5109 2.241C61.4169 1.724 61.1819 1.489 60.6649 1.489C59.3489 1.489 57.9859 1.489 56.6229 1.489C55.9649 1.489 55.6829 1.771 55.6359 2.429C55.5889 2.993 55.5889 3.557 55.5889 4.168L55.6829 18.503C55.6829 18.691 55.6359 19.443 55.4949 19.537C55.0719 19.443 54.8369 18.691 54.7429 18.315C54.5079 17.328 54.0849 16.435 53.6149 15.589C53.3799 15.166 53.2389 14.743 53.0509 14.273C52.7689 13.662 52.5339 13.051 52.2519 12.44C51.4059 10.701 50.5599 9.009 49.9019 7.176C49.8079 6.988 49.7609 6.753 49.6199 6.612C49.0559 5.86 47.8339 2.664 47.4109 1.63C46.5179 1.301 45.5779 1.536 44.6379 1.489C43.8859 1.442 43.0869 1.489 42.2879 1.536C42.0059 1.536 41.8179 1.724 41.7709 2.006C41.6769 2.476 41.6299 2.993 41.6299 3.51C41.6769 4.215 41.7239 4.826 41.5829 5.531C41.3949 6.283 41.3949 7.082 41.4889 7.834C41.7239 9.291 41.9119 10.701 41.5829 12.158C41.5829 12.299 41.6299 12.487 41.6299 12.628C41.6769 13.145 41.7239 13.662 41.7239 14.179C41.7709 16.2 41.7709 18.221 41.7239 20.242C41.7239 20.9 41.5829 21.605 41.4889 22.263C41.4889 22.686 41.3479 23.109 41.4419 23.485C41.8179 25.318 41.7239 27.198 41.7239 29.078C41.7239 30.676 41.7239 32.321 41.7239 33.919C41.7239 34.765 41.8179 34.812 42.5699 34.859C42.9929 34.906 43.4159 34.953 43.7919 35.094C44.1209 35.188 44.5439 35.282 44.8729 35.141C45.4839 34.906 46.0949 34.906 46.7059 34.859C46.9409 34.812 47.0819 34.671 47.0819 34.436C47.1289 33.966 47.1289 33.496 47.1289 33.026C47.1759 29.454 46.9879 25.882 47.4109 22.31C47.5519 21.135 47.6459 19.913 47.2229 18.738C47.1289 18.503 47.1759 18.221 47.1759 17.986C47.2229 17.798 47.2699 17.704 47.2699 17.61C47.3639 17.422 47.5049 17.093 47.7399 17.14C47.8339 17.14 47.8809 17.187 47.9279 17.234C47.9749 17.281 48.0219 17.375 48.0689 17.469C48.2569 17.939 48.4449 18.315 48.7269 18.738C49.0089 19.161 49.2439 19.631 49.3849 20.101C50.1369 22.122 50.9829 24.049 51.8759 25.976C52.4869 27.386 53.0979 28.749 53.7089 30.112C54.0379 30.864 54.3669 31.616 54.6959 32.368C55.0249 33.12 55.3069 33.825 55.6359 34.53C55.7769 34.953 56.1059 35.188 56.5759 35.188C56.9519 35.188 57.2809 35.094 57.6569 35.047C57.7979 35.047 57.9859 34.953 58.0799 35C59.0199 35.47 60.0539 34.953 60.9939 35.188C61.2759 35.235 61.4169 35.047 61.4639 34.671C61.4639 34.389 61.4639 34.06 61.4639 33.778C61.4639 26.587 61.4639 19.396 61.4639 12.205C61.4639 9.432 61.3699 6.612 61.6049 3.792C61.6519 3.275 61.5579 2.758 61.5109 2.241ZM49.3379 16.764C48.8679 16.576 48.3979 16.341 47.8809 16.435C47.8809 16.482 47.8809 16.529 47.9279 16.576C48.1159 16.717 48.2569 16.811 48.3979 16.999C48.4449 17.093 48.3979 17.187 48.3039 17.234C48.2569 17.281 48.1629 17.234 48.1159 17.14C47.8339 16.952 47.7869 16.952 47.7399 16.952H47.6459C47.5049 16.999 47.5049 16.999 47.4109 17.046H47.3639C47.3169 17.093 47.2229 17.14 47.1759 17.046C47.1289 16.999 47.0819 16.905 47.1289 16.858C47.1759 16.764 47.2699 16.67 47.3169 16.623C47.3169 16.576 47.3169 16.529 47.3169 16.529C47.3639 16.482 47.3639 16.482 47.4109 16.482C47.3639 16.623 47.3639 16.764 47.3639 16.905C47.5049 16.811 47.6929 16.764 47.8809 16.811C47.8339 16.717 47.7869 16.576 47.7399 16.435C47.7869 16.435 47.8339 16.435 47.8809 16.341C48.8679 15.777 48.8679 15.73 48.6799 14.602C48.1629 14.602 47.7399 14.696 47.4579 15.26C47.2699 15.119 47.0819 15.025 46.8939 14.931C46.5649 14.79 46.6119 14.602 46.7059 14.32C46.7529 14.273 46.7059 14.132 46.6589 14.085C46.6119 14.038 46.4709 13.991 46.3769 14.038C46.2829 14.132 46.1889 14.273 46.1889 14.414C46.1889 14.884 46.4239 15.26 46.7999 15.542C47.0349 15.542 47.2229 15.542 47.5049 15.495L47.4579 16.388C47.4109 16.388 47.4109 16.435 47.3169 16.529C46.9879 16.576 46.6589 16.482 46.3769 16.247C46.4239 16.059 46.4709 15.965 46.5179 15.824C46.1889 15.824 46.0479 16.153 45.8599 16.341C45.8129 16.388 45.6719 16.388 45.6249 16.388C45.5779 16.2 45.5309 16.012 45.5309 15.824C45.3899 15.589 45.2019 15.354 45.1079 15.119C44.9669 14.884 44.7789 14.743 44.4969 14.79C44.0739 14.884 44.0269 14.602 44.0269 14.273L44.3089 13.991C44.5909 14.132 44.8729 14.226 45.2019 14.085C45.2489 14.085 45.2959 13.897 45.2959 13.85C45.2019 13.756 45.0609 13.615 44.9199 13.615C44.5909 13.521 44.5909 13.286 44.6379 13.004C44.8259 12.957 44.9669 12.863 45.1549 12.769C45.4839 12.534 45.5309 12.346 45.3429 12.064C45.2019 11.829 45.1079 11.641 44.9669 11.453C45.2959 11.312 45.3899 11.171 45.2489 10.983C44.9669 10.466 44.6379 10.043 43.9329 10.325C43.8389 10.372 43.6509 10.278 43.5099 10.231C43.3219 10.137 43.1809 9.949 43.3219 9.761C43.4629 9.479 43.6039 9.244 43.3689 8.962C43.2279 8.445 43.5569 8.257 43.9329 8.069C43.9329 7.74 43.7919 7.505 43.5099 7.317C43.4159 7.27 43.3689 7.129 43.3219 7.082C43.4159 7.035 43.5099 7.035 43.6039 7.035C43.7449 6.988 43.9799 6.941 44.0269 6.847C44.1209 6.612 44.1679 6.283 44.3089 6.001C44.4969 5.531 45.0609 5.343 45.4369 5.625C45.8129 5.907 46.1889 6.142 46.4239 6.612C46.5179 6.894 46.9409 7.082 47.2229 7.317C47.5049 7.552 47.5519 7.74 47.3169 8.116C47.2699 8.257 47.1289 8.351 47.0349 8.492V8.445C47.0349 8.304 47.0819 8.163 47.0349 8.022C47.0349 7.975 46.9409 7.928 46.8939 7.881C46.8939 7.928 46.8939 7.975 46.8939 8.022C46.9409 8.163 46.9879 8.304 47.0349 8.445C46.6589 9.009 46.2829 9.526 45.9069 10.09C45.7189 10.372 45.7189 10.654 45.8599 10.983C46.0009 11.312 46.2359 11.218 46.4709 11.124C46.5179 10.983 46.5649 10.842 46.6589 10.795C47.0819 10.56 47.5519 10.419 48.0219 10.231C48.2099 10.137 48.2569 9.949 48.2569 9.714V9.056C48.1159 8.868 47.9279 8.68 48.0689 8.398C48.1159 8.351 48.2569 8.257 48.3509 8.304C48.3979 8.304 48.4449 8.445 48.4919 8.539C48.7739 8.868 48.7739 8.868 48.2569 9.056V9.761C48.3039 9.714 48.3509 9.667 48.3979 9.667C49.0559 9.573 49.1499 9.714 48.9149 10.419V10.372C49.1499 10.654 49.2909 11.03 49.3379 11.406C48.6799 11.265 48.1159 11.547 47.5519 11.829C47.8339 11.688 48.0689 11.547 48.1159 11.218C48.1159 11.171 48.0689 11.03 48.0219 10.983C47.9749 10.936 47.8339 10.983 47.7399 11.03C47.5049 11.265 47.5519 11.547 47.5519 11.829C47.6459 12.064 47.6459 12.252 47.7869 12.44C47.9279 12.722 48.0689 12.769 48.4919 12.581C48.7269 12.534 48.9149 12.487 49.0559 12.628C49.2439 12.816 49.4319 12.957 49.5729 13.192C49.6199 13.286 49.6199 13.521 49.5259 13.615C49.3849 13.756 49.1969 13.803 49.0089 13.944C48.8209 14.085 48.7269 14.32 48.7269 14.555C48.8679 14.649 49.0559 14.743 49.1969 14.884C49.4319 15.072 49.6199 15.307 49.6199 15.683C49.6199 15.965 49.6199 16.247 49.6669 16.576C49.6669 16.764 49.4789 16.858 49.3379 16.764ZM45.8599 8.445C45.8599 8.539 45.8129 8.633 45.8599 8.68C45.8599 8.774 45.9539 8.774 46.0479 8.821C46.0479 8.727 46.0949 8.633 46.0949 8.586C46.0949 8.539 45.9539 8.492 45.8599 8.445ZM43.3689 8.962C43.3689 8.962 43.4159 8.962 43.4159 9.009V8.915L43.3689 8.962ZM47.5519 9.197C47.5989 9.244 47.5519 9.291 47.5519 9.338C47.5049 9.432 47.4109 9.526 47.3639 9.62C47.3639 9.526 47.3639 9.385 47.3639 9.291C47.3639 9.244 47.4579 9.197 47.5049 9.103C47.5049 9.15 47.5519 9.15 47.5519 9.197ZM46.5179 11.171C46.7529 11.735 46.7059 11.735 46.1889 11.876C45.8129 12.017 45.8129 12.017 46.0479 12.487C46.2359 12.487 46.4239 12.44 46.6589 12.44C46.9409 12.393 47.1289 12.205 47.1289 11.923C47.1759 11.641 47.1289 11.312 46.7059 11.218C46.6589 11.218 46.5649 11.171 46.5179 11.171ZM44.0269 13.944V13.709C43.8859 13.474 43.7449 13.427 43.7449 13.286C43.6979 13.145 43.7449 12.957 43.8389 12.91C44.2619 12.628 44.4029 12.205 44.3559 11.735C44.3089 11.641 44.3559 11.5 44.3559 11.453C44.4029 11.359 44.5439 11.218 44.5909 11.265C44.6849 11.265 44.7789 11.359 44.9199 11.453C44.6849 11.641 44.5909 11.876 44.5909 12.158C44.5909 12.44 44.5909 12.722 44.5909 13.004C44.3089 13.098 44.1209 13.333 44.0269 13.615V13.709L44.2619 13.944H44.0269ZM44.9669 11.406C44.9199 11.453 44.9199 11.453 44.9199 11.453L44.9669 11.406ZM49.8079 12.252C49.8079 12.299 49.6669 12.393 49.5729 12.393C49.5259 12.393 49.3379 12.346 49.3379 12.299C49.3379 12.017 49.3379 11.735 49.3379 11.453C49.8079 11.547 49.7139 11.97 49.8079 12.252ZM47.3639 12.91L47.1289 12.816C47.1289 12.91 47.0349 13.004 47.0349 13.051C47.0819 13.098 47.1759 13.145 47.2699 13.192C47.3169 13.098 47.3169 13.004 47.3639 12.91ZM43.9799 14.273L43.6509 14.132L43.9799 13.991C43.9799 13.944 44.0269 13.944 44.0269 13.944L43.9799 13.991V14.273H44.0269C43.9799 14.273 43.9799 14.273 43.9799 14.273ZM59.0199 14.367C59.1139 14.32 59.2079 14.32 59.2549 14.32C59.2549 14.367 59.2549 14.461 59.2079 14.555C59.2079 14.602 59.0669 14.602 58.9729 14.602C59.0199 14.508 58.9729 14.414 59.0199 14.367ZM51.2179 14.414C51.2179 14.367 51.3119 14.461 51.3119 14.461C51.3119 14.555 51.2649 14.602 51.2179 14.696C51.1709 14.649 51.0769 14.602 51.0299 14.555C51.0769 14.508 51.1239 14.414 51.2179 14.414ZM48.6799 14.555C48.6799 14.555 48.6799 14.555 48.6799 14.602H48.7269C48.6799 14.555 48.6799 14.555 48.6799 14.555ZM43.9799 16.905C43.9329 16.905 43.8859 16.764 43.8859 16.67C43.8389 16.67 43.7919 16.67 43.7449 16.67C43.7919 16.67 43.7919 16.67 43.8389 16.67C43.9329 16.341 44.0739 16.012 44.1679 15.683C44.2149 15.636 44.3559 15.636 44.4499 15.589C44.4499 15.683 44.4969 15.777 44.5439 15.871C44.1679 16.106 44.4969 16.294 44.5439 16.482C44.6379 16.811 44.3089 17.046 43.9799 16.905ZM58.4559 15.683C58.4559 15.636 58.6439 15.589 58.6909 15.636C58.8319 15.683 58.9259 15.777 59.0199 15.918C59.0669 15.965 59.1139 16.106 59.0669 16.153C59.0199 16.247 58.8789 16.247 58.7849 16.341C58.6439 16.294 58.5029 16.2 58.4559 16.106C58.4089 16.012 58.4089 15.824 58.4559 15.683ZM45.5309 15.824C45.5779 15.824 45.5779 15.777 45.5779 15.777L45.5309 15.824ZM51.0769 16.529C51.0299 16.435 50.9829 16.294 51.0299 16.247C51.0769 16.153 51.2179 16.106 51.3589 16.012C51.3589 16.012 51.4059 16.106 51.4529 16.153C51.3589 16.247 51.3119 16.388 51.2179 16.482C51.2179 16.529 51.0769 16.529 51.0769 16.529ZM58.1739 16.811C58.3149 16.858 58.4089 16.952 58.5029 17.046C58.4089 17.14 58.3149 17.234 58.2679 17.234C58.1739 17.14 58.0799 17.046 57.9859 16.905C58.0799 16.858 58.1739 16.764 58.1739 16.811ZM58.9259 17.986L58.8789 17.892C58.9259 17.845 58.9729 17.751 59.0669 17.704C59.1609 17.657 59.2549 17.657 59.3019 17.704C59.3489 17.751 59.3489 17.845 59.3959 17.939C59.3019 17.939 59.2079 18.033 59.1609 17.986C59.0669 17.986 58.9729 17.892 58.9259 17.845V17.986ZM51.6879 18.691C51.6409 18.691 51.5469 18.55 51.4529 18.503C51.5939 18.409 51.6879 18.362 51.8289 18.268C51.8289 18.362 51.9229 18.456 51.9229 18.503C51.8759 18.597 51.7819 18.644 51.6879 18.691ZM58.5969 19.114L58.5029 19.067V19.114H58.5969ZM52.2519 20.43C52.5339 20.43 52.8629 20.383 53.1449 20.43C53.2389 20.43 53.3329 20.618 53.3799 20.759C53.3799 20.759 53.2389 20.9 53.1919 20.9C52.9099 20.947 52.6749 20.947 52.4399 20.9C52.1109 20.853 52.2519 20.618 52.2989 20.43L52.1579 20.477L52.2519 20.43ZM53.8499 22.216C53.9909 22.075 54.0849 21.793 54.1789 21.558C54.1789 22.122 54.4139 22.592 54.6489 23.062L54.6019 23.015C54.6489 23.109 54.6959 23.156 54.7429 23.25C54.7429 23.344 54.7429 23.485 54.6959 23.532C54.6489 23.579 54.4609 23.626 54.4139 23.579C54.1789 23.391 53.9909 23.156 53.8029 22.968C53.6149 22.686 53.5209 22.451 53.8499 22.216ZM52.4869 22.498C52.5339 22.216 52.5809 21.934 52.6279 21.652C52.7689 22.169 52.8629 22.733 52.9569 23.25C52.6279 23.109 52.4399 22.874 52.4869 22.498ZM44.9669 23.344C44.8729 23.297 44.8259 23.25 44.7789 23.203L44.8259 23.109C44.9199 23.156 44.9669 23.203 45.0139 23.25C45.0139 23.25 44.9669 23.297 44.9669 23.344ZM53.4269 23.673C53.6149 23.673 53.7559 23.72 53.8499 23.908C53.8969 24.002 53.8969 24.096 53.8499 24.143C53.8029 24.237 53.6619 24.237 53.6149 24.19C53.2859 24.143 53.2859 23.908 53.4269 23.673ZM56.4819 23.908C56.5289 23.955 56.5289 23.955 56.5289 23.955L56.1999 24.284H56.1529L56.4819 23.908ZM60.0069 25.412C59.9599 25.365 59.9129 25.318 59.9129 25.318C59.9599 25.224 60.0069 25.177 60.0539 25.13C60.1009 25.13 60.1009 25.177 60.1479 25.224C60.1009 25.271 60.0539 25.365 60.0069 25.412ZM53.4739 26.305C53.4739 26.305 53.4739 26.211 53.5209 26.164C53.5679 26.117 53.6149 26.117 53.6619 26.117C54.1789 26.117 54.2729 26.258 54.2729 26.775C54.2729 26.822 54.2729 26.916 54.2259 27.01C53.9909 26.775 53.7089 26.54 53.4739 26.305ZM56.6699 26.305C56.6699 26.305 56.7169 26.352 56.7169 26.399C56.7169 26.446 56.7169 26.493 56.7639 26.54C56.7169 26.493 56.7169 26.446 56.7169 26.399L56.6699 26.305ZM56.7169 26.305H56.6699H56.7169ZM59.6779 23.485C59.6309 23.579 59.5839 23.72 59.4899 23.72C59.3019 23.814 59.3019 23.626 59.2549 23.485C59.0669 23.062 58.6439 23.015 58.2209 23.015C58.1269 23.015 57.9859 23.203 57.8919 23.344C57.7979 23.485 57.8919 23.626 58.0799 23.673C58.3619 23.767 58.6439 23.861 58.7379 24.19C58.9729 24.754 59.2079 25.318 59.3959 25.882C59.4429 25.929 59.3489 26.07 59.3019 26.117C59.2079 26.117 59.0669 26.117 59.0199 26.023C58.9259 25.882 58.8789 25.694 58.8319 25.506C58.8319 25.177 58.6439 25.13 58.4089 25.13C58.1739 25.13 58.0799 25.318 58.0799 25.553L58.0329 26.117C58.0799 26.117 58.0799 26.117 58.0799 26.117V26.164C58.5969 26.164 58.6439 26.164 58.5499 26.634V26.681V26.587C58.6439 26.634 58.7379 26.728 58.7849 26.775C59.1609 26.916 59.3489 27.104 59.3019 27.527C59.2549 27.668 59.3489 27.809 59.3959 27.95L59.3489 27.997V27.903C59.2549 28.044 59.1139 28.138 59.1139 28.279C58.9729 28.937 58.8319 29.548 58.7379 30.206C58.6439 30.817 58.4089 31.287 57.8449 31.569C57.6569 31.663 57.3749 31.569 57.3749 31.334C57.5159 30.582 56.9049 30.018 56.7639 29.36C56.7639 29.313 56.5759 29.266 56.5289 29.219L56.2939 29.407L56.1999 29.219C55.9649 28.89 55.7769 28.608 55.5419 28.326C55.1659 28.702 54.8369 28.42 54.5549 28.185L54.8369 27.856C55.1189 27.809 55.3539 27.809 55.5419 27.997C55.6829 27.95 55.8239 27.856 55.9649 27.762C56.1059 27.668 56.1999 27.48 56.0589 27.245C55.7769 26.916 55.5889 26.493 55.1659 26.258L55.1189 26.352V26.305C55.1189 26.164 55.2129 26.023 55.1659 25.882C55.1189 25.553 55.3069 25.506 55.5419 25.506C55.3539 24.989 54.8369 24.989 54.4609 24.801C54.4139 24.754 54.3669 24.378 54.4139 24.378C54.9779 24.19 55.3069 23.767 55.5889 23.25C55.6829 23.015 56.0589 22.968 56.1059 23.109C56.1529 23.25 56.1529 23.485 56.1059 23.532C55.6829 23.814 56.0119 24.049 56.1529 24.284C56.2939 24.425 56.3409 24.613 56.4819 24.754C56.8579 25.13 56.7169 25.459 56.4819 25.788L55.7299 25.412C55.7299 25.412 55.7299 25.412 55.7769 25.412H55.7299C55.6829 25.459 55.6359 25.459 55.5419 25.506C55.8239 26.07 55.9179 26.07 56.4819 25.835L56.6699 26.305C56.9049 26.446 57.0929 26.587 57.3279 26.681C57.6569 26.916 57.7509 26.869 57.9859 26.399L58.0799 26.164H58.0329V26.117C57.8449 26.07 57.5629 26.07 57.6099 25.694C57.6099 25.412 57.6099 25.13 57.6569 24.801C57.7039 24.613 57.6569 24.425 57.4689 24.331C57.1399 24.19 56.8579 24.096 56.5289 23.955C56.6699 23.767 56.7639 23.626 56.9049 23.438C57.1399 23.109 57.0929 22.874 56.7639 22.686C56.6699 22.592 56.5289 22.451 56.3879 22.404C55.6829 22.216 55.0249 21.793 54.4139 21.37C54.3669 21.37 54.2729 21.464 54.1789 21.558C54.1319 21.464 53.9909 21.417 53.9909 21.37C54.1319 20.853 54.4609 20.665 54.8839 20.759C55.5419 20.947 55.8239 21.511 56.3409 21.84C56.3879 21.84 56.4819 21.84 56.5289 21.84C56.4819 21.84 56.4349 21.793 56.4349 21.84C56.3409 21.84 56.2939 21.887 56.2939 21.887C56.5289 21.511 56.9049 21.323 57.2339 21.088C57.5159 20.947 57.6099 20.759 57.3279 20.477C57.3279 20.477 57.3749 20.289 57.4219 20.289C57.7039 20.242 58.0329 20.195 58.3149 20.148C58.3619 20.148 58.4559 19.913 58.4089 19.913C57.8919 19.631 58.1269 19.114 57.9859 18.691C57.9389 18.597 57.9859 18.503 57.9859 18.456C58.4559 18.55 58.8789 18.879 59.2549 19.161C59.6309 19.49 59.6779 20.054 59.3959 20.43C59.2079 20.759 59.0199 21.041 58.5969 21.135C58.3619 21.182 58.2209 21.37 58.4089 21.605C58.5499 21.793 58.6909 22.028 59.0199 21.934C59.2549 21.84 59.5369 21.746 59.7719 21.699C59.8189 21.699 59.9129 21.793 59.9599 21.84C60.0069 21.887 59.9599 21.981 59.9129 21.981L59.5369 22.216C59.3489 22.357 59.2549 22.498 59.4429 22.686C59.6309 22.921 59.9599 23.109 59.6779 23.485ZM54.3199 27.104C54.6489 27.198 54.7899 27.48 54.8369 27.809C54.6489 27.574 54.5079 27.339 54.3199 27.104ZM57.9859 27.527C57.8919 27.621 57.7509 27.621 57.7039 27.715C57.6099 27.903 57.7509 27.997 57.8449 28.091C57.9859 28.091 58.1269 28.091 58.2679 28.044C58.3149 28.044 58.3619 27.856 58.3149 27.809C58.2209 27.668 58.0799 27.621 57.9859 27.527ZM54.5549 28.279V28.185V28.279ZM57.4219 28.796C57.4689 28.749 57.4689 28.702 57.4689 28.702C57.4689 28.655 57.4219 28.655 57.3749 28.655C57.3279 28.702 57.3279 28.749 57.3279 28.796C57.3749 28.796 57.4219 28.796 57.4219 28.796ZM58.2209 29.783L58.0799 29.689C58.0799 29.736 58.0329 29.783 58.0329 29.83C58.0799 29.83 58.1269 29.877 58.1739 29.877C58.1739 29.83 58.2209 29.783 58.2209 29.783ZM43.9329 8.069H43.9799C44.0739 8.304 44.1679 8.539 44.1679 8.774C44.2149 8.962 44.1209 9.15 44.0739 9.385C44.0269 9.714 44.2619 9.902 44.6379 9.949C44.9199 9.949 45.1079 9.855 45.2959 9.62L45.2489 9.573C45.5779 9.197 45.5779 9.103 45.2959 8.868C45.1549 8.774 45.0139 8.727 44.9199 8.633C45.0139 8.398 45.2489 8.163 45.2019 7.975C45.1079 7.505 45.2489 7.176 45.6249 6.941C45.6719 6.894 45.7189 6.753 45.7189 6.659C45.6249 6.659 45.4369 6.565 45.3429 6.612C45.1079 6.753 44.8729 6.941 44.5909 7.082C44.5909 6.988 44.5909 6.894 44.5909 6.847C44.5909 6.8 44.5439 6.753 44.4969 6.706C44.4499 6.8 44.3559 6.894 44.4029 6.941C44.4499 6.988 44.4969 7.035 44.5909 7.129L44.6379 7.082C44.6849 7.599 44.5439 8.022 43.9799 8.069V8.022C43.9329 8.069 43.9329 8.069 43.9329 8.069ZM69.1054 25.741H69.1524C69.1524 25.835 69.1524 25.929 69.1524 26.07C69.1524 28.279 69.1524 30.535 69.1524 32.791C69.1524 33.355 69.1054 33.919 69.3874 34.483C69.5284 34.765 69.7164 35 70.0454 35C71.3144 35 72.5834 35 73.8054 35C74.0404 35 74.2284 34.859 74.2754 34.624C74.3224 34.06 74.5104 33.543 74.3224 32.932C74.2284 32.65 74.2284 32.321 74.2754 31.992C74.3694 31.569 74.5574 31.099 74.5574 30.629C74.5574 30.206 74.3224 29.736 74.3224 29.266C74.2754 27.48 74.2754 25.647 74.3224 23.814C74.3224 23.532 74.3694 23.297 74.4164 23.062C74.6514 22.028 74.6984 20.994 74.3694 19.96C74.2284 19.49 74.1814 19.02 74.4164 18.597C74.6984 17.892 74.6514 17.14 74.5104 16.435C74.1814 14.743 74.3224 13.004 74.2754 11.265C74.2754 11.077 74.3224 10.842 74.4164 10.654C74.6514 10.09 74.6514 9.573 74.4164 9.009C74.1814 8.445 74.3224 7.881 74.5104 7.317C74.6984 6.753 75.1214 6.518 75.6384 6.377C75.8734 6.283 76.1554 6.33 76.3904 6.33C77.0954 6.33 77.7534 6.33 78.4584 6.33C78.7874 6.33 79.1634 6.33 79.5394 6.283C79.9624 6.236 80.1974 6.001 80.1974 5.578C80.2444 4.638 80.2914 3.698 80.2914 2.758C80.2444 1.16 79.7744 1.254 78.6934 1.254C74.3694 1.254 70.0454 1.254 65.7214 1.254C65.4864 1.254 65.2044 1.254 64.9224 1.254C64.2644 1.348 64.0764 2.382 64.0294 2.899C63.9824 3.886 63.9824 4.873 63.9824 5.86C64.0294 6.33 64.2174 6.565 64.6404 6.612C65.6274 6.612 66.6144 6.612 67.6014 6.659C68.4474 6.659 69.0114 6.988 69.1054 7.74C69.1994 8.868 69.7164 9.949 69.1994 11.124C69.1054 11.406 69.1524 11.735 69.1524 12.064C69.1524 12.816 69.1524 13.615 69.1524 14.414C69.1524 15.025 69.1054 15.636 69.3404 16.247C69.4344 16.482 69.4344 16.811 69.3404 16.999C69.0114 17.751 69.1054 18.55 69.1054 19.302C69.1054 21.464 69.1054 23.579 69.1054 25.741ZM72.4424 4.591L71.9254 4.356L72.4894 4.309L71.8784 4.027C71.8784 3.886 71.7844 3.698 71.8314 3.557C71.9254 3.181 72.2074 2.993 72.5364 2.993C72.7244 2.993 72.9124 3.087 73.0534 3.228C73.2414 3.416 73.2414 3.839 73.0064 4.027C72.8654 4.168 72.6774 4.215 72.4894 4.356L72.4424 4.591L72.4894 4.638C72.7714 5.108 73.1474 5.625 73.5234 6.001C73.5234 6.001 73.5234 5.954 73.5234 5.907V5.766C73.5234 5.813 73.5234 5.813 73.5234 5.907V6.048V6.001C73.3824 6.142 73.2414 6.33 73.1004 6.33C72.6774 6.33 72.4894 6.518 72.3484 6.847L72.3954 6.941V6.894C71.9724 6.424 71.4554 6.236 70.8444 6.33C70.5624 6.33 70.4214 6.001 70.6094 5.766C70.7974 5.531 70.9384 5.343 71.2204 5.343C71.4554 5.296 71.6434 5.296 71.8784 5.343C72.3484 5.39 72.3954 5.014 72.4894 4.685L72.4424 4.638V4.591ZM70.7504 3.369C71.0324 3.698 71.3614 3.98 71.8314 4.027V4.309C71.7374 4.356 71.6904 4.45 71.5964 4.497C71.1734 4.779 71.0324 4.779 70.7034 4.403C70.6094 4.356 70.6094 4.215 70.5154 4.168C70.3274 3.839 70.2334 4.074 70.1394 4.215C70.0924 4.309 69.9984 4.403 69.9044 4.403C69.6224 4.309 69.3874 3.745 69.5754 3.51C69.6694 3.369 69.8104 3.275 69.9044 3.181C70.1864 2.899 70.3274 3.04 70.5624 3.228C70.6094 3.322 70.7034 3.322 70.7974 3.369H70.8914H70.7504ZM74.3694 3.228C74.4164 3.228 74.3694 3.181 74.4164 3.228C74.3694 3.228 74.3694 3.275 74.3224 3.322C74.3694 3.275 74.3694 3.275 74.3694 3.228ZM71.8314 3.98C71.8784 4.027 71.8784 4.027 71.8784 4.027H71.8314V3.98ZM71.8314 4.309L71.9254 4.356C71.8784 4.356 71.8784 4.356 71.8314 4.356V4.309ZM75.2624 4.403L75.3564 4.544C75.3094 4.544 75.3094 4.591 75.2624 4.591C75.2624 4.544 75.2624 4.497 75.2624 4.403ZM68.0244 5.296C67.9774 5.343 67.9304 5.343 67.9304 5.343L68.0244 5.296ZM71.9254 8.445C71.8314 8.539 71.7374 8.633 71.6904 8.633C71.3144 8.492 71.1734 7.928 71.4554 7.599C71.5024 7.552 71.7374 7.552 71.7374 7.599C71.7844 7.881 71.8784 8.163 71.9254 8.445ZM73.4294 7.599L73.4764 7.646H73.3824L73.3354 7.693L73.4294 7.599ZM71.7374 17.046C72.0194 17.093 72.1604 17.281 72.2544 17.563C72.2544 17.563 72.2544 17.657 72.2074 17.657C72.1604 17.704 72.1134 17.704 72.0664 17.657C71.7844 17.563 71.7844 17.281 71.7374 17.046C71.7374 16.811 71.6904 16.576 71.6904 16.341C71.4554 15.824 71.4554 15.824 71.8784 15.542C72.0194 15.448 72.1134 15.401 72.2074 15.307C72.4424 15.401 72.5834 15.495 72.5364 15.73C72.5364 16.2 72.0664 16.294 71.6904 16.294C71.7374 16.576 71.7374 16.811 71.7374 17.046ZM71.9724 19.302L72.0664 19.349L71.9724 19.396V19.302ZM71.2204 20.336C71.2674 20.336 71.3144 20.383 71.3614 20.383C71.3144 20.383 71.3144 20.383 71.2204 20.336ZM71.8784 22.639V22.545V22.639ZM72.7714 22.686L72.8654 22.733L72.8184 22.78L72.7714 22.686ZM95.0054 35V34.953C95.8044 34.953 96.5564 35 97.3554 34.953C97.6844 34.953 97.8724 34.671 97.8724 34.342C97.8724 34.013 97.8724 33.731 97.8254 33.402C97.4964 31.992 97.1674 30.629 96.7914 29.219C96.3684 27.386 95.8514 25.553 95.4754 23.673C95.3344 22.968 95.1934 22.263 95.0054 21.558C94.7234 20.524 94.3944 19.49 94.2064 18.409C93.9244 16.858 93.4074 15.307 93.2664 13.709C93.2664 13.38 93.1254 13.004 92.9844 12.675C92.0444 9.432 91.1984 6.189 90.7754 2.852C90.6814 2.523 90.5874 2.147 90.3994 1.865C90.3524 1.677 90.1174 1.489 89.9294 1.489C88.7544 1.489 87.5794 1.442 86.4044 1.536C85.7464 1.583 85.2764 2.053 85.1354 2.711C84.9474 3.886 84.7594 5.061 84.5714 6.236C84.5244 6.565 84.4774 6.847 84.3834 7.176C83.9604 8.727 83.5844 10.231 83.1614 11.782C83.1144 12.064 83.0674 12.299 83.0204 12.534C82.6914 14.038 82.4094 15.495 82.0804 16.952C81.7984 18.268 81.4694 19.537 81.1404 20.853C80.7644 22.31 80.3414 23.72 80.0124 25.177C79.6834 26.446 79.4014 27.715 79.1194 28.937C78.7434 30.629 78.4614 32.274 77.7564 33.872C77.7094 33.966 77.7094 34.06 77.7094 34.154C77.5684 34.718 77.7564 35 78.2734 35C79.8244 35 81.3754 35 82.9264 35C83.3964 35 83.8664 34.436 83.8664 33.966C84.0074 32.227 84.5714 30.535 84.9474 28.843C85.0414 28.185 85.2764 27.527 85.4644 26.869C85.5114 26.634 85.6524 26.399 85.7464 26.164C85.8874 25.882 86.1224 25.694 86.4514 25.647C86.5924 25.647 86.6864 25.647 86.7804 25.647C87.7204 25.6 88.6134 25.788 89.5534 25.412C89.6474 25.365 89.9764 25.506 90.0234 25.647C90.2114 26.07 90.3994 26.493 90.4464 26.963C90.5404 27.527 90.6814 28.044 90.9634 28.608C91.1044 28.89 91.1514 29.266 91.2454 29.595C91.6214 31.24 92.0914 32.838 92.1854 34.483C92.1854 34.765 92.4204 34.953 92.6554 34.953C93.4544 35 94.2534 35 95.0054 35ZM87.6264 8.257V8.304L87.9084 8.257V8.21L87.9554 8.163C88.0494 8.022 88.0964 7.834 88.1434 7.693C88.1904 7.552 88.0964 7.411 88.0964 7.317C87.9554 7.364 87.8144 7.364 87.6734 7.411C87.5324 7.505 87.3914 7.646 87.2504 7.787C87.2034 7.552 87.0624 7.27 87.2974 7.082C87.8614 6.424 87.6264 5.86 87.1564 5.296C87.1094 5.296 87.1094 5.249 87.1094 5.202H87.0154V5.155C86.9214 5.108 86.8744 5.061 86.8274 5.014C86.7334 4.967 86.7804 4.873 86.7334 4.779C86.7804 4.779 86.8274 4.779 86.8744 4.779C86.9214 4.826 86.9214 4.873 86.9214 4.92L87.0154 5.155C87.0624 5.155 87.1094 5.202 87.1094 5.202H87.6734C87.6734 5.202 87.6734 5.155 87.6264 5.155L87.6734 5.108V5.202C87.9554 5.39 88.2844 5.484 88.1434 5.954C88.0964 6.048 88.2374 6.236 88.3784 6.33C88.6134 6.565 88.8954 6.8 89.1774 6.988V7.035L89.2244 6.988V7.035C89.4124 7.035 89.4594 7.176 89.4594 7.317C89.4124 7.317 89.3654 7.364 89.3654 7.317C89.3184 7.317 89.2714 7.27 89.2714 7.223C89.2244 7.176 89.2244 7.082 89.1774 7.035L88.5664 7.975C89.3184 7.928 89.3654 7.975 89.5534 8.539C89.6474 8.774 89.7414 9.009 89.7414 9.291C89.7414 9.338 89.5534 9.479 89.4594 9.479C89.3654 9.526 89.2714 9.479 89.1774 9.432L89.2244 9.479H89.1774C89.1304 9.526 89.1304 9.62 89.1304 9.714C88.9894 10.184 88.9894 10.184 89.5064 10.419H89.8354C89.6944 10.513 89.6004 10.513 89.5064 10.419C89.5064 10.654 89.5064 10.842 89.5064 11.077C89.2714 11.171 89.0834 11.265 88.8954 11.359C88.8484 11.406 88.8014 11.594 88.8014 11.594C89.2714 11.829 89.1774 12.252 89.2244 12.628C89.2244 12.816 89.1774 13.051 89.1774 13.239L88.2844 13.568C88.6604 13.709 88.9894 13.709 89.2244 13.286C89.1774 13.239 89.1774 13.239 89.1774 13.239C89.2244 13.239 89.2244 13.239 89.2244 13.286C89.5064 13.803 89.3654 14.132 88.8014 14.32C88.7074 14.367 88.4724 14.273 88.4254 14.179C88.3314 13.991 88.3314 13.803 88.2374 13.474C88.0964 13.474 87.9554 13.427 87.8144 13.427C87.2974 13.286 87.2504 13.286 87.1564 13.662C87.1094 14.179 86.5454 14.414 86.5454 14.931L86.5924 14.978H86.5454C86.2634 14.978 86.0284 15.072 85.9344 15.401C85.8874 15.589 85.7464 15.73 85.5584 15.73L85.6054 15.777C85.5584 15.777 85.5114 15.777 85.4644 15.777H85.4174C85.4644 15.777 85.4644 15.777 85.4644 15.777H85.5584V15.73C85.5584 15.683 85.5114 15.589 85.5114 15.495C85.5584 14.978 85.6524 14.743 85.8874 14.743C86.0754 14.743 86.2634 14.837 86.5454 14.978H86.5924C86.4514 14.273 86.2164 13.615 86.2164 12.91C86.2634 12.769 86.0284 12.534 85.8404 12.346C85.6524 12.628 85.5114 12.957 85.3234 13.239C85.3234 13.239 85.1354 13.239 85.0884 13.192C84.8064 12.769 84.9474 12.393 85.4174 12.346C85.5584 12.299 85.6994 12.346 85.8404 12.346H85.8874C85.7934 11.829 85.5584 11.359 85.5114 10.795C85.5114 10.748 85.4174 10.654 85.3704 10.607V10.513V10.607C85.7464 10.372 86.0284 10.56 86.2634 10.842C86.3104 10.701 86.3574 10.607 86.4044 10.466C86.4984 10.184 86.2164 9.761 86.5924 9.62C86.8274 9.573 87.1094 9.761 87.3444 9.808C87.5324 9.855 87.8144 9.855 87.8614 9.62C87.9554 9.056 88.2844 9.15 88.6134 9.291C88.8014 9.338 88.9894 9.385 89.1774 9.479V9.432L88.5664 7.975H88.5194H88.5664L87.9554 8.163C87.9554 8.21 87.9554 8.21 87.9554 8.257H87.9084L87.8614 8.633H87.9084C88.0024 8.586 88.0964 8.539 88.1904 8.727L88.1434 8.774C88.0494 8.774 87.9554 8.68 87.9084 8.633L87.8614 8.68V8.633L87.6264 8.304H87.5794L87.5324 8.257H87.6264ZM86.9214 6.377C86.8744 6.565 86.5924 6.8 86.3574 6.753C86.3574 6.753 86.3104 6.706 86.3104 6.659C86.3574 6.424 86.6394 6.189 86.8744 6.236C86.8744 6.236 86.9214 6.33 86.9214 6.377ZM87.2504 7.787L86.2164 7.74L86.1694 7.646L86.2634 7.74L87.2504 7.787ZM85.4644 8.445H85.6054L85.4644 8.492V8.586V8.445ZM86.8274 9.103C86.7334 9.056 86.6394 9.009 86.5924 8.915C86.6394 8.868 86.6864 8.774 86.7804 8.727C86.8274 8.727 86.9214 8.774 87.0154 8.774C86.9684 8.915 86.9214 9.009 86.8274 9.103ZM89.8354 10.419C89.9764 10.56 90.1174 10.701 90.2114 10.842C90.3524 11.03 90.3524 11.218 90.2114 11.406C90.0704 11.453 89.9294 11.547 89.7884 11.5C89.5534 11.453 89.5064 11.265 89.5534 11.077C89.7414 10.889 89.8824 10.701 89.8354 10.419ZM88.6134 10.748L88.3784 10.56C88.3784 10.607 88.3314 10.654 88.3314 10.654C88.4254 10.748 88.5194 10.795 88.5664 10.889C88.6134 10.842 88.6134 10.795 88.6134 10.748ZM86.2164 10.889H86.2634L86.3574 10.795L86.2164 10.889ZM89.5534 11.03C89.5064 11.077 89.5064 11.077 89.5064 11.077L89.5534 11.03ZM90.3524 12.581C90.2584 12.722 90.2114 12.816 90.1644 12.863C89.9764 12.91 89.7414 12.863 89.6474 12.675C89.6004 12.534 89.6944 12.299 89.7414 12.111H89.8824C90.0704 12.252 90.2114 12.44 90.3524 12.581ZM87.0154 11.312C87.3914 11.218 87.5794 10.936 87.7674 10.654C87.8614 10.513 87.8614 10.372 87.6734 10.278C87.4854 10.137 87.2504 10.231 87.2034 10.419C87.1094 10.701 87.0624 10.983 86.9684 11.265C86.9684 11.312 86.9684 11.359 86.9684 11.359C86.5924 11.735 86.5924 12.017 87.0154 12.252C87.0154 12.346 87.0154 12.346 87.0624 12.346C87.2034 12.675 87.2504 12.722 87.4854 12.581C87.5794 12.534 87.6264 12.487 87.7204 12.44L87.0624 12.346C87.0154 12.299 87.0154 12.299 87.0154 12.252L86.9684 11.359L87.0154 11.312ZM87.7674 12.44L87.6734 12.346L87.7204 12.44C87.7204 12.44 87.7204 12.44 87.7674 12.44ZM90.7284 14.696C90.6814 14.696 90.5874 14.696 90.5874 14.696C90.3994 14.508 90.3524 14.226 90.0704 14.179C90.0234 14.179 89.9764 13.897 90.0234 13.803C90.3054 13.521 90.6344 13.286 90.9634 13.051C91.0574 12.957 91.2454 13.051 91.3864 13.098C91.3864 13.098 91.4334 13.333 91.3864 13.38C91.0104 13.709 90.8224 14.085 90.8224 14.602C90.8224 14.649 90.7754 14.649 90.7284 14.696ZM89.7414 15.495C89.4594 15.495 89.3184 15.495 89.2244 15.448C89.1304 15.448 89.0834 15.307 89.0364 15.26C89.1304 15.213 89.2244 15.119 89.2714 15.119C89.4124 15.166 89.5064 15.26 89.7414 15.495ZM88.6134 19.396C88.6134 19.584 88.6134 19.678 88.6134 19.772C88.5664 20.007 88.3784 20.101 88.1904 20.148C87.7204 20.195 87.3444 20.007 87.1094 19.678C86.9684 19.537 86.8744 19.161 86.9684 18.973C87.2504 18.362 87.2504 17.704 87.4384 17.046C87.5324 16.623 87.5794 16.153 87.6734 15.73C87.6734 15.636 87.8144 15.542 87.8614 15.589C87.9554 15.589 88.0494 15.636 88.0964 15.73C88.1904 15.871 88.2844 16.012 88.2844 16.153C88.2844 17.046 88.3314 17.986 88.6134 18.832C88.6604 19.02 88.6134 19.255 88.6134 19.396ZM91.6684 16.153V16.247L91.5274 16.2L91.6684 16.153ZM84.9474 16.388C85.0414 16.435 85.0414 16.482 85.0884 16.482C84.9944 16.576 84.9004 16.623 84.8064 16.67C84.7594 16.67 84.7124 16.623 84.7124 16.576C84.7594 16.529 84.8534 16.435 84.9474 16.388ZM92.1854 17.892C92.1384 17.939 92.0444 17.986 91.9974 18.033C91.9504 17.939 91.8564 17.845 91.8564 17.798C91.8564 17.751 91.9974 17.704 92.0444 17.657C92.0914 17.704 92.1384 17.798 92.1854 17.892ZM84.3364 20.477C84.3834 20.618 84.4774 20.759 84.4774 20.9C84.5244 20.947 84.4304 20.994 84.3834 21.041C84.3834 20.994 84.3834 20.947 84.3364 20.9C84.3364 20.759 84.3364 20.618 84.3364 20.477C84.1014 20.43 83.7724 20.43 83.7254 20.101C83.7254 19.725 83.9604 19.396 84.2424 19.396C84.8064 19.443 85.1824 19.349 84.9944 18.644C84.9944 18.644 85.0414 18.597 85.0884 18.597C85.1824 18.597 85.3234 18.597 85.3704 18.691C85.4644 18.785 85.5584 18.926 85.5584 19.067C85.6524 19.772 85.7464 20.43 85.7464 21.135L85.7934 21.182C85.6994 21.229 85.6524 21.323 85.5584 21.37H85.5114C85.5114 21.464 85.5584 21.558 85.6524 21.605C86.1694 21.84 86.6864 22.028 87.2974 21.934V21.887L87.3444 21.934H87.2974L87.3914 22.498H87.4384V22.545C87.5794 22.592 87.7204 22.639 87.8144 22.686C87.9084 22.733 88.0024 22.874 88.0024 22.921C87.9084 23.203 87.8144 23.485 87.6734 23.72C87.6734 23.72 87.3444 23.626 87.1564 23.532C87.0624 23.438 87.0154 23.25 87.0624 23.109C87.1564 22.921 87.2974 22.733 87.4384 22.545L87.3914 22.498C87.0624 22.592 86.6864 22.639 86.4044 22.921C86.1224 23.25 85.6524 23.344 85.2764 23.532V23.579L85.1824 23.532H85.2764C85.0414 22.78 84.9944 22.78 84.3364 23.015C84.2424 23.015 84.1484 23.062 84.0544 23.062C84.0074 23.062 83.9604 23.015 83.9604 22.968C83.9134 22.968 83.9134 22.874 83.9134 22.827C84.3364 22.216 84.8534 21.746 85.5114 21.37C85.5584 21.276 85.6054 21.229 85.7464 21.182V21.135C85.3234 20.806 84.8534 20.618 84.3364 20.477ZM90.9634 20.477C90.8224 19.725 90.9164 19.631 91.5274 19.537C91.6214 19.537 91.7624 19.537 91.8094 19.584C91.9034 19.772 91.7624 19.866 91.6214 19.913C91.3394 20.054 91.0574 20.195 90.9634 20.477ZM84.7594 20.007C84.8064 20.007 84.8064 19.96 84.8534 19.913C84.8064 19.913 84.7124 19.866 84.6654 19.819C84.6654 19.819 84.6184 19.866 84.5714 19.913C84.6184 19.96 84.7124 20.007 84.7594 20.007ZM83.0204 19.866L83.1614 19.913L83.0204 19.96V19.866ZM91.9504 21.981C91.8094 21.605 91.6684 21.323 91.5744 20.947C91.4804 20.712 91.8564 20.336 92.1384 20.43C92.3264 20.477 92.5144 20.524 92.7024 20.665C92.7494 20.759 92.7964 20.994 92.7494 21.088C92.4674 21.417 92.1854 21.699 91.9034 21.981H91.9504ZM83.2554 21.887C83.1144 21.746 83.1144 21.699 83.1144 21.558C83.1614 21.558 83.2554 21.605 83.2554 21.652C83.3024 21.746 83.2554 21.793 83.2554 21.887ZM88.8954 22.592C88.8014 22.498 88.7544 22.451 88.7074 22.451C88.7074 22.404 88.7074 22.31 88.7544 22.31C88.8484 22.169 88.9424 22.075 89.0834 21.981C89.1304 21.981 89.2244 22.028 89.3184 22.075V22.216C89.1774 22.357 89.0364 22.451 88.8954 22.592ZM91.4804 23.25C91.1984 23.015 90.8694 22.78 90.5874 22.498C90.5404 22.451 90.5404 22.31 90.5874 22.263C90.6344 22.169 90.7284 22.122 90.8224 22.075C91.0574 22.075 91.2454 22.169 91.3394 22.357C91.4334 22.686 91.4334 22.968 91.4804 23.25ZM85.9344 22.639L85.8404 22.592L85.8874 22.639H85.9344ZM91.4804 23.297L91.5744 23.25C91.5274 23.297 91.5274 23.297 91.4804 23.297ZM82.5504 23.485H82.4564L82.5034 23.391L82.5504 23.485ZM89.4594 23.438C89.5534 23.485 89.6004 23.485 89.6474 23.532C89.5534 23.626 89.5064 23.72 89.4124 23.814C89.4124 23.814 89.3184 23.767 89.3184 23.72C89.3654 23.626 89.4124 23.532 89.4594 23.438ZM83.3024 25.318V25.365C83.4434 25.365 83.5844 25.412 83.7254 25.412C84.0074 25.506 84.1014 25.694 84.0074 25.976C83.9604 26.07 83.8664 26.117 83.7724 26.164C83.7724 26.164 83.6784 26.164 83.6784 26.117C83.5374 25.882 83.4434 25.6 83.2554 25.365V25.318C83.1614 25.318 83.0674 25.318 83.0204 25.271C82.7384 25.177 82.9264 24.754 82.5974 24.707C82.3624 24.66 82.0804 24.613 81.8454 24.519C81.8454 24.519 81.7984 24.472 81.7514 24.425C81.7044 24.331 81.6574 24.237 81.6574 24.143C81.7044 24.096 81.7984 23.955 81.8454 23.955C82.0334 23.955 82.2684 24.002 82.4564 24.049C83.4434 24.237 83.4904 24.284 83.2554 25.318H83.3024ZM85.9344 24.049L85.9814 24.143H85.8874L85.9344 24.049ZM92.1384 24.284L91.9974 24.331V24.19L92.1384 24.284ZM90.9634 24.284C91.0574 24.425 91.1514 24.566 91.1984 24.707C91.2454 24.707 91.1984 24.801 91.1984 24.848C91.1514 24.801 91.0104 24.801 90.9634 24.754C90.9164 24.66 90.8694 24.519 90.8224 24.378C90.8224 24.331 90.9164 24.331 90.9634 24.284ZM112.613 16.529C113.694 14.696 114.775 12.816 115.856 10.983C117.031 8.962 118.253 6.988 119.428 4.967C119.945 4.074 120.368 3.228 120.791 2.288C121.214 1.395 121.073 1.207 120.086 1.207C118.723 1.207 117.36 1.207 116.044 1.207C115.856 1.207 115.715 1.207 115.574 1.207C115.292 1.207 115.057 1.301 114.963 1.63C114.916 1.865 114.775 2.1 114.634 2.288C113.882 3.651 113.036 4.967 112.284 6.377C110.968 8.868 109.464 11.218 107.819 13.521C107.349 14.179 106.926 14.884 106.456 15.636C106.362 15.777 106.268 15.965 106.174 16.106C106.127 16.247 106.033 16.529 105.845 16.529C105.516 16.529 105.469 15.495 105.469 15.26C105.469 11.265 105.516 7.27 105.516 3.228C105.516 2.805 105.516 2.382 105.469 2.006C105.422 1.489 105.14 1.207 104.67 1.207C103.307 1.207 101.944 1.207 100.581 1.207C100.158 1.207 100.017 1.395 99.9701 1.912C99.9701 2.382 99.9701 2.852 99.9701 3.322C99.9701 10.842 99.9701 18.362 99.9701 25.835C99.9701 28.655 99.8291 31.475 100.252 34.248C100.346 34.859 100.44 34.953 101.051 35C102.226 35 103.354 35 104.482 35C105.422 35 105.516 34.906 105.751 33.919C105.845 33.59 105.798 33.214 105.798 32.838C105.798 31.804 105.798 30.77 105.798 29.736C105.798 27.809 106.738 26.07 107.913 24.613C108.054 24.425 108.289 24.425 108.383 24.66C109.182 26.023 110.216 27.292 110.874 28.796C111.532 30.253 112.378 31.616 113.13 33.073C113.412 33.496 113.694 33.966 113.929 34.436C114.117 34.859 114.493 35 114.916 35C116.42 35 117.971 35 119.475 35C120.462 35 120.744 34.859 120.18 33.825C119.992 33.496 119.757 33.214 119.569 32.885C119.428 32.65 119.193 32.368 119.146 32.086C119.005 31.146 118.488 30.441 117.924 29.736C117.642 29.36 117.407 28.984 117.172 28.561C116.655 27.715 116.138 26.869 115.668 26.023C115.292 25.365 114.869 24.754 114.634 24.096C114.07 22.498 113.036 21.182 112.096 19.819C111.908 19.631 111.72 19.443 111.579 19.208C111.344 18.832 111.297 18.456 111.532 18.033C111.908 17.516 112.331 17.046 112.613 16.529ZM102.978 15.166C102.978 15.166 102.931 15.213 102.884 15.26C102.884 15.213 102.837 15.166 102.837 15.119C102.837 15.072 102.884 15.072 102.931 15.025C102.931 15.072 102.978 15.119 102.978 15.166ZM109.511 15.025C109.605 15.072 109.699 15.119 109.84 15.213C109.793 15.213 109.793 15.307 109.746 15.307C109.652 15.26 109.511 15.213 109.37 15.166C109.417 15.166 109.464 15.119 109.511 15.025ZM110.263 17.798C110.122 17.986 109.981 18.033 109.746 18.033C109.511 18.033 109.229 18.033 108.994 18.08V18.033C108.759 17.751 108.43 17.751 108.101 17.751C108.195 17.657 108.242 17.563 108.383 17.516C108.665 17.328 108.665 17.14 108.571 16.905C108.524 16.764 108.524 16.623 108.524 16.482C108.665 16.576 108.759 16.717 108.947 16.811C109.229 16.952 109.605 17.046 109.934 17.187C110.216 17.328 110.357 17.563 110.263 17.798ZM109.511 16.576C109.605 16.482 109.558 16.529 109.558 16.576C109.511 16.576 109.511 16.576 109.511 16.576ZM103.73 16.67C103.824 16.67 103.918 16.717 104.012 16.764C103.965 16.811 103.918 16.952 103.871 16.952C103.777 16.952 103.683 16.905 103.636 16.858C103.683 16.811 103.73 16.717 103.73 16.67ZM105.093 17.563C105.046 17.234 105.14 17.046 105.375 16.905C105.422 16.952 105.422 16.952 105.469 16.999C105.328 17.187 105.187 17.375 105.093 17.563ZM108.101 17.751L108.054 17.798C108.289 18.033 108.665 18.08 108.994 18.08C109.182 18.55 108.712 19.067 108.994 19.537L108.524 19.866C108.336 19.396 108.148 18.926 107.96 18.503C107.819 18.174 107.49 18.127 107.161 18.362C107.067 18.456 106.973 18.503 106.879 18.55C106.926 18.409 106.926 18.268 106.973 18.127C107.208 17.704 107.631 17.657 108.054 17.798C108.054 17.751 108.054 17.751 108.101 17.751ZM101.991 18.174C102.414 17.986 102.743 18.315 103.166 18.268C102.837 18.691 102.79 18.691 102.461 18.55C102.32 18.409 102.132 18.268 101.991 18.174ZM101.991 18.221V18.174V18.221ZM103.213 18.268C103.307 18.268 103.448 18.268 103.542 18.268C103.448 18.268 103.307 18.268 103.213 18.268ZM107.49 19.96C107.49 19.725 107.49 19.49 107.537 19.255C107.584 19.114 107.819 19.067 107.913 19.208C108.148 19.396 108.336 19.631 108.524 19.866C108.195 19.913 107.819 19.96 107.49 19.96ZM105.422 19.772H104.764C104.858 19.772 104.905 19.772 104.999 19.772C105.14 19.772 105.281 19.772 105.422 19.772C105.469 19.584 105.469 19.396 105.469 19.161C105.469 19.349 105.469 19.584 105.422 19.772ZM110.686 20.383C110.639 20.383 110.639 20.43 110.592 20.43C110.592 20.383 110.545 20.336 110.545 20.336C110.592 20.289 110.639 20.289 110.686 20.289C110.686 20.336 110.686 20.336 110.686 20.383ZM105.657 20.853L105.61 20.806C105.61 20.853 105.657 20.853 105.657 20.853ZM108.289 21.793L108.242 21.746V21.793C108.289 21.793 108.289 21.793 108.289 21.793H108.336H108.289ZM111.485 23.062C111.532 23.109 111.673 23.203 111.673 23.25C111.579 23.485 111.297 23.673 111.062 23.626C111.015 23.626 110.968 23.579 110.968 23.532C110.968 23.344 111.25 23.109 111.485 23.062ZM110.028 21.652C109.699 21.84 109.37 21.981 109.088 22.216C108.618 22.592 108.383 22.592 108.242 21.793C108.195 21.793 108.101 21.84 108.054 21.793C108.007 22.216 107.96 22.639 107.913 23.015C107.913 23.25 107.725 23.344 107.49 23.344C107.302 23.391 107.255 23.25 107.255 23.062C107.208 22.827 107.114 22.545 107.208 22.31C107.443 21.84 107.067 21.746 106.832 21.511C106.738 21.135 106.738 21.135 107.114 20.9C107.349 21.135 107.584 21.323 107.772 21.558C107.725 21.182 107.49 20.994 107.114 20.9L106.832 20.242C106.456 20.524 106.08 20.759 105.657 20.853C105.61 21.182 105.516 21.417 105.234 21.558H105.187C105.046 21.088 104.952 20.665 104.294 20.853C104.106 20.9 104.059 20.712 104.059 20.571C104.106 20.336 104.106 20.148 104.106 19.96C104.106 19.772 103.636 19.631 103.589 19.772C103.354 20.289 102.884 20.665 102.555 21.088C102.508 21.135 102.555 21.323 102.602 21.37C103.025 21.605 103.448 21.981 104.012 21.652C104.388 21.464 104.764 21.511 105.187 21.558V21.605C105.375 21.934 105.563 22.31 105.657 22.686C105.751 23.015 105.986 23.015 106.221 23.109C106.127 22.498 106.456 22.028 106.785 21.605C106.785 21.558 106.785 21.511 106.832 21.511C106.832 21.558 106.785 21.558 106.785 21.605C106.691 22.216 106.785 22.827 106.503 23.438C106.456 23.673 106.362 23.908 106.315 24.143C106.221 24.472 105.939 24.566 105.751 24.284C105.422 23.861 105.14 24.049 104.811 24.19C104.764 24.19 104.67 24.237 104.576 24.237C104.67 24.237 104.764 24.237 104.858 24.237C105.14 24.848 104.858 25.412 104.717 25.976H104.811C104.529 25.929 104.294 25.835 104.059 25.741C103.871 25.647 103.824 25.506 104.012 25.271C104.106 25.177 104.294 25.083 104.106 24.942C104.012 24.895 103.777 24.895 103.683 24.942C103.495 25.083 103.354 25.318 103.166 25.506C103.119 25.553 102.931 25.553 102.884 25.553C102.837 25.412 102.79 25.271 102.79 25.13C102.743 25.083 102.79 25.036 102.743 24.989C102.931 24.754 102.837 24.566 102.743 24.331C102.884 24.237 102.978 24.143 103.072 24.002C103.166 23.955 103.213 23.861 103.213 23.814C103.26 23.767 103.166 23.72 103.119 23.72C102.931 23.673 102.696 23.72 102.508 23.626C102.414 23.579 102.32 23.391 102.32 23.25C102.32 23.109 102.367 22.921 102.461 22.874C102.696 22.78 102.978 22.827 103.213 22.78C103.307 22.78 103.354 22.686 103.401 22.592L103.354 22.498C102.931 22.169 102.414 21.981 102.132 21.511C101.897 21.088 101.709 20.665 101.944 20.195C102.038 20.007 102.085 19.819 102.179 19.631C102.32 19.396 102.555 19.208 102.837 19.302C103.354 19.49 103.73 19.349 104.012 18.879C104.341 18.456 104.717 18.033 105.093 17.563C105.845 17.704 105.845 17.704 105.751 18.503L105.798 18.456L105.516 19.208C105.61 19.349 105.751 19.49 105.892 19.584C105.986 19.678 106.174 19.725 106.268 19.678C106.644 19.443 106.879 19.631 107.114 19.96L107.443 20.007C107.49 20.148 107.49 20.336 107.537 20.383C107.772 20.524 108.007 20.524 108.148 20.806C108.195 20.994 108.383 20.947 108.524 20.806C108.571 20.759 108.618 20.665 108.665 20.524C108.759 20.289 108.9 20.007 109.182 20.148C109.464 20.242 109.981 20.148 110.028 20.665C110.028 20.806 110.122 20.947 110.169 21.088C110.263 21.323 110.216 21.511 110.028 21.652ZM102.743 24.942C102.602 24.754 102.555 24.566 102.743 24.378C102.743 24.331 102.743 24.331 102.743 24.331V24.989V24.942ZM111.626 25.976L111.72 26.07H111.626V25.976ZM102.226 26.352C102.32 26.399 102.414 26.399 102.461 26.446C102.414 26.399 102.32 26.399 102.226 26.352ZM102.32 26.916C102.32 27.057 102.226 27.245 102.273 27.339C102.367 27.527 102.555 27.668 102.367 27.903C102.32 27.903 102.273 27.95 102.226 27.95C101.991 27.903 101.944 27.668 101.897 27.48C101.803 27.057 101.991 26.728 102.226 26.399C102.226 26.587 102.273 26.728 102.273 26.916L102.367 26.869L102.32 26.916ZM103.871 28.044C103.777 28.091 103.683 28.185 103.542 28.279C103.495 28.279 103.401 28.185 103.354 28.138C103.166 27.856 103.119 27.574 103.26 27.292C103.26 27.245 103.448 27.198 103.495 27.198C103.73 27.386 103.918 27.621 103.871 28.044ZM127.029 25.741H127.076C127.076 25.835 127.076 25.929 127.076 26.07C127.076 28.279 127.076 30.535 127.076 32.791C127.076 33.355 127.029 33.919 127.311 34.483C127.452 34.765 127.64 35 127.969 35C129.238 35 130.507 35 131.729 35C131.964 35 132.152 34.859 132.199 34.624C132.246 34.06 132.434 33.543 132.246 32.932C132.152 32.65 132.152 32.321 132.199 31.992C132.293 31.569 132.481 31.099 132.481 30.629C132.481 30.206 132.246 29.736 132.246 29.266C132.199 27.48 132.199 25.647 132.246 23.814C132.246 23.532 132.293 23.297 132.34 23.062C132.575 22.028 132.622 20.994 132.293 19.96C132.152 19.49 132.105 19.02 132.34 18.597C132.622 17.892 132.575 17.14 132.434 16.435C132.105 14.743 132.246 13.004 132.199 11.265C132.199 11.077 132.246 10.842 132.34 10.654C132.575 10.09 132.575 9.573 132.34 9.009C132.105 8.445 132.246 7.881 132.434 7.317C132.622 6.753 133.045 6.518 133.562 6.377C133.797 6.283 134.079 6.33 134.314 6.33C135.019 6.33 135.677 6.33 136.382 6.33C136.711 6.33 137.087 6.33 137.463 6.283C137.886 6.236 138.121 6.001 138.121 5.578C138.168 4.638 138.215 3.698 138.215 2.758C138.168 1.16 137.698 1.254 136.617 1.254C132.293 1.254 127.969 1.254 123.645 1.254C123.41 1.254 123.128 1.254 122.846 1.254C122.188 1.348 122 2.382 121.953 2.899C121.906 3.886 121.906 4.873 121.906 5.86C121.953 6.33 122.141 6.565 122.564 6.612C123.551 6.612 124.538 6.612 125.525 6.659C126.371 6.659 126.935 6.988 127.029 7.74C127.123 8.868 127.64 9.949 127.123 11.124C127.029 11.406 127.076 11.735 127.076 12.064C127.076 12.816 127.076 13.615 127.076 14.414C127.076 15.025 127.029 15.636 127.264 16.247C127.358 16.482 127.358 16.811 127.264 16.999C126.935 17.751 127.029 18.55 127.029 19.302C127.029 21.464 127.029 23.579 127.029 25.741ZM130.366 4.591L129.849 4.356L130.413 4.309L129.802 4.027C129.802 3.886 129.708 3.698 129.755 3.557C129.849 3.181 130.131 2.993 130.46 2.993C130.648 2.993 130.836 3.087 130.977 3.228C131.165 3.416 131.165 3.839 130.93 4.027C130.789 4.168 130.601 4.215 130.413 4.356L130.366 4.591L130.413 4.638C130.695 5.108 131.071 5.625 131.447 6.001C131.447 6.001 131.447 5.954 131.447 5.907V5.766C131.447 5.813 131.447 5.813 131.447 5.907V6.048V6.001C131.306 6.142 131.165 6.33 131.024 6.33C130.601 6.33 130.413 6.518 130.272 6.847L130.319 6.941V6.894C129.896 6.424 129.379 6.236 128.768 6.33C128.486 6.33 128.345 6.001 128.533 5.766C128.721 5.531 128.862 5.343 129.144 5.343C129.379 5.296 129.567 5.296 129.802 5.343C130.272 5.39 130.319 5.014 130.413 4.685L130.366 4.638V4.591ZM128.674 3.369C128.956 3.698 129.285 3.98 129.755 4.027V4.309C129.661 4.356 129.614 4.45 129.52 4.497C129.097 4.779 128.956 4.779 128.627 4.403C128.533 4.356 128.533 4.215 128.439 4.168C128.251 3.839 128.157 4.074 128.063 4.215C128.016 4.309 127.922 4.403 127.828 4.403C127.546 4.309 127.311 3.745 127.499 3.51C127.593 3.369 127.734 3.275 127.828 3.181C128.11 2.899 128.251 3.04 128.486 3.228C128.533 3.322 128.627 3.322 128.721 3.369H128.815H128.674ZM132.293 3.228C132.34 3.228 132.293 3.181 132.34 3.228C132.293 3.228 132.293 3.275 132.246 3.322C132.293 3.275 132.293 3.275 132.293 3.228ZM129.755 3.98C129.802 4.027 129.802 4.027 129.802 4.027H129.755V3.98ZM129.755 4.309L129.849 4.356C129.802 4.356 129.802 4.356 129.755 4.356V4.309ZM133.186 4.403L133.28 4.544C133.233 4.544 133.233 4.591 133.186 4.591C133.186 4.544 133.186 4.497 133.186 4.403ZM125.948 5.296C125.901 5.343 125.854 5.343 125.854 5.343L125.948 5.296ZM129.849 8.445C129.755 8.539 129.661 8.633 129.614 8.633C129.238 8.492 129.097 7.928 129.379 7.599C129.426 7.552 129.661 7.552 129.661 7.599C129.708 7.881 129.802 8.163 129.849 8.445ZM131.353 7.599L131.4 7.646H131.306L131.259 7.693L131.353 7.599ZM129.661 17.046C129.943 17.093 130.084 17.281 130.178 17.563C130.178 17.563 130.178 17.657 130.131 17.657C130.084 17.704 130.037 17.704 129.99 17.657C129.708 17.563 129.708 17.281 129.661 17.046C129.661 16.811 129.614 16.576 129.614 16.341C129.379 15.824 129.379 15.824 129.802 15.542C129.943 15.448 130.037 15.401 130.131 15.307C130.366 15.401 130.507 15.495 130.46 15.73C130.46 16.2 129.99 16.294 129.614 16.294C129.661 16.576 129.661 16.811 129.661 17.046ZM129.896 19.302L129.99 19.349L129.896 19.396V19.302ZM129.144 20.336C129.191 20.336 129.238 20.383 129.285 20.383C129.238 20.383 129.238 20.383 129.144 20.336ZM129.802 22.639V22.545V22.639ZM130.695 22.686L130.789 22.733L130.742 22.78L130.695 22.686Z" fill="white"/>
</svg>
