<svg width="39" height="25" viewBox="0 0 39 25" fill="none" xmlns="http://www.w3.org/2000/svg">
<path d="M9.89417 0.0261941C8.53508 0.026194 7.23035 0.0663053 5.92563 0.026194C4.51217 -0.0139174 3.15309 0.146528 1.794 0.0261938C1.63091 0.0261938 1.41345 0.0663051 1.25036 0.0663051C0.434906 0.186639 0.0543632 0.547641 -6.22916e-08 1.18942C-1.06406e-07 2.03176 -1.5052e-07 2.8741 -1.94634e-07 3.71644C-2.32447e-07 4.43844 0.108726 4.59889 1.196 4.83955C1.46782 4.87967 1.73963 4.95989 2.06581 4.95989C3.80545 4.87967 5.54508 5.08022 7.28472 4.75933C7.6109 4.67911 8.10017 4.75933 8.48071 4.83956C9.56799 5 10.6553 5 11.6882 4.79944C12.8298 4.59889 13.9714 4.59889 15.1131 4.75933C16.2547 4.91978 17.3963 4.91978 18.538 4.95989C20.9843 4.95989 23.4307 4.95989 25.9314 4.95989C26.5294 4.95989 27.1274 4.87967 27.6711 4.75933C28.2691 4.67911 28.8671 4.639 29.4651 4.75933C29.8456 4.87967 30.2805 4.91978 30.7154 4.91978C32.6725 4.95989 34.684 5 36.641 5C37.0216 5 38.5438 5 38.5438 4.51867C38.6525 3.87688 38.7069 3.19499 38.9787 2.55321C39.033 2.43288 38.9787 2.19221 38.8699 2.07187C38.5981 1.63065 38.6525 1.18942 38.7612 0.748199C38.8156 0.306975 38.5438 0.0663065 38.0001 0.0261951C37.5109 0.0261951 37.0216 0.0261951 36.5323 0.0261951C32.0201 0.0261949 27.508 0.0261947 22.9958 0.0261946C22.126 0.0261945 21.2018 -0.0540282 20.332 0.0663058C19.3534 0.226751 18.4292 -0.0139169 17.4507 0.0261944C14.95 0.0261943 12.3949 0.0261942 9.89417 0.0261941ZM33.2705 2.5131C33.3249 2.47299 33.3792 2.47299 33.3792 2.47299C33.488 2.55321 33.5967 2.63343 33.651 2.75377L33.5423 2.79388C33.488 2.71365 33.3792 2.67354 33.3249 2.63343C33.2705 2.59332 33.2705 2.55321 33.2705 2.5131ZM31.857 2.59332C31.8027 2.75377 31.8027 2.95432 31.7483 3.11477C31.7483 3.15488 31.5852 3.2351 31.5309 3.2351C31.4221 3.19499 31.259 3.11477 31.259 3.07466C31.3134 2.91421 31.3134 2.71365 31.4221 2.59332C31.4765 2.47299 31.5309 2.31254 31.7483 2.39276C31.8027 2.39276 31.857 2.5131 31.857 2.59332ZM29.4651 2.31254C29.5194 2.23232 29.5194 2.11198 29.6281 2.11198C29.8456 2.03176 30.063 2.07187 30.1718 2.27243C30.1718 2.35265 30.063 2.5131 29.9543 2.5131C29.6825 2.59332 29.5194 2.47299 29.4651 2.31254ZM28.5952 2.07187L28.704 2.03176L28.7583 2.03176L28.5952 2.07187ZM27.3992 3.39555C27.1274 3.35544 27.0187 3.19499 27.0731 2.99443C27.0731 2.91421 27.1818 2.83399 27.2361 2.79388C27.3449 2.79388 27.4536 2.83399 27.5623 2.91421C27.7254 3.03455 27.7254 3.19499 27.5623 3.35544C27.508 3.39555 27.4536 3.43566 27.3992 3.39555ZM26.9643 1.99165C26.91 1.99165 26.8556 1.99165 26.8012 1.95154C26.91 1.87132 26.9643 1.79109 27.1274 1.71087C27.1274 1.71087 27.2361 1.75098 27.3449 1.79109C27.2905 1.83121 27.2905 1.87132 27.2361 1.91143C27.1818 1.95154 27.0731 1.95154 26.9643 1.99165ZM25.0072 2.99443L24.9529 2.91421L25.0072 2.99443ZM24.4092 3.03455C24.4092 3.03455 24.4636 2.99443 24.518 2.99443C24.6267 2.99443 24.7898 2.99443 24.9529 2.99443C24.7898 3.07466 24.6811 3.11477 24.5723 3.15488C24.518 3.19499 24.4636 3.07466 24.4092 3.03455ZM24.6267 1.91143C24.5723 1.83121 24.518 1.79109 24.518 1.71087C24.5723 1.71087 24.6267 1.71087 24.6267 1.71087C24.6811 1.75098 24.7354 1.83121 24.7354 1.91143L24.6267 1.91143ZM23.0501 3.11477C22.9958 3.07466 22.9958 3.07466 22.9414 3.03455C22.9958 2.99443 23.1045 2.95432 23.1589 2.91421C23.2132 2.91421 23.2132 2.99443 23.2676 2.99443C23.1589 3.03455 23.1045 3.07466 23.0501 3.11477ZM20.4407 2.59332C20.4951 2.63343 20.4951 2.63343 20.5494 2.67354C20.5494 2.71365 20.5494 2.75377 20.4951 2.79388C20.4951 2.8741 20.4407 2.91421 20.3863 2.99443C20.3863 2.91421 20.332 2.83399 20.332 2.79388C20.332 2.71365 20.3863 2.67354 20.4407 2.59332ZM20.3863 2.99443L20.4951 2.95432L20.3863 2.99443ZM18.8098 2.59332C18.8642 2.5131 18.8642 2.39276 19.0816 2.39276C19.0816 2.43287 19.0816 2.5131 19.0816 2.5131C18.9729 2.55321 18.9185 2.55321 18.8098 2.59332ZM18.7554 2.63343C18.7554 3.03455 18.6467 3.11477 18.2662 3.39555L18.1574 3.35544C17.9943 3.15488 18.0487 2.91421 18.3205 2.75377C18.4292 2.67354 18.5923 2.67354 18.7554 2.63343ZM17.0702 1.87132C17.2332 1.79109 17.3963 1.71087 17.5594 1.63065C17.6138 1.63065 17.7769 1.71087 17.7769 1.79109C17.7769 1.99165 17.5051 2.19221 17.2332 2.11198C17.1789 2.11198 17.1245 1.99165 17.0702 1.87132ZM14.2433 1.30976C14.4063 1.30976 14.6238 1.30976 14.6782 1.38998C15.0043 1.79109 15.2218 2.19221 15.548 2.63343C15.8742 2.71365 16.2003 2.79388 16.3091 3.07466C16.3634 3.15488 16.3634 3.27521 16.3091 3.31532C16.2547 3.35544 16.0373 3.39555 15.9829 3.35544C15.7111 3.19499 15.4393 3.03455 15.1674 2.8741C15.0043 2.83399 14.7325 2.79388 14.7325 2.75377C14.5694 2.35265 14.2433 2.19221 13.6996 2.11198C13.3734 2.07187 13.3734 1.95154 13.6453 1.75098C13.8083 1.63065 14.0258 1.4702 14.2433 1.30976L14.1889 1.30976L14.2433 1.30976ZM12.1774 2.27243C12.2318 2.35265 12.2862 2.43287 12.3405 2.5131L12.3405 2.39276L12.3949 2.47299C12.2862 2.59332 12.2318 2.71365 12.1774 2.83399L12.1774 2.27243ZM12.1774 2.91421L12.2318 2.91421L12.1774 2.91421ZM11.3076 2.23232L12.1231 2.23232L11.3076 2.23232ZM10.0573 2.71365C10.0029 2.71365 9.94853 2.67354 9.94853 2.67354C9.89417 2.5131 9.8398 2.35265 9.8398 2.19221C9.8398 2.07187 10.3834 1.99165 10.6009 2.07187C10.6553 2.07187 10.6553 2.11198 10.6553 2.1521C10.7096 2.39276 10.3834 2.67354 10.0573 2.71365ZM6.57799 1.51031L6.63235 1.51031C6.95853 1.59054 7.28472 1.67076 7.55653 1.79109C7.66526 1.8312 7.6109 1.99165 7.6109 2.11198C7.50217 2.11198 7.39344 2.11198 7.28472 2.11198C6.95853 1.99165 6.74108 1.79109 6.68672 1.51031L6.57799 1.51031ZM5.87126 3.15488C5.87126 3.19499 5.92563 3.2351 5.87126 3.27521C5.76253 3.35544 5.65381 3.31532 5.65381 3.19499C5.65381 3.19499 5.70817 3.11477 5.76253 3.11477C5.76253 3.11477 5.8169 3.11477 5.87126 3.15488ZM4.186 2.55321L4.186 2.63343L4.07727 2.63343L4.186 2.55321Z" fill="white"/>
<path d="M29.1058 14.9738C30.4649 14.9738 31.7696 14.9337 33.0744 14.9738C34.4878 15.0139 35.8469 14.8535 37.206 14.9738C37.3691 14.9738 37.5865 14.9337 37.7496 14.9337C38.5651 14.8134 38.9456 14.4524 39 13.8106C39 12.9682 39 12.1259 39 11.2836C39 10.5616 38.8913 10.4011 37.804 10.1604C37.5322 10.1203 37.2604 10.0401 36.9342 10.0401C35.1946 10.1203 33.4549 9.91978 31.7153 10.2407C31.3891 10.3209 30.8998 10.2407 30.5193 10.1604C29.432 10 28.3447 10 27.3118 10.2006C26.1702 10.4011 25.0286 10.4011 23.8869 10.2407C22.7453 10.0802 21.6037 10.0802 20.462 10.0401C18.0157 10.0401 15.5693 10.0401 13.0686 10.0401C12.4706 10.0401 11.8726 10.1203 11.3289 10.2407C10.7309 10.3209 10.1329 10.361 9.53495 10.2407C9.1544 10.1203 8.7195 10.0802 8.28459 10.0802C6.3275 10.0401 4.31605 10 2.35896 10C1.97841 10 0.456234 10 0.456234 10.4813C0.347509 11.1231 0.293146 11.805 0.0213282 12.4468C-0.0330379 12.5671 0.0213282 12.8078 0.130054 12.9281C0.401871 13.3694 0.347509 13.8106 0.23878 14.2518C0.184417 14.693 0.456234 14.9337 0.999869 14.9738C1.48914 14.9738 1.97841 14.9738 2.46769 14.9738C6.97986 14.9738 11.492 14.9738 16.0042 14.9738C16.874 14.9738 17.7982 15.054 18.668 14.9337C19.6466 14.7732 20.5708 15.0139 21.5493 14.9738C24.05 14.9738 26.6051 14.9738 29.1058 14.9738ZM5.7295 12.4869C5.67514 12.527 5.62077 12.527 5.62077 12.527C5.51205 12.4468 5.40332 12.3666 5.34896 12.2462L5.45768 12.2061C5.51205 12.2863 5.62077 12.3265 5.67514 12.3666C5.7295 12.4067 5.7295 12.4468 5.7295 12.4869ZM7.14295 12.4067C7.19732 12.2462 7.19732 12.0457 7.25168 11.8852C7.25168 11.8451 7.41477 11.7649 7.46913 11.7649C7.57786 11.805 7.74095 11.8852 7.74095 11.9253C7.68659 12.0858 7.68659 12.2863 7.57786 12.4067C7.5235 12.527 7.46913 12.6875 7.25168 12.6072C7.19732 12.6072 7.14295 12.4869 7.14295 12.4067ZM9.53495 12.6875C9.48059 12.7677 9.48059 12.888 9.37186 12.888C9.15441 12.9682 8.93695 12.9281 8.82822 12.7276C8.82822 12.6473 8.93695 12.4869 9.04568 12.4869C9.3175 12.4067 9.48059 12.527 9.53495 12.6875ZM10.4048 12.9281L10.296 12.9682L10.2417 12.9682L10.4048 12.9281ZM11.6008 11.6045C11.8726 11.6446 11.9813 11.805 11.9269 12.0056C11.9269 12.0858 11.8182 12.166 11.7639 12.2061C11.6551 12.2061 11.5464 12.166 11.4377 12.0858C11.2746 11.9655 11.2746 11.805 11.4377 11.6446C11.492 11.6045 11.5464 11.5643 11.6008 11.6045ZM12.0357 13.0083C12.09 13.0083 12.1444 13.0083 12.1988 13.0485C12.09 13.1287 12.0357 13.2089 11.8726 13.2891C11.8726 13.2891 11.7639 13.249 11.6551 13.2089C11.7095 13.1688 11.7095 13.1287 11.7639 13.0886C11.8182 13.0485 11.9269 13.0485 12.0357 13.0083ZM13.9928 12.0056L14.0471 12.0858L13.9928 12.0056ZM14.5908 11.9655C14.5908 11.9655 14.5364 12.0056 14.482 12.0056C14.3733 12.0056 14.2102 12.0056 14.0471 12.0056C14.2102 11.9253 14.3189 11.8852 14.4277 11.8451C14.482 11.805 14.5364 11.9253 14.5908 11.9655ZM14.3733 13.0886C14.4277 13.1688 14.482 13.2089 14.482 13.2891C14.4277 13.2891 14.3733 13.2891 14.3733 13.2891C14.3189 13.249 14.2646 13.1688 14.2646 13.0886L14.3733 13.0886ZM15.9499 11.8852C16.0042 11.9253 16.0042 11.9253 16.0586 11.9655C16.0042 12.0056 15.8955 12.0457 15.8411 12.0858C15.7868 12.0858 15.7868 12.0056 15.7324 12.0056C15.8411 11.9655 15.8955 11.9253 15.9499 11.8852ZM18.5593 12.4067C18.5049 12.3666 18.5049 12.3666 18.4506 12.3265C18.4506 12.2863 18.4506 12.2462 18.5049 12.2061C18.5049 12.1259 18.5593 12.0858 18.6137 12.0056C18.6137 12.0858 18.668 12.166 18.668 12.2061C18.668 12.2863 18.6137 12.3265 18.5593 12.4067ZM18.6137 12.0056L18.5049 12.0457L18.6137 12.0056ZM20.1902 12.4067C20.1358 12.4869 20.1358 12.6072 19.9184 12.6072C19.9184 12.5671 19.9184 12.4869 19.9184 12.4869C20.0271 12.4468 20.0815 12.4468 20.1902 12.4067ZM20.2446 12.3666C20.2446 11.9655 20.3533 11.8852 20.7338 11.6045L20.8426 11.6446C21.0057 11.8451 20.9513 12.0858 20.6795 12.2462C20.5708 12.3265 20.4077 12.3265 20.2446 12.3666ZM21.9298 13.1287C21.7668 13.2089 21.6037 13.2891 21.4406 13.3694C21.3862 13.3694 21.2231 13.2891 21.2231 13.2089C21.2231 13.0083 21.4949 12.8078 21.7668 12.888C21.8211 12.888 21.8755 13.0083 21.9298 13.1287ZM24.7567 13.6902C24.5937 13.6902 24.3762 13.6902 24.3218 13.61C23.9957 13.2089 23.7782 12.8078 23.452 12.3666C23.1258 12.2863 22.7997 12.2061 22.6909 11.9253C22.6366 11.8451 22.6366 11.7248 22.6909 11.6847C22.7453 11.6446 22.9627 11.6045 23.0171 11.6446C23.2889 11.805 23.5607 11.9655 23.8326 12.1259C23.9957 12.166 24.2675 12.2061 24.2675 12.2462C24.4306 12.6473 24.7567 12.8078 25.3004 12.888C25.6266 12.9281 25.6266 13.0485 25.3547 13.249C25.1917 13.3694 24.9742 13.5298 24.7567 13.6902L24.8111 13.6902L24.7567 13.6902ZM26.8226 12.7276C26.7682 12.6473 26.7138 12.5671 26.6595 12.4869L26.6595 12.6072L26.6051 12.527C26.7138 12.4067 26.7682 12.2863 26.8226 12.166L26.8226 12.7276ZM26.8226 12.0858L26.7682 12.0858L26.8226 12.0858ZM27.6924 12.7677L26.8769 12.7677L27.6924 12.7677ZM28.9427 12.2863C28.9971 12.2863 29.0515 12.3265 29.0515 12.3265C29.1058 12.4869 29.1602 12.6473 29.1602 12.8078C29.1602 12.9281 28.6166 13.0083 28.3991 12.9281C28.3447 12.9281 28.3447 12.888 28.3447 12.8479C28.2904 12.6072 28.6166 12.3265 28.9427 12.2863ZM32.422 13.4897L32.3676 13.4897C32.0415 13.4095 31.7153 13.3292 31.4435 13.2089C31.3347 13.1688 31.3891 13.0083 31.3891 12.888C31.4978 12.888 31.6066 12.888 31.7153 12.888C32.0415 13.0083 32.2589 13.2089 32.3133 13.4897L32.422 13.4897ZM33.1287 11.8451C33.1287 11.805 33.0744 11.7649 33.1287 11.7248C33.2375 11.6446 33.3462 11.6847 33.3462 11.805C33.3462 11.805 33.2918 11.8852 33.2375 11.8852C33.2375 11.8852 33.1831 11.8852 33.1287 11.8451ZM34.814 12.4468L34.814 12.3666L34.9227 12.3666L34.814 12.4468Z" fill="white"/>
<path d="M9.89417 19.0314C8.53508 19.0314 7.23035 19.0796 5.92563 19.0314C4.51217 18.9833 3.15309 19.1758 1.794 19.0314C1.63091 19.0314 1.41345 19.0796 1.25036 19.0796C0.434906 19.224 0.0543632 19.6572 -7.47499e-08 20.4273C-1.27687e-07 21.4381 -1.80624e-07 22.4489 -2.33561e-07 23.4597C-2.78936e-07 24.3261 0.108726 24.5187 1.196 24.8075C1.46782 24.8556 1.73963 24.9519 2.06581 24.9519C3.80545 24.8556 5.54508 25.0963 7.28472 24.7112C7.6109 24.6149 8.10017 24.7112 8.48071 24.8075C9.56799 25 10.6553 25 11.6882 24.7593C12.8298 24.5187 13.9714 24.5187 15.1131 24.7112C16.2547 24.9037 17.3963 24.9037 18.538 24.9519C20.9843 24.9519 23.4307 24.9519 25.9314 24.9519C26.5294 24.9519 27.1274 24.8556 27.6711 24.7112C28.2691 24.6149 28.8671 24.5668 29.4651 24.7112C29.8456 24.8556 30.2805 24.9037 30.7154 24.9037C32.6725 24.9519 34.684 25 36.641 25C37.0216 25 38.5438 25 38.5438 24.4224C38.6525 23.6523 38.7069 22.834 38.9787 22.0639C39.033 21.9195 38.9787 21.6306 38.8699 21.4862C38.5981 20.9568 38.6525 20.4273 38.7612 19.8978C38.8156 19.3684 38.5438 19.0796 38.0001 19.0314C37.5109 19.0314 37.0216 19.0314 36.5323 19.0314C32.0201 19.0314 27.508 19.0314 22.9958 19.0314C22.126 19.0314 21.2018 18.9352 20.332 19.0796C19.3534 19.2721 18.4292 18.9833 17.4507 19.0314C14.95 19.0314 12.3949 19.0314 9.89417 19.0314ZM33.2705 22.0157C33.3249 21.9676 33.3792 21.9676 33.3792 21.9676C33.488 22.0639 33.5967 22.1601 33.651 22.3045L33.5423 22.3527C33.488 22.2564 33.3792 22.2083 33.3249 22.1601C33.2705 22.112 33.2705 22.0639 33.2705 22.0157ZM31.857 22.112C31.8027 22.3045 31.8027 22.5452 31.7483 22.7377C31.7483 22.7859 31.5852 22.8821 31.5309 22.8821C31.4221 22.834 31.259 22.7377 31.259 22.6896C31.3134 22.4971 31.3134 22.2564 31.4221 22.112C31.4765 21.9676 31.5309 21.775 31.7483 21.8713C31.8027 21.8713 31.857 22.0157 31.857 22.112ZM29.4651 21.775C29.5194 21.6788 29.5194 21.5344 29.6281 21.5344C29.8456 21.4381 30.063 21.4862 30.1718 21.7269C30.1718 21.8232 30.063 22.0157 29.9543 22.0157C29.6825 22.112 29.5194 21.9676 29.4651 21.775ZM28.5952 21.4862L28.704 21.4381L28.7583 21.4381L28.5952 21.4862ZM27.3992 23.0747C27.1274 23.0265 27.0187 22.834 27.0731 22.5933C27.0731 22.4971 27.1818 22.4008 27.2361 22.3527C27.3449 22.3527 27.4536 22.4008 27.5623 22.4971C27.7254 22.6415 27.7254 22.834 27.5623 23.0265C27.508 23.0747 27.4536 23.1228 27.3992 23.0747ZM26.9643 21.39C26.91 21.39 26.8556 21.39 26.8012 21.3418C26.91 21.2456 26.9643 21.1493 27.1274 21.053C27.1274 21.053 27.2361 21.1012 27.3449 21.1493C27.2905 21.1974 27.2905 21.2456 27.2361 21.2937C27.1818 21.3418 27.0731 21.3418 26.9643 21.39ZM25.0072 22.5933L24.9529 22.4971L25.0072 22.5933ZM24.4092 22.6415C24.4092 22.6415 24.4636 22.5933 24.518 22.5933C24.6267 22.5933 24.7898 22.5933 24.9529 22.5933C24.7898 22.6896 24.6811 22.7377 24.5723 22.7859C24.518 22.834 24.4636 22.6896 24.4092 22.6415ZM24.6267 21.2937C24.5723 21.1974 24.518 21.1493 24.518 21.053C24.5723 21.053 24.6267 21.053 24.6267 21.053C24.6811 21.1012 24.7354 21.1974 24.7354 21.2937L24.6267 21.2937ZM23.0501 22.7377C22.9958 22.6896 22.9958 22.6896 22.9414 22.6415C22.9958 22.5933 23.1045 22.5452 23.1589 22.4971C23.2132 22.4971 23.2132 22.5933 23.2676 22.5933C23.1589 22.6415 23.1045 22.6896 23.0501 22.7377ZM20.4407 22.112C20.4951 22.1601 20.4951 22.1601 20.5494 22.2083C20.5494 22.2564 20.5494 22.3045 20.4951 22.3527C20.4951 22.4489 20.4407 22.4971 20.3863 22.5933C20.3863 22.4971 20.332 22.4008 20.332 22.3527C20.332 22.2564 20.3863 22.2083 20.4407 22.112ZM20.3863 22.5933L20.4951 22.5452L20.3863 22.5933ZM18.8098 22.112C18.8642 22.0157 18.8642 21.8713 19.0816 21.8713C19.0816 21.9195 19.0816 22.0157 19.0816 22.0157C18.9729 22.0639 18.9185 22.0639 18.8098 22.112ZM18.7554 22.1601C18.7554 22.6415 18.6467 22.7377 18.2662 23.0747L18.1574 23.0265C17.9943 22.7859 18.0487 22.4971 18.3205 22.3045C18.4292 22.2083 18.5923 22.2083 18.7554 22.1601ZM17.0702 21.2456C17.2332 21.1493 17.3963 21.053 17.5594 20.9568C17.6138 20.9568 17.7769 21.053 17.7769 21.1493C17.7769 21.39 17.5051 21.6306 17.2332 21.5344C17.1789 21.5344 17.1245 21.39 17.0702 21.2456ZM14.2433 20.5717C14.4063 20.5717 14.6238 20.5717 14.6782 20.668C15.0043 21.1493 15.2218 21.6306 15.548 22.1601C15.8742 22.2564 16.2003 22.3527 16.3091 22.6896C16.3634 22.7859 16.3634 22.9303 16.3091 22.9784C16.2547 23.0265 16.0373 23.0747 15.9829 23.0265C15.7111 22.834 15.4393 22.6415 15.1674 22.4489C15.0043 22.4008 14.7325 22.3527 14.7325 22.3045C14.5694 21.8232 14.2433 21.6306 13.6996 21.5344C13.3734 21.4862 13.3734 21.3418 13.6453 21.1012C13.8083 20.9568 14.0258 20.7642 14.2433 20.5717L14.1889 20.5717L14.2433 20.5717ZM12.1774 21.7269C12.2318 21.8232 12.2862 21.9194 12.3405 22.0157L12.3405 21.8713L12.3949 21.9676C12.2862 22.112 12.2318 22.2564 12.1774 22.4008L12.1774 21.7269ZM12.1774 22.4971L12.2318 22.4971L12.1774 22.4971ZM11.3076 21.6788L12.1231 21.6788L11.3076 21.6788ZM10.0573 22.2564C10.0029 22.2564 9.94853 22.2083 9.94853 22.2083C9.89417 22.0157 9.8398 21.8232 9.8398 21.6306C9.8398 21.4862 10.3834 21.39 10.6009 21.4862C10.6553 21.4862 10.6553 21.5344 10.6553 21.5825C10.7096 21.8713 10.3834 22.2083 10.0573 22.2564ZM6.57799 20.8124L6.63235 20.8124C6.95853 20.9086 7.28472 21.0049 7.55653 21.1493C7.66526 21.1974 7.6109 21.39 7.6109 21.5344C7.50217 21.5344 7.39344 21.5344 7.28472 21.5344C6.95853 21.39 6.74108 21.1493 6.68672 20.8124L6.57799 20.8124ZM5.87126 22.7859C5.87126 22.834 5.92563 22.8821 5.87126 22.9303C5.76253 23.0265 5.65381 22.9784 5.65381 22.834C5.65381 22.834 5.70817 22.7377 5.76253 22.7377C5.76253 22.7377 5.8169 22.7377 5.87126 22.7859ZM4.186 22.0639L4.186 22.1601L4.07727 22.1601L4.186 22.0639Z" fill="white"/>
</svg>
