<svg width="130" height="37" viewBox="0 0 130 37" fill="none" xmlns="http://www.w3.org/2000/svg">
<path d="M20.082 10.983C20.27 9.573 20.129 8.304 19.424 7.129C19.33 6.988 19.283 6.847 19.283 6.706C18.625 3.886 15.946 2.147 13.455 1.066C11.998 0.454999 10.541 0.643 9.037 0.689999C5.089 1.865 3.538 3.463 1.893 7.035C1.423 7.928 1.188 8.868 1.047 9.855C0.718 11.594 0.859 13.333 0.765 15.072C0.718 15.354 0.812 15.636 0.906 15.871C1.094 16.435 1.094 16.952 0.906 17.516C0.718 17.986 0.718 18.456 0.906 18.926C1.047 19.208 1.047 19.49 0.906 19.819C0.624 20.336 0.671 20.9 0.812 21.464C1.094 22.404 1.094 23.297 1.141 24.237C1.141 30.018 3.021 33.308 8.191 35.564C8.473 35.705 8.755 35.799 9.037 35.846C10.165 35.846 11.246 35.846 12.327 35.799C12.562 35.799 12.844 35.705 13.079 35.611C15.429 34.718 17.403 33.402 18.719 31.24C18.813 31.099 18.86 30.911 19.001 30.817C19.377 30.394 19.565 29.83 19.706 29.313C19.894 28.561 19.988 27.762 20.223 27.01C20.411 26.352 20.458 25.694 20.458 25.036C20.458 21.934 20.458 18.785 20.458 15.683C20.458 14.79 20.317 13.944 20.27 13.051L20.082 10.983ZM15.194 3.98C15.1 3.839 15.006 3.698 14.912 3.557H14.865H14.959C15.053 3.698 15.147 3.839 15.194 3.98ZM11.528 3.839C11.434 3.886 11.387 3.933 11.34 3.98C11.34 3.933 11.246 3.886 11.293 3.886C11.293 3.792 11.387 3.745 11.434 3.698C11.434 3.745 11.481 3.792 11.528 3.839ZM6.217 4.168L6.17 4.027L6.311 4.215L6.217 4.168ZM7.204 6.048C7.157 6.095 7.157 6.142 7.11 6.142C7.063 6.142 7.016 6.142 7.016 6.095C7.016 6.048 7.063 6.001 7.063 6.001C7.11 6.001 7.157 6.048 7.204 6.048ZM15.805 6.424C15.664 6.33 15.57 6.33 15.523 6.236C15.476 6.236 15.57 6.048 15.617 6.048C15.758 6.001 15.899 6.001 16.04 6.001C16.04 6.001 16.087 6.142 16.04 6.142C15.993 6.236 15.852 6.33 15.805 6.424ZM6.17 18.926C6.17 17.892 6.123 16.858 6.17 15.824C6.217 14.884 6.311 13.991 6.358 13.051C6.405 12.346 6.499 11.594 6.499 10.889C6.499 8.68 7.439 7.74 9.084 6.565C9.601 6.189 10.118 6.048 10.635 6.048C11.105 6.048 11.575 6.189 12.092 6.518C12.233 6.659 12.421 6.753 12.609 6.894C14.066 7.834 14.818 9.15 14.724 10.936C14.724 12.111 14.677 13.333 15.006 14.508C15.1 14.79 15.053 15.119 15.053 15.401C15.053 17.892 15.053 20.383 15.053 22.874C15.053 25.224 14.536 27.95 12.75 29.595C12.092 30.206 11.434 30.488 10.682 30.488C9.272 30.488 7.768 29.501 7.251 28.232C6.875 27.339 6.358 26.446 6.452 25.412C6.17 24.754 6.076 24.049 6.076 23.297C6.076 22.733 6.123 22.169 6.123 21.605C6.123 20.712 6.123 19.819 6.123 18.926H6.17ZM5.7 6.236C5.747 6.33 5.794 6.377 5.794 6.471C5.794 6.518 5.747 6.565 5.7 6.612C5.7 6.471 5.7 6.377 5.7 6.236ZM16.463 7.082L16.416 6.988L16.463 7.082ZM4.525 8.163L4.619 8.304L4.525 8.21C4.619 8.022 4.666 7.834 4.807 7.646C4.807 7.599 4.948 7.599 5.042 7.599C5.042 7.599 5.136 7.693 5.089 7.693C5.089 7.881 5.042 8.069 4.995 8.257L4.525 8.163ZM5.136 8.539C4.995 8.539 4.995 8.445 5.042 8.351C5.042 8.398 5.089 8.445 5.136 8.539ZM17.215 9.808C17.168 9.902 17.121 10.043 17.074 10.043C16.933 10.043 16.745 10.043 16.698 9.949C16.557 9.855 16.463 9.667 16.416 9.479C16.369 9.432 16.463 9.244 16.51 9.244C16.745 9.197 17.121 9.432 17.215 9.667C17.215 9.714 17.215 9.761 17.215 9.808ZM18.296 9.526L18.202 9.62V9.479L18.296 9.526ZM4.149 13.991C4.055 13.897 3.867 13.803 3.82 13.662C3.726 13.568 3.82 13.38 3.867 13.286C3.867 13.239 4.055 13.286 4.102 13.333C4.243 13.38 4.337 13.474 4.478 13.521C4.243 12.675 4.055 11.782 3.726 10.983C3.679 10.889 3.726 10.701 3.773 10.56H3.726V10.513C3.585 10.466 3.444 10.466 3.35 10.419C3.303 10.372 3.303 10.231 3.303 10.137C3.303 10.137 3.35 10.043 3.397 10.043C3.491 10.09 3.585 10.09 3.632 10.137C3.679 10.278 3.679 10.419 3.773 10.56C4.149 10.607 4.525 10.607 4.807 10.231H4.76H4.807C4.995 10.56 5.183 10.842 5.089 11.218H5.23L5.136 11.265C5.042 11.218 4.948 11.218 4.854 11.218C4.525 11.265 4.384 11.406 4.525 11.594C5.089 12.252 4.854 12.863 4.478 13.521L4.149 13.991ZM17.027 11.406C17.074 11.359 17.121 11.359 17.168 11.359C17.591 11.594 17.826 11.97 18.061 12.346C18.061 12.346 18.014 12.393 17.967 12.44C17.967 12.44 17.873 12.487 17.826 12.44C17.544 12.299 17.215 12.111 16.933 11.923C16.792 11.829 16.886 11.453 17.027 11.406ZM2.645 11.594L2.551 11.641V11.5L2.645 11.594ZM3.209 12.675C3.209 12.769 3.209 12.816 3.209 12.91C3.209 12.957 3.115 12.957 3.068 12.957C3.068 12.863 3.068 12.769 3.068 12.722C3.068 12.675 3.162 12.675 3.209 12.675ZM18.155 13.521C18.061 13.568 18.014 13.568 18.014 13.568C18.014 13.521 17.967 13.521 17.967 13.474L18.155 13.521ZM3.115 14.32C3.162 14.367 3.256 14.461 3.303 14.508C3.162 14.602 3.021 14.743 2.88 14.837C2.833 14.743 2.739 14.696 2.739 14.602C2.739 14.367 2.88 14.273 3.115 14.32ZM18.484 15.119C18.484 14.884 18.484 14.649 18.484 14.414C18.484 14.649 18.484 14.884 18.484 15.119C18.202 15.495 17.873 15.777 17.309 15.589C17.262 15.542 17.215 15.542 17.168 15.495C17.074 15.401 17.121 15.307 17.262 15.307C17.685 15.213 18.061 15.025 18.484 15.119ZM3.773 15.495V15.401L3.867 15.448L3.773 15.495ZM3.256 17.469L3.303 17.375C3.35 17.422 3.444 17.422 3.491 17.469C3.491 17.516 3.444 17.563 3.397 17.563C3.35 17.563 3.303 17.516 3.256 17.469ZM4.525 18.362L4.478 18.268H4.572L4.525 18.362ZM17.544 19.067C17.544 18.973 17.591 18.926 17.591 18.832L17.544 19.067ZM17.591 19.067C17.638 19.02 17.638 19.02 17.685 19.02C17.685 19.02 17.732 19.02 17.779 19.02C17.732 19.02 17.685 19.02 17.591 19.067ZM3.914 20.195L3.867 20.242V20.195H4.008H3.914ZM3.397 21.417C3.35 21.417 3.303 21.37 3.256 21.37C3.209 21.276 3.209 21.229 3.162 21.182C3.209 21.182 3.303 21.182 3.35 21.229C3.444 21.276 3.444 21.37 3.491 21.417C3.491 21.417 3.444 21.464 3.397 21.417ZM18.296 22.357C18.296 22.31 18.296 22.263 18.296 22.216C18.343 22.216 18.39 22.169 18.39 22.122C18.484 22.122 18.531 22.075 18.625 22.075C18.578 22.122 18.578 22.216 18.531 22.263C18.484 22.31 18.39 22.31 18.296 22.357ZM16.933 22.31C17.027 22.216 17.074 22.169 17.121 22.075C17.121 22.122 17.121 22.216 17.121 22.216C17.074 22.263 17.027 22.263 16.933 22.31ZM17.779 25.835C17.779 25.929 17.826 26.023 17.779 26.07C17.685 26.164 17.544 26.164 17.403 26.211C17.356 26.211 17.262 26.023 17.309 25.976C17.309 25.929 17.403 25.835 17.497 25.835C17.591 25.788 17.685 25.788 17.779 25.835ZM15.946 27.339C15.993 27.151 16.087 26.822 16.181 26.54C16.228 26.446 16.322 26.399 16.416 26.352C16.463 26.446 16.557 26.54 16.557 26.587C16.463 27.057 16.322 27.48 16.416 27.95C16.51 28.279 16.651 28.373 16.933 28.373C17.027 28.373 17.074 28.467 17.121 28.561C17.121 28.561 17.074 28.655 17.027 28.655C16.839 28.702 16.651 28.796 16.463 28.843C16.322 28.843 16.134 28.749 16.087 28.655C16.04 28.232 15.993 27.856 15.946 27.339ZM15.946 31.052C15.852 31.052 15.852 31.005 15.805 31.005C15.805 31.005 15.758 31.005 15.711 31.052C15.758 31.052 15.805 31.052 15.899 31.052V31.099C15.523 31.287 15.147 31.334 14.771 31.099C14.771 31.052 14.724 31.052 14.724 31.052C14.865 30.864 14.959 30.676 15.053 30.535C15.241 30.253 15.382 30.206 15.711 30.347C15.852 30.394 15.946 30.441 16.087 30.535C16.416 30.77 16.134 30.864 16.04 31.005C15.993 31.052 15.946 31.052 15.899 31.099L15.946 31.052ZM14.207 31.804C14.207 31.804 14.207 31.804 14.207 31.757L14.254 31.71L14.207 31.804ZM13.361 31.898C13.314 31.898 13.22 31.898 13.22 31.851C13.22 31.804 13.267 31.757 13.267 31.71C13.314 31.757 13.361 31.757 13.408 31.757C13.408 31.804 13.361 31.851 13.361 31.898ZM14.254 31.851C14.254 31.851 14.254 31.851 14.207 31.804C14.348 31.757 14.348 31.804 14.254 31.851ZM7.815 32.603C7.768 32.556 7.768 32.509 7.721 32.462C7.768 32.462 7.815 32.415 7.862 32.462C7.909 32.462 7.909 32.509 7.956 32.556C7.909 32.556 7.862 32.556 7.815 32.603ZM11.434 33.167L11.387 33.214L11.34 33.12L11.434 33.167ZM4.196 13.991L4.243 14.038L4.196 13.991ZM36.0635 27.762L36.0165 27.715C35.8285 27.527 35.5935 27.48 35.3585 27.527C35.0765 27.527 34.7475 27.621 34.4655 27.621C34.4185 27.621 34.2775 27.386 34.2775 27.292C34.3245 27.198 34.4655 26.963 34.5595 26.963C35.0765 26.963 36.9095 27.057 36.9095 27.856H36.9565V27.903L36.9095 27.856L36.0165 27.715C36.0165 27.715 36.0635 27.715 36.0635 27.762ZM35.1235 29.971L35.1705 29.924L35.1235 29.971C35.4525 30.112 35.7345 30.3 36.1105 30.112C36.3925 29.971 36.4395 30.018 36.4395 30.3C36.3925 30.77 36.2045 31.099 35.7345 31.146L35.7815 31.193L35.1235 30.864L35.1705 30.911L34.8415 30.253L34.7945 30.3V30.253H34.8415L35.1235 29.971ZM36.9565 27.903C37.1445 27.621 37.4265 27.339 37.8025 27.292C37.8965 27.245 38.0845 27.386 38.1785 27.48C38.2255 27.527 38.1785 27.668 38.1785 27.762C38.0845 27.856 37.9905 28.044 37.8495 28.091C37.7085 28.185 37.4735 28.326 37.3325 28.279C37.1915 28.232 37.0975 27.997 36.9565 27.856V27.903ZM36.0165 27.715C36.0635 28.044 36.1575 28.373 36.2045 28.702C36.2515 29.078 36.2515 29.078 35.6875 29.219V29.266C35.7815 29.031 35.7345 28.796 35.6405 28.561C35.4525 28.138 35.6875 27.903 36.0635 27.762L36.0165 27.715ZM33.8545 29.36C33.9015 29.219 33.9015 29.078 33.9485 28.937C34.0425 28.843 34.1835 28.796 34.3245 28.702C34.3245 28.702 34.4185 28.843 34.4655 28.937C34.4655 29.078 34.4655 29.219 34.4655 29.36L34.5125 29.313C34.2775 29.313 34.0895 29.313 33.8545 29.313V29.36ZM36.1105 25.835C35.9225 25.976 35.7345 26.117 35.5465 26.305L35.5935 26.258C35.5465 26.164 35.4995 26.07 35.5465 25.976C35.5465 25.882 35.6405 25.694 35.7345 25.694C35.8285 25.647 35.9695 25.788 36.0635 25.882L36.1105 25.835ZM36.0635 25.882C36.1575 25.929 36.2045 25.976 36.2985 26.023C36.2985 26.023 36.2985 26.117 36.2985 26.164C36.2515 26.117 36.1105 26.117 36.1105 26.117C36.0635 26.023 36.1105 25.929 36.1105 25.835L36.0635 25.882ZM38.6015 28.749C38.5545 28.796 38.5075 28.843 38.4135 28.89C38.4135 28.89 38.3665 28.843 38.3195 28.843C38.4605 28.843 38.5545 28.796 38.6485 28.796L38.6015 28.749ZM35.4995 26.258H35.5935H35.4995ZM35.6875 29.219C35.6875 29.219 35.6875 29.266 35.6405 29.313L35.6875 29.266V29.219ZM35.7815 31.193C35.7815 31.287 35.8285 31.381 35.8285 31.428C35.8285 31.475 35.7815 31.475 35.6875 31.569C35.6875 31.428 35.7345 31.287 35.7345 31.146L35.7815 31.193ZM25.3945 13.051V11.453C25.4885 11.406 25.5825 11.406 25.6765 11.359C25.9115 11.312 26.0995 11.453 26.0995 11.641C26.1465 12.064 26.1465 12.44 26.1465 12.863C26.1465 13.192 25.9585 13.286 25.5355 13.098C25.4885 13.098 25.4415 13.051 25.3945 13.051ZM29.5305 14.884C29.3425 14.837 29.1075 14.837 28.9195 14.79C28.8725 14.79 28.8255 14.649 28.8255 14.555C28.7785 14.555 28.8725 14.461 28.8725 14.461C28.9665 14.414 29.1075 14.414 29.1545 14.461C29.2955 14.602 29.3895 14.743 29.4835 14.931L29.5305 14.884ZM27.9795 15.824C27.9325 15.871 27.9325 15.918 27.8855 15.965C27.8385 16.153 27.6975 16.294 27.4625 16.153C27.4155 16.059 27.3215 15.871 27.3685 15.777C27.4625 15.542 27.6505 15.495 27.8855 15.589C27.9325 15.589 27.9325 15.73 27.9795 15.824ZM28.8725 15.73C29.0605 15.918 29.1545 16.012 29.2485 16.106C29.1075 16.153 29.0605 16.294 28.9195 16.341C28.8725 16.341 28.6845 16.247 28.6845 16.153C28.7315 16.059 28.7785 15.918 28.8725 15.73ZM26.0055 19.584C26.1465 19.678 26.2875 19.678 26.4285 19.772C26.4755 19.819 26.5225 19.96 26.5225 20.007C26.5225 20.101 26.3815 20.148 26.3345 20.148C26.2405 20.148 26.1465 20.054 26.0995 20.007C26.0525 19.866 26.0525 19.725 26.0525 19.537L26.0055 19.584ZM26.7575 15.307C26.7105 15.354 26.6165 15.448 26.6165 15.448C26.5225 15.401 26.4755 15.354 26.4285 15.26C26.4285 15.213 26.5225 15.166 26.5695 15.119C26.6635 15.166 26.7105 15.26 26.7575 15.307ZM27.4625 11.265C27.5565 11.359 27.6975 11.406 27.6975 11.453C27.6975 11.547 27.6035 11.641 27.5565 11.688C27.4625 11.829 27.3685 11.782 27.3685 11.641C27.3685 11.5 27.4155 11.406 27.4625 11.265ZM29.1545 10.466C29.3895 10.701 29.5775 10.936 29.8125 11.171C29.3895 11.124 29.1545 10.889 29.1545 10.466ZM27.9325 19.255C27.8855 19.349 27.7915 19.443 27.7445 19.49C27.7445 19.49 27.6505 19.49 27.6035 19.443C27.7445 19.396 27.8385 19.349 27.9795 19.302L27.9325 19.255ZM27.1805 9.479L27.1335 9.385C27.1335 9.385 27.1805 9.338 27.2275 9.338C27.2275 9.338 27.2745 9.385 27.3215 9.432C27.2745 9.432 27.2275 9.432 27.1805 9.479ZM25.7705 16.529C25.7705 16.576 25.8175 16.623 25.7705 16.67C25.7705 16.67 25.7235 16.67 25.6765 16.67L25.6295 16.576C25.6765 16.576 25.7235 16.576 25.7705 16.529ZM30.1415 16.435C30.1415 16.576 30.1415 16.67 30.1415 16.811C29.9065 16.811 29.6715 16.811 29.4365 16.811C29.6715 16.67 29.9065 16.576 30.1415 16.435ZM29.4365 11.782H29.4835H29.4365ZM26.8985 12.769C26.8985 12.722 26.9455 12.722 26.9455 12.675C26.9455 12.675 26.9455 12.722 26.9455 12.769H26.8985ZM25.9115 15.871H26.0055H25.9115ZM28.0265 18.127L27.9325 18.08H28.0735L28.0265 18.127ZM43.4895 15.072L43.5365 15.025C44.1005 14.461 44.1945 13.756 44.1945 13.004C44.3825 12.957 44.6175 12.91 44.8055 12.863C44.9935 12.816 45.1815 13.051 45.0875 13.239C45.0405 13.333 44.9935 13.427 44.9465 13.521C44.7115 13.944 44.7115 13.944 45.0405 14.226C45.1345 14.32 45.2755 14.461 45.3695 14.555C45.3695 14.649 45.3695 14.743 45.3225 14.837C45.3225 14.884 45.2755 14.931 45.2285 14.931C44.3355 15.072 44.0065 15.777 43.7715 16.529C43.6775 16.717 43.3955 16.67 43.2545 16.482C43.7245 16.059 43.6775 15.589 43.5365 15.025L43.4895 15.072ZM43.8655 17.563C43.9125 17.563 43.9595 17.563 44.0065 17.563C43.9595 17.61 43.9595 17.704 43.9125 17.751C43.9125 17.798 43.8185 17.798 43.7715 17.798C43.8185 17.751 43.8185 17.657 43.8655 17.563ZM44.5705 18.362C44.4295 18.362 44.3355 18.362 44.1945 18.362C44.3355 18.362 44.4295 18.362 44.5705 18.362ZM44.1945 18.315V18.691V18.315ZM31.2225 17.61C31.2695 17.704 31.3165 17.798 31.3165 17.892C31.3635 17.939 31.3635 17.986 31.3165 18.033C31.2225 18.127 31.1285 18.08 31.1755 17.939C31.1755 17.845 31.2225 17.751 31.2695 17.657L31.2225 17.61ZM30.0945 16.764C30.2825 16.764 30.5175 16.764 30.7525 16.764C30.5175 16.999 30.3295 17.046 30.0945 16.764ZM45.4635 5.719C46.2155 5.766 46.4975 6.001 46.5915 6.706C46.5915 6.894 46.4505 7.176 46.2625 7.176C46.1215 7.129 45.8865 7.035 45.8865 6.941C45.8395 6.565 45.7455 6.283 45.3225 6.189C45.2755 6.189 45.2285 6.001 45.2755 5.907C45.2755 5.813 45.4165 5.766 45.4635 5.719ZM43.5365 15.025C43.3485 14.79 43.2075 14.508 43.0665 14.226C43.0665 14.179 43.1605 14.038 43.2075 14.038C43.2545 13.991 43.4425 14.085 43.4425 14.132C43.4895 14.461 43.4895 14.743 43.4895 15.072L43.5365 15.025ZM27.3215 8.022C27.1805 8.116 27.0865 8.21 26.9925 8.351L26.1465 8.163H26.1935C26.0995 8.069 26.0055 8.022 25.9585 7.928C25.6295 7.505 25.6295 7.505 26.0525 7.035C26.2875 7.599 26.7105 7.787 27.3215 7.693C27.3215 7.787 27.3215 7.881 27.3215 8.022ZM26.1465 8.163L26.0995 8.069L26.1935 8.163H26.1465ZM41.7505 19.302C41.6095 19.302 41.4685 19.302 41.3745 19.302C41.4685 19.302 41.6095 19.302 41.7505 19.302ZM47.7195 11.735L47.6255 11.782L47.6725 11.735H47.7195ZM50.1635 30.723C50.1635 21.511 50.1635 12.346 50.1635 3.134C50.1635 2.617 50.1635 2.1 50.1165 1.583C50.1165 1.348 49.9755 1.16 49.7405 1.16C48.1425 1.16 46.5915 1.16 45.0405 1.16C44.7585 1.16 44.5705 1.301 44.4295 1.583C44.2885 1.865 44.1475 2.1 44.0065 2.429C43.4425 4.074 42.8785 5.766 42.3145 7.458C41.0455 11.03 39.9645 14.696 38.6015 18.268C38.0845 19.631 37.6145 21.041 37.1445 22.404C37.0975 22.451 37.0975 22.498 37.0505 22.498C36.9095 22.639 36.7685 22.827 36.7215 23.062C36.6745 23.203 36.7215 23.344 36.6275 23.438C36.5805 23.532 36.4865 23.626 36.3925 23.626C36.2985 23.626 36.2515 23.626 36.2045 23.626C35.9695 23.532 35.8285 23.344 35.6875 23.109C35.3585 22.122 35.0295 21.135 34.6535 20.148C34.0895 18.503 33.4785 16.905 32.9145 15.26C31.6455 11.5 30.3765 7.646 29.1075 3.839C28.8725 3.134 28.5905 2.382 28.3555 1.63C28.2615 1.301 28.0265 1.113 27.6505 1.113C26.6165 1.113 25.5825 1.113 24.5485 1.113C24.0315 1.113 23.5145 1.16 22.9505 1.16C22.7625 1.16 22.5745 1.348 22.5745 1.536C22.5275 2.147 22.4805 2.711 22.4805 3.275C22.4805 9.573 22.4805 15.918 22.4805 22.216C22.4805 25.318 22.4805 28.373 22.4805 31.475C22.4805 32.462 22.5275 33.449 22.7625 34.436C22.8565 34.812 22.9975 34.953 23.3735 34.953C24.7365 35 26.0995 35 27.4625 35C28.2615 35 28.2145 34.812 28.3085 34.201C28.4025 33.543 28.5435 32.932 28.5435 32.321C28.5905 29.125 28.6845 25.929 28.2145 22.78C28.1675 22.169 28.2145 21.558 28.2145 20.9C28.2145 20.853 28.3555 20.712 28.4025 20.712C28.5435 20.759 28.7315 20.806 28.7785 20.9C28.8725 21.041 28.8725 21.229 28.9195 21.37L29.1075 22.075C29.3895 23.015 29.5775 23.955 29.8595 24.895C30.3765 26.446 30.9405 27.95 31.4575 29.501C31.9275 30.864 32.1625 32.321 32.8675 33.637C32.9615 33.731 32.9145 33.919 32.9615 34.06C33.1025 34.577 33.1965 34.671 33.7135 34.671C35.4525 34.671 37.1915 34.671 38.8835 34.671C39.0245 34.671 39.1185 34.671 39.2125 34.624C39.3535 34.53 39.4945 34.436 39.5415 34.342C39.6825 33.966 39.7765 33.543 39.9645 33.167C40.2935 32.415 40.5755 31.616 40.7635 30.817C40.8575 30.347 41.0455 29.924 41.1865 29.454C41.6095 28.326 42.0795 27.245 42.4085 26.07C42.8315 24.472 43.4425 22.921 44.0065 21.37C44.0065 21.323 44.0535 21.276 44.1005 21.276C44.1475 21.323 44.2885 21.37 44.2885 21.417C44.3355 22.498 44.3355 23.532 44.2885 24.566C44.2885 25.271 44.0065 26.023 44.0065 26.728C44.0535 27.433 44.2885 28.138 44.3825 28.89C44.4765 30.065 44.5235 31.287 44.3825 32.462C44.3355 32.885 44.3825 33.308 44.3355 33.731C44.2885 34.953 44.4295 35 45.5105 35C46.4975 35 47.4845 35 48.4715 35C48.8475 35 49.2235 35 49.5995 34.953C49.8345 34.906 50.0695 34.765 50.1165 34.436C50.1635 34.06 50.2105 33.637 50.2105 33.214C50.2105 32.368 50.1635 31.522 50.1635 30.723ZM48.4245 17.187L48.3305 17.14L48.4245 17.187ZM48.2365 12.205C48.2835 12.158 48.3305 12.158 48.3775 12.158C48.3775 12.158 48.3305 12.158 48.2365 12.205ZM47.8605 18.738C47.6255 18.597 47.1085 18.785 47.2965 18.174C47.1555 18.127 47.0145 18.08 46.8735 18.033C46.4505 18.033 46.4035 17.751 46.4505 17.422C46.5445 17.375 46.5915 17.375 46.6855 17.328C46.9675 17.281 47.1085 16.764 47.4375 16.999C47.6255 17.14 47.7195 17.516 47.8135 17.751C48.0015 18.08 47.9545 18.409 47.8605 18.738ZM47.3435 21.464C47.3435 21.229 47.3905 21.041 47.3905 20.853C47.4375 20.853 47.4375 20.9 47.4845 20.9C47.5785 20.994 47.7195 21.088 47.7195 21.182C47.7195 21.417 47.5315 21.464 47.3435 21.464ZM47.6725 22.921H47.5785V22.827L47.6725 22.921ZM47.3435 22.216V22.31L47.2495 22.263L47.3435 22.216ZM47.9075 14.508C47.9075 14.461 48.0485 14.461 48.1895 14.367C48.2365 14.508 48.2835 14.602 48.3305 14.743C48.3305 14.79 48.2365 14.884 48.1895 14.978C48.0955 14.884 48.0015 14.884 47.9545 14.79C47.9075 14.696 47.9075 14.602 47.9075 14.508ZM47.2025 12.863C47.1085 12.675 47.0145 12.534 46.9675 12.346C46.9205 12.158 46.8265 11.876 46.9205 11.782C47.3905 11.265 47.2025 10.795 46.9675 10.278C46.9205 10.184 47.0615 10.043 47.1085 9.902C47.3905 9.902 47.5785 9.949 47.6725 10.278C47.7665 10.56 47.9075 10.889 48.0015 11.171L47.7195 11.735H47.6725L48.1425 12.205C47.7665 12.346 47.3435 12.393 47.2025 12.863ZM45.6515 9.808C45.6045 9.808 45.4165 9.62 45.3695 9.526C45.3225 9.385 45.4165 9.197 45.4635 9.15C45.6985 9.009 45.9805 8.962 46.2155 8.915C46.3565 8.915 46.5445 9.009 46.6385 9.103C46.6855 9.197 46.6855 9.385 46.6855 9.526C46.3565 9.62 46.0275 9.761 45.6515 9.808ZM46.4035 11.077C46.3095 11.124 46.1685 11.218 46.0745 11.265C46.0745 11.218 46.0275 11.171 46.0275 11.124C46.0745 10.936 46.2625 10.842 46.3565 10.936C46.4035 10.983 46.4035 11.03 46.4035 11.077ZM45.9805 12.205L45.8865 12.158L45.9805 12.064V12.205ZM48.1895 8.586C48.1425 8.586 48.0485 8.586 48.0015 8.586C48.0485 8.539 48.0955 8.445 48.1425 8.398C48.1425 8.398 48.2365 8.398 48.2835 8.398C48.2365 8.445 48.2365 8.586 48.1895 8.586ZM44.9935 5.249C45.1345 5.014 45.3695 4.967 45.6515 4.967C46.1215 5.014 46.6385 5.014 47.1555 5.061V4.356H47.2025L47.1555 5.014C47.0145 6.048 47.2965 6.847 48.1425 7.411L48.2365 7.458H48.1895C48.0955 7.552 47.9545 7.599 47.8605 7.74C47.5785 8.069 47.5785 8.116 47.9545 8.586C47.9075 8.727 47.9075 8.915 47.8605 9.009C47.8135 9.103 47.6725 9.15 47.5785 9.15C47.5315 9.103 47.3905 9.056 47.3905 8.962C47.3435 8.68 47.3435 8.351 47.3435 8.069C47.3435 8.022 47.2495 7.975 47.2495 7.975C47.1555 7.975 47.0145 7.975 46.9675 8.022C46.8265 8.163 46.8265 8.445 46.6855 8.539C46.4035 8.633 46.0745 8.68 45.7925 8.68C45.4165 8.68 45.0875 8.586 44.7585 8.539C44.9465 8.398 45.1815 8.304 45.4165 8.21C45.9805 7.928 45.8865 7.834 45.6045 7.411C45.3225 7.035 45.0875 6.659 44.8525 6.236C44.6175 5.907 44.7585 5.578 44.9935 5.249ZM44.7115 7.787C44.7115 8.022 44.7115 8.304 44.7115 8.539V7.787ZM43.8655 9.009C43.9595 8.774 44.3355 8.68 44.4765 8.868C44.5235 8.915 44.4765 8.962 44.5235 9.009C44.4295 9.197 44.0065 9.291 43.8655 9.103C43.8655 9.103 43.8185 9.009 43.8655 9.009ZM44.1005 10.419C44.1475 10.419 44.1945 10.513 44.1475 10.56C44.1475 10.654 44.1005 10.795 44.0535 10.795C43.9125 10.842 43.7715 10.795 43.6305 10.795C43.6775 10.654 43.7245 10.513 43.8185 10.419C43.8655 10.372 44.0065 10.419 44.1005 10.419ZM43.3015 10.842C43.3955 10.842 43.4895 10.842 43.5835 10.842C43.5835 11.171 43.6775 11.547 43.3485 11.782C43.2545 11.594 43.2075 11.359 43.1135 11.171C43.0665 10.936 43.1605 10.889 43.3015 10.842ZM42.3615 14.978C42.2675 15.072 42.1265 15.119 42.0325 15.213C42.0325 15.119 42.0325 15.025 42.0325 14.978C42.1265 14.978 42.2675 14.978 42.3615 14.978ZM41.9855 15.307C41.9385 15.401 41.9385 15.542 41.8915 15.636C41.8445 15.683 41.7035 15.636 41.6095 15.636C41.6095 15.589 41.6095 15.495 41.6565 15.495C41.7505 15.401 41.8915 15.354 41.9855 15.307ZM41.5625 14.32C41.6095 14.226 41.7035 14.179 41.7975 14.179C41.8445 14.179 41.9385 14.273 41.9855 14.367C41.9855 14.508 41.9855 14.696 41.9855 14.884C41.8445 14.79 41.6565 14.696 41.5625 14.602C41.5155 14.555 41.5155 14.367 41.5625 14.32ZM38.0375 24.472C38.1315 24.519 38.2255 24.519 38.2725 24.566C38.2255 24.519 38.1315 24.519 38.0375 24.472C37.8965 24.895 37.5675 25.083 37.2385 25.271C36.9565 24.942 36.9565 24.848 37.1915 24.707C37.4735 24.613 37.7555 24.566 38.0375 24.472ZM34.7005 24.472C34.7475 24.519 34.8885 24.519 34.9355 24.613C34.9355 24.66 34.8415 24.754 34.8415 24.801C34.7475 24.801 34.6065 24.754 34.6065 24.707C34.6065 24.66 34.6535 24.566 34.7005 24.472ZM33.6195 24.989C33.6195 24.942 33.7135 24.848 33.7605 24.801C33.7605 24.848 33.8075 24.848 33.8545 24.895C33.9485 25.224 34.1365 25.553 33.9485 25.929C33.7135 25.647 33.5725 25.365 33.6195 24.989ZM33.1495 20.195C33.2435 20.101 33.3375 20.148 33.3375 20.289C33.2905 20.289 33.2435 20.336 33.1965 20.336C33.1965 20.289 33.1495 20.242 33.1495 20.195ZM32.9615 24.613V24.566V24.613ZM32.2565 23.579C32.2565 23.485 32.2095 23.391 32.2565 23.344C32.2565 23.25 32.3505 23.203 32.4445 23.156C32.4915 23.25 32.5385 23.391 32.5855 23.485C32.4915 23.532 32.3505 23.532 32.2565 23.579ZM32.4445 21.182C32.4445 21.135 32.4445 21.041 32.4915 20.994C32.4915 21.041 32.5385 21.088 32.5385 21.088C32.5385 21.135 32.4915 21.182 32.4445 21.182ZM32.8675 25.13C32.7265 25.13 32.5385 25.177 32.3975 25.177C32.3505 25.13 32.2565 25.083 32.2095 25.083C32.2565 25.083 32.3505 25.036 32.4445 25.036C32.5855 25.083 32.6795 25.083 32.8675 25.13ZM32.8205 24.19V24.143C32.8205 24.237 32.8675 24.331 32.9145 24.425C32.8675 24.331 32.8205 24.284 32.8205 24.19ZM32.9145 22.169C32.9145 22.216 32.9615 22.31 32.9145 22.31C32.8675 22.404 32.8205 22.451 32.7265 22.498C32.7265 22.404 32.6795 22.357 32.6795 22.263C32.6795 22.216 32.8205 22.216 32.9145 22.169ZM32.5855 19.302C32.4915 19.255 32.3975 19.255 32.3505 19.208C32.3505 19.161 32.3505 19.067 32.3505 18.973C32.3975 19.02 32.4915 19.067 32.5385 19.114C32.5855 19.161 32.5855 19.208 32.5855 19.302ZM29.1545 7.74H29.0605C29.1075 7.74 29.1545 7.74 29.1545 7.74ZM28.9195 7.458C28.9665 7.505 28.9665 7.599 29.0135 7.646C28.9195 7.599 28.8725 7.505 28.8255 7.411C28.8725 7.458 28.9195 7.411 28.9195 7.458ZM27.7445 8.116C27.8385 8.116 27.9795 8.116 28.0735 8.116C27.9795 8.116 27.8855 8.116 27.7445 8.116ZM27.8855 6.424L27.8385 6.518V6.424H27.8855ZM26.3815 5.672C26.4285 5.954 26.5695 6.189 26.8985 6.236C26.8045 6.236 26.7105 6.236 26.6635 6.236C25.9585 6.142 25.8175 6.048 25.8645 5.39C25.8645 5.249 25.8645 5.108 25.9115 4.967C26.0525 4.967 26.2405 4.967 26.3815 4.967C26.3815 5.202 26.3815 5.437 26.3815 5.672ZM26.7575 5.625C26.8515 5.625 26.9455 5.625 27.0395 5.578C26.9455 5.625 26.8515 5.625 26.7575 5.625ZM26.8045 4.685C26.8045 4.638 26.8045 4.638 26.8045 4.591C26.8045 4.638 26.8045 4.638 26.8045 4.685ZM26.3815 4.262C26.4285 4.168 26.6165 4.121 26.7575 4.074C26.7575 4.027 26.7575 4.027 26.7575 3.98V4.027C26.6165 4.215 26.5695 4.403 26.8045 4.591C26.6635 4.685 26.5695 4.779 26.4285 4.92C26.4285 4.685 26.3815 4.45 26.3815 4.262ZM25.1595 5.014C25.3945 4.967 25.6295 4.967 25.8645 4.967C25.6765 5.108 25.5355 5.296 25.3475 5.437C25.1595 5.531 24.9715 5.578 24.7835 5.625C24.7835 5.625 24.7365 5.578 24.6895 5.531C24.6425 5.343 24.8775 5.108 25.1595 5.014ZM24.4545 8.257C24.5485 8.022 24.6895 7.834 24.8305 7.599L24.7835 7.646C24.7835 7.599 24.7835 7.505 24.7835 7.458C24.7835 7.082 24.3605 6.659 24.7835 6.377C25.1125 6.189 25.4415 6.565 25.7235 6.753C25.8645 6.8 25.9115 6.988 26.0055 7.082L26.8985 6.283C26.7575 6.8 27.1335 7.223 27.2745 7.693C27.4155 7.787 27.5095 7.881 27.4625 8.069C27.4155 8.022 27.3215 8.022 27.2745 7.975L26.9455 8.304C26.9455 8.68 26.6635 8.868 26.4285 9.056C26.3815 8.821 26.2405 8.68 26.0055 8.774C25.6295 9.056 25.2065 8.962 24.8305 8.915C24.4075 8.821 24.2665 8.633 24.4545 8.257ZM23.9375 11.735C24.0785 11.547 24.2195 11.312 24.3605 11.124C24.3605 11.077 24.4545 11.077 24.5015 11.124C24.5485 11.171 24.5955 11.265 24.6895 11.406C24.5015 11.547 24.3135 11.735 24.1255 11.876C24.1255 11.876 24.0315 11.876 23.9845 11.876C23.9845 11.829 23.9375 11.782 23.9375 11.735ZM23.7965 16.811V16.905C23.7965 16.905 23.7965 16.905 23.7965 16.858V16.811ZM23.9375 17.281C23.8905 17.187 23.8435 17.046 23.7965 16.905C23.9375 16.999 24.0315 17.046 24.1725 17.093C24.1725 17.14 24.1725 17.234 24.1725 17.234C24.0785 17.234 23.9375 17.281 23.9375 17.281ZM24.2665 18.738C24.2665 18.738 24.3135 18.785 24.3135 18.832C24.3135 18.926 24.2665 19.02 24.2665 19.114C24.2195 19.02 24.1255 18.973 24.1255 18.879C24.1255 18.832 24.2195 18.785 24.2665 18.738ZM24.9715 19.067L24.9245 19.114C24.6895 19.114 24.5015 19.114 24.2665 19.114C24.5015 19.114 24.7365 19.114 24.9715 19.067ZM25.0655 17.422C25.0655 17.61 25.1125 17.751 25.0655 17.939C25.0655 17.986 24.9715 18.08 24.8775 18.127C24.8305 18.033 24.6895 17.845 24.6895 17.798C24.7835 17.657 24.9245 17.563 25.0655 17.422ZM25.3945 25.506C25.3005 25.459 25.2535 25.459 25.2065 25.459C25.2535 25.459 25.3005 25.459 25.3945 25.506ZM25.5825 27.245H25.6295C25.5355 27.386 25.4415 27.527 25.3475 27.715C25.3005 27.621 25.2535 27.574 25.2535 27.48C25.2065 27.198 25.2535 27.151 25.5825 27.245ZM25.7235 27.245C25.8175 27.245 25.9115 27.245 26.0525 27.245C25.9115 27.292 25.8175 27.292 25.7235 27.245ZM26.0525 24.002C25.8645 24.002 25.6765 24.002 25.5825 23.908C25.5355 23.861 25.6295 23.626 25.6765 23.485C25.6765 23.438 25.7705 23.391 25.8175 23.344C25.9585 23.485 26.0525 23.626 26.1935 23.814C26.1935 23.861 26.0995 24.002 26.0525 24.002ZM26.7105 23.062C26.6165 23.062 26.5225 22.968 26.5225 22.921C26.4285 22.216 26.8045 21.746 27.2745 21.323C27.2745 21.887 27.0865 22.451 26.8515 23.015C26.8045 23.015 26.7575 23.062 26.7105 23.062ZM27.3215 21.182C27.3215 20.994 27.3215 20.759 27.3215 20.571C27.6975 20.806 27.6975 20.853 27.3215 21.182ZM29.1545 22.075C29.2955 21.558 29.4365 20.994 29.5775 20.477C29.6245 20.43 29.7655 20.336 29.8595 20.336C29.9065 20.336 30.0475 20.43 30.0475 20.524C30.0475 20.806 30.0475 21.135 30.0475 21.417C30.0945 21.793 30.2355 22.122 30.4705 22.357C30.0005 22.451 29.5775 22.216 29.1545 22.075ZM31.6925 22.639C31.0345 22.921 31.0345 22.968 30.5645 22.404C30.8465 22.357 31.1755 22.357 31.1285 21.934C31.0815 21.558 31.2225 21.229 31.2225 20.853C31.2695 20.289 31.2695 19.725 31.2695 19.161C31.2695 18.973 31.0345 18.879 30.9405 18.973C30.6115 19.396 30.2355 19.537 29.7185 19.631C29.5775 19.631 29.3425 19.49 29.4365 19.396C29.6245 19.02 29.8125 18.691 29.5775 18.268C29.5775 18.268 29.8595 18.127 29.9535 18.033C30.0005 17.986 30.0005 17.845 30.0005 17.845C29.7185 17.704 29.4835 17.563 29.2015 17.422L29.4835 16.764C28.8725 17.046 28.2615 17.328 28.0735 18.08L28.0265 18.127C28.2615 18.221 28.4965 18.315 28.6845 18.456C28.8255 18.503 28.9665 18.644 28.9665 18.738C28.9665 19.02 28.7315 18.973 28.5435 18.926C28.2145 18.879 28.0735 19.067 27.9795 19.302L27.9325 19.255C27.9795 19.443 28.1205 19.584 28.1205 19.772C28.1205 19.866 27.9325 20.007 27.7915 20.054C27.4625 20.054 27.2745 20.195 27.2745 20.524C26.7105 20.759 26.4285 21.229 26.0995 21.699C25.7705 22.169 25.6295 22.686 25.8175 23.297C25.5825 23.297 25.3475 23.344 25.1125 23.344C25.0185 23.297 24.8305 23.203 24.7835 23.109C24.7365 23.015 24.8305 22.78 24.9245 22.733C25.4415 22.451 25.3005 22.122 25.0655 21.793H25.1125C25.1125 21.276 25.2065 20.759 24.5955 20.477C24.4075 20.383 24.4545 20.054 24.5955 19.96C24.7835 19.819 24.9245 19.725 25.1125 19.678C25.3945 19.584 25.7235 19.584 26.0055 19.537L26.0525 19.302C26.0995 19.302 26.1465 19.302 26.1935 19.302C26.5225 19.255 26.9455 19.208 26.9455 18.785C26.9455 18.456 26.5695 18.362 26.3345 18.268C26.2875 18.221 26.2405 18.221 26.1935 18.221C26.2405 18.221 26.2405 18.174 26.2875 18.174C26.8515 17.798 26.8515 17.798 26.7105 17.234C26.6165 16.811 26.6165 16.858 26.2405 16.905C25.8175 16.999 25.5825 17.563 25.0655 17.375C24.6895 17.046 24.9245 16.529 24.7365 16.153C24.6895 16.106 24.8305 15.918 24.9245 15.777C25.2065 16.153 25.5825 16.2 25.9585 15.871H25.9115C25.9115 15.636 25.9585 15.354 25.9115 15.119C25.9115 14.978 25.6765 14.79 25.6765 14.79C25.2065 15.072 24.7365 14.367 24.2195 14.79C24.1255 14.884 23.9375 14.696 23.9375 14.508C23.9375 14.414 24.0785 14.273 24.1255 14.132C24.1725 14.132 24.2195 14.132 24.3135 14.132C25.3475 14.085 25.3475 14.085 25.4415 13.004C24.9715 12.393 24.9715 12.158 25.4415 11.453C25.2535 10.842 25.0185 10.231 25.1595 9.573C25.5355 9.62 25.3945 10.043 25.6765 10.184C25.9585 10.325 26.2875 10.372 26.4285 10.701C26.4285 10.795 26.6635 10.842 26.7575 10.795C26.8045 10.795 26.8985 10.654 26.8985 10.56C26.9455 10.278 27.0395 9.996 26.6165 9.855C26.1935 9.714 26.3345 9.338 26.4285 9.056C27.0865 9.056 27.6505 8.868 28.2145 8.633C28.4025 8.586 28.5905 8.821 28.5435 9.009C28.4965 9.62 28.0735 9.855 27.5095 9.996C27.4625 10.043 27.4155 10.278 27.4625 10.419C27.4625 10.466 27.6035 10.56 27.6975 10.56C28.1205 10.654 28.3085 10.983 28.2615 11.359C28.2615 11.688 28.1675 11.97 28.0735 12.299C28.0735 12.44 28.0265 12.581 27.9795 12.722C27.8385 12.675 27.6975 12.628 27.5565 12.534C27.2745 12.44 27.0865 12.581 26.8985 12.769H26.9455C26.6165 13.662 26.8515 14.414 27.6505 14.978C27.7445 15.072 27.9795 15.072 28.0735 15.025C28.1205 14.978 28.1675 14.79 28.1675 14.649C28.1675 14.555 28.0735 14.461 28.0265 14.367L27.3685 14.414L28.0265 14.367H28.0735C28.0265 14.273 27.9795 14.179 27.9325 14.085C27.8855 13.568 28.0265 13.427 28.5435 13.568C28.7785 13.662 28.9195 13.662 29.0605 13.474C29.1545 13.286 29.2955 13.098 29.3425 12.91C29.3425 12.769 29.2955 12.581 29.2015 12.534C28.4495 11.735 28.4025 11.453 28.9665 10.701C29.0135 10.654 29.1075 10.607 29.2015 10.513C29.1545 10.419 29.1075 10.325 29.0605 10.231C29.0135 10.09 29.0605 9.949 29.2485 9.902C29.2955 9.855 29.4835 9.855 29.5305 9.949C29.7655 10.278 30.0945 10.654 29.7655 11.171C29.9065 11.453 29.7185 11.641 29.4835 11.782C29.5775 11.876 29.6715 12.017 29.7655 12.111C30.2355 12.581 30.1885 12.581 29.8125 13.145C29.7655 13.192 29.7655 13.192 29.7185 13.239C29.4835 13.568 29.5775 13.709 29.9065 13.803C30.0945 13.85 30.2825 13.897 30.4705 13.991C30.6585 14.085 30.6585 14.414 30.4705 14.508C30.1415 14.649 29.8595 14.79 29.5305 14.884C29.5305 15.072 29.5775 15.213 29.7655 15.166C30.0475 15.166 30.3765 14.978 30.6115 15.26C30.7995 15.495 31.2225 15.354 31.2225 15.73C30.9875 15.777 30.7525 15.824 30.5175 15.871C30.0005 15.871 30.1415 16.247 30.0945 16.482L30.7525 16.623L30.7995 16.482V16.576C30.7055 16.67 30.7055 16.764 30.7055 16.811C30.8935 16.811 31.0345 16.764 31.1755 16.764C31.5045 16.764 31.6455 16.952 31.5045 17.281C31.4575 17.375 31.3635 17.516 31.2695 17.61C31.3635 17.657 31.4105 17.704 31.5045 17.704C32.1625 17.798 32.3035 18.362 32.3035 18.926C32.1155 19.114 31.9275 19.208 31.9275 19.49C31.9745 20.524 32.0215 21.558 32.0685 22.592L32.3975 22.545L32.1155 22.592C31.9745 22.592 31.7865 22.545 31.6925 22.639ZM24.7835 21.887C24.8775 21.887 24.9715 21.84 25.0655 21.793C25.0185 21.981 25.0185 22.122 24.7835 21.887ZM25.4885 18.738C25.5355 18.644 25.6295 18.597 25.7235 18.597C25.7705 18.55 25.9115 18.644 25.9585 18.691C26.0055 18.879 26.0055 19.067 26.0525 19.255C25.9115 19.255 25.7235 19.255 25.6295 19.208C25.3945 19.114 25.3945 18.926 25.4885 18.738ZM26.1465 18.221C26.1935 18.08 26.2405 17.986 26.2405 17.845C26.2405 17.892 26.2875 17.939 26.2875 17.986C26.2405 18.033 26.1935 18.127 26.1465 18.221ZM24.8305 15.824L24.8775 15.777L24.8305 15.824ZM32.0215 24.002C32.0215 23.955 32.0215 23.861 32.0685 23.861C32.1155 23.767 32.1625 23.72 32.2095 23.673C32.2565 23.72 32.2565 23.814 32.2565 23.861C32.2565 23.955 32.1625 24.002 32.1155 24.096C32.0685 24.049 32.0215 24.002 32.0215 24.002ZM32.1625 26.399C32.3035 25.929 32.4445 25.459 32.8675 25.13C32.9615 25.271 33.1025 25.412 33.1495 25.6C33.1965 25.835 33.1965 26.07 32.8675 26.211C32.7735 26.211 32.6795 26.352 32.6325 26.446C32.5385 26.493 32.4445 26.54 32.3505 26.54C32.3035 26.54 32.1625 26.446 32.1625 26.399ZM36.8155 32.462C36.8155 32.509 36.7215 32.509 36.6745 32.462C36.6275 32.415 36.5335 32.321 36.5335 32.274C36.7215 31.898 36.9565 31.522 37.1445 31.146C37.3795 31.663 37.1915 32.086 36.8155 32.462ZM38.6485 30.206C38.6485 30.112 38.6015 30.065 38.6015 29.971C38.6485 30.018 38.7425 30.065 38.7895 30.112C38.8365 30.112 38.8365 30.206 38.8365 30.206C38.7895 30.347 38.7425 30.347 38.6485 30.206ZM39.4475 28.326C39.1655 28.42 38.8365 28.467 38.6485 28.749C39.2125 28.984 39.2125 29.031 38.8835 29.454C38.7895 29.595 38.6485 29.783 38.5545 29.924C38.3195 29.783 38.1315 29.642 37.8965 29.548C37.8025 29.501 37.6615 29.548 37.6145 29.595C37.5675 29.642 37.5205 29.783 37.5205 29.877C37.6145 30.112 37.7555 30.3 37.8495 30.535C37.9435 30.77 37.7555 30.817 37.6145 30.817C37.3795 30.817 37.1915 30.864 37.1445 31.099C36.9095 31.193 36.6275 31.287 36.3925 31.381C36.1575 31.428 35.9225 31.522 35.6875 31.569L35.7345 31.522C35.5935 31.663 35.4995 31.804 35.3585 31.945C35.3115 31.945 35.0295 31.804 35.0295 31.757C35.0295 31.475 35.0765 31.193 35.0765 30.911C34.9825 30.911 34.8415 30.911 34.7475 30.864C34.3715 30.77 34.3715 30.629 34.7005 30.347C34.7475 30.3 34.7945 30.3 34.7945 30.253V30.3L35.1705 29.924L35.1235 29.971L34.4655 29.36C34.2305 29.783 34.0895 29.783 33.8545 29.36C33.5725 29.219 33.3375 29.031 33.3375 28.702C33.3845 27.903 32.9615 27.245 32.6795 26.493C33.1025 26.587 33.3845 26.681 33.6195 26.681C33.9955 26.681 34.1365 26.446 34.5125 25.882C34.7945 25.412 35.1235 25.365 35.5465 25.318C35.7345 25.271 35.8755 25.177 35.9225 25.036C35.9695 25.083 36.0635 25.083 36.1105 25.036C36.2515 25.083 36.3455 25.13 36.4865 25.083C36.5335 25.13 36.6275 25.271 36.6745 25.318C36.8625 25.506 37.0505 25.412 37.1915 25.318C37.7555 25.459 37.7555 25.506 37.4735 25.835C37.4735 25.882 37.4265 25.882 37.3795 25.929C37.1445 26.258 37.0505 26.587 37.1915 26.587C37.3795 26.587 37.5675 26.54 37.7555 26.446C38.0845 26.258 38.4135 25.976 38.4605 25.506C38.5075 25.271 38.7895 25.318 38.9305 25.506C39.2595 25.929 39.2595 26.305 38.9305 26.775C38.6485 27.151 38.7425 27.527 39.1655 27.762C39.2595 27.809 39.3535 27.809 39.4475 27.856C39.5415 27.903 39.5885 28.044 39.5885 28.091C39.5885 28.185 39.4945 28.279 39.4475 28.326ZM39.5415 24.049C39.4945 24.049 39.5885 23.955 39.5885 23.955C39.6355 23.908 39.7295 23.908 39.7295 23.955C39.8705 24.049 40.0115 24.143 40.1995 24.237C40.0115 24.237 39.8235 24.284 39.6825 24.237C39.6355 24.237 39.5415 24.096 39.5415 24.049ZM40.4815 27.057L40.5285 26.493C40.5755 26.681 40.6695 26.916 40.4815 27.057ZM40.5755 26.399V26.352C40.3405 26.399 40.1525 26.352 40.0115 26.164C39.9645 26.07 39.9175 25.882 39.8705 25.788C39.4945 25.271 39.6355 24.848 40.1055 24.472C40.1525 24.425 40.1995 24.378 40.2465 24.284C40.4815 24.613 40.8575 24.848 40.5755 25.365C40.4345 25.647 40.8575 26.023 40.5755 26.399ZM40.3405 22.921V22.827L40.4345 22.874L40.3405 22.921ZM40.7635 21.934C40.6225 21.887 40.4345 21.793 40.4345 21.746C40.4345 21.229 40.5285 20.712 40.5755 20.195C40.6695 20.712 40.8105 21.229 40.9515 21.746C40.9515 21.793 40.8105 21.934 40.7635 21.934ZM41.2335 24.049L41.1865 23.908L41.2805 23.955L41.2335 24.049ZM42.5965 19.302C42.2675 19.443 41.9855 19.396 41.7035 19.255C41.5625 19.819 42.1735 20.148 42.1735 20.665C42.1735 20.712 42.1265 20.9 42.0325 20.9C41.9385 20.947 41.7035 20.947 41.6565 20.853C41.4685 20.477 41.3275 20.054 41.1865 19.631C41.1395 19.537 41.3275 19.396 41.4215 19.255C41.3745 19.255 41.3275 19.302 41.2805 19.255C41.0455 19.208 40.8105 19.067 40.5755 19.302C40.3875 19.584 40.2935 19.819 40.5285 20.101C40.3405 20.101 40.1525 20.148 39.9645 20.101C39.7765 20.101 39.6825 19.772 39.7295 19.631C39.9645 19.114 40.4345 18.926 40.8575 18.644C41.3275 18.362 41.6565 18.503 42.0325 18.738C42.2205 18.832 42.4085 18.926 42.5965 19.067C42.6435 19.067 42.6435 19.114 42.6435 19.161C42.6435 19.208 42.5965 19.255 42.5965 19.302ZM43.3955 18.691C43.3485 18.409 43.2075 18.362 42.9725 18.409C42.6435 18.503 42.3615 18.597 42.0325 18.691C42.0795 18.409 42.1265 18.127 42.4555 17.986C42.6905 17.939 42.8315 17.798 42.8315 17.563C42.7845 17.422 42.7375 17.234 42.6435 17.234C42.5495 17.187 42.2675 17.281 42.2675 17.328C42.3145 17.657 42.0795 17.751 41.8445 17.892C41.5155 18.08 41.1865 18.127 40.8575 18.033C40.7165 17.986 40.6695 17.798 40.6225 17.657L40.4815 17.704L40.5755 17.61C40.8105 17.704 41.0455 17.657 41.0925 17.469C41.3275 16.952 41.8915 16.764 42.2205 16.388H42.1735L42.2205 16.341C42.4085 16.341 42.5025 15.871 42.7375 16.294C42.8315 16.435 43.1135 16.435 43.3015 16.529C43.2545 16.2 43.2545 15.824 43.1605 15.495C43.0665 15.166 42.8315 14.978 42.4555 14.978C42.4555 14.226 42.5025 13.427 42.8315 12.722C42.9725 12.487 42.8785 12.299 42.7375 12.111L43.3485 11.876C43.3485 12.534 43.4895 13.051 44.2415 13.051C44.1945 12.769 44.1475 12.44 44.1005 12.158C44.0535 11.829 44.1475 11.594 44.3825 11.312C44.5705 11.124 44.5235 10.748 44.6175 10.466C44.6645 10.419 44.8055 10.278 44.8525 10.325C44.9935 10.372 45.1345 10.419 45.1815 10.56C45.3695 10.983 45.2285 11.312 44.9935 11.688C44.8055 11.923 44.8995 12.205 45.1345 12.346C45.3695 12.44 45.6045 12.581 45.8395 12.628C46.3095 12.769 46.7325 12.816 47.2025 12.91C47.2495 13.051 47.4375 13.051 47.5315 13.004C47.7665 12.957 47.9545 12.957 48.1425 13.098C48.1895 13.145 48.2365 13.239 48.2835 13.333C48.2835 13.38 48.2365 13.474 48.2365 13.474C47.7665 13.662 47.3435 13.803 46.9205 13.944C46.8735 13.991 46.7325 13.85 46.6855 13.803C46.5445 13.709 46.3565 13.709 46.3095 13.85C46.2155 13.991 46.1215 14.226 46.1685 14.273C46.6385 14.649 46.7325 15.26 47.0615 15.636C47.2025 15.777 47.4375 15.777 47.6255 15.871C47.6725 15.871 47.7195 15.918 47.7195 15.965C47.7195 16.012 47.7195 16.059 47.6725 16.059C47.5785 16.106 47.4845 16.153 47.3905 16.153C46.5445 16.388 46.4975 16.388 46.4035 17.375C46.1215 17.328 45.7925 17.187 45.8865 16.811C46.0275 16.153 45.6045 15.871 45.1345 15.636C44.9935 15.542 44.8525 15.683 44.8525 15.871C44.8525 15.965 44.8525 16.059 44.8055 16.153C44.6645 16.623 45.0405 16.482 45.1815 16.529C45.1815 16.858 45.0875 17.14 45.3225 17.422C45.5575 17.657 45.4165 17.892 45.3225 18.127C45.1815 18.55 45.1345 18.55 44.5235 18.315C44.4765 18.503 44.3825 18.644 44.1945 18.691C44.3825 18.973 44.5705 19.302 44.7585 19.631C44.6645 19.631 44.6175 19.678 44.5235 19.678C43.5835 19.631 43.5835 19.631 43.3955 18.691ZM45.0405 20.007C44.9935 19.866 44.8995 19.772 44.8525 19.678C44.9465 19.678 45.0405 19.631 45.1345 19.631C45.1345 19.772 45.0875 19.866 45.0405 20.007ZM45.1345 20.054C45.2285 20.007 45.2755 20.007 45.3225 20.007C45.2755 20.148 45.2285 20.054 45.1345 20.054ZM45.2285 19.631C45.4165 19.396 45.6515 19.302 45.8395 19.302C46.0745 19.302 46.3095 19.396 46.5445 19.537C46.6385 19.584 46.6855 19.678 46.7325 19.772C46.6385 19.772 46.5445 19.866 46.4975 19.866C46.0745 19.819 45.6515 19.725 45.2285 19.631ZM46.3565 21.558C46.3095 21.652 46.0745 21.699 45.9805 21.652C45.8865 21.605 45.7925 21.417 45.7925 21.276C45.8865 20.806 46.1685 20.571 46.6385 20.618C46.8265 20.665 47.0615 20.712 47.2495 20.806C46.8265 20.853 46.5915 21.182 46.3565 21.558ZM47.2965 26.07C47.0615 26.117 46.9205 25.929 47.0615 25.694C47.1555 25.553 47.2495 25.365 47.3905 25.224C47.4375 25.177 47.6255 25.224 47.6255 25.224C47.7195 25.459 47.7665 25.694 47.8605 25.976C47.9075 25.976 47.9075 25.976 47.9545 25.976C47.7195 26.023 47.5315 26.07 47.2965 26.07ZM48.3305 18.973C48.2365 18.973 48.1895 19.02 48.0955 19.02C48.0485 18.926 48.0015 18.879 47.9075 18.785C48.0485 18.738 48.1425 18.691 48.2835 18.691C48.3305 18.691 48.3775 18.785 48.4245 18.879C48.4245 18.879 48.3775 18.926 48.3305 18.973ZM34.5125 29.313C34.4655 29.36 34.4655 29.36 34.4655 29.36L34.5125 29.313ZM29.5305 14.884C29.5305 14.931 29.4835 14.931 29.4835 14.931L29.5305 14.884ZM31.2225 17.61C31.2695 17.61 31.2695 17.657 31.2695 17.657L31.2225 17.61ZM29.4835 11.782C29.4835 11.782 29.4835 11.782 29.4365 11.782H29.4835ZM35.1705 30.911C35.1235 30.911 35.1235 30.911 35.1235 30.864L35.1705 30.911ZM26.0055 19.584V19.537H26.0525L26.0055 19.584ZM38.6015 28.749C38.6485 28.749 38.6485 28.749 38.6485 28.796L38.6015 28.749ZM33.8545 29.36V29.313V29.36ZM77.6934 27.762L77.6464 27.715C77.4584 27.527 77.2234 27.48 76.9884 27.527C76.7064 27.527 76.3774 27.621 76.0954 27.621C76.0484 27.621 75.9074 27.386 75.9074 27.292C75.9544 27.198 76.0954 26.963 76.1894 26.963C76.7064 26.963 78.5394 27.057 78.5394 27.856H78.5864V27.903L78.5394 27.856L77.6464 27.715C77.6464 27.715 77.6934 27.715 77.6934 27.762ZM76.7534 29.971L76.8004 29.924L76.7534 29.971C77.0824 30.112 77.3644 30.3 77.7404 30.112C78.0224 29.971 78.0694 30.018 78.0694 30.3C78.0224 30.77 77.8344 31.099 77.3644 31.146L77.4114 31.193L76.7534 30.864L76.8004 30.911L76.4714 30.253L76.4244 30.3V30.253H76.4714L76.7534 29.971ZM78.5864 27.903C78.7744 27.621 79.0564 27.339 79.4324 27.292C79.5264 27.245 79.7144 27.386 79.8084 27.48C79.8554 27.527 79.8084 27.668 79.8084 27.762C79.7144 27.856 79.6204 28.044 79.4794 28.091C79.3384 28.185 79.1034 28.326 78.9624 28.279C78.8214 28.232 78.7274 27.997 78.5864 27.856V27.903ZM77.6464 27.715C77.6934 28.044 77.7874 28.373 77.8344 28.702C77.8814 29.078 77.8814 29.078 77.3174 29.219V29.266C77.4114 29.031 77.3644 28.796 77.2704 28.561C77.0824 28.138 77.3174 27.903 77.6934 27.762L77.6464 27.715ZM75.4844 29.36C75.5314 29.219 75.5314 29.078 75.5784 28.937C75.6724 28.843 75.8134 28.796 75.9544 28.702C75.9544 28.702 76.0484 28.843 76.0954 28.937C76.0954 29.078 76.0954 29.219 76.0954 29.36L76.1424 29.313C75.9074 29.313 75.7194 29.313 75.4844 29.313V29.36ZM77.7404 25.835C77.5524 25.976 77.3644 26.117 77.1764 26.305L77.2234 26.258C77.1764 26.164 77.1294 26.07 77.1764 25.976C77.1764 25.882 77.2704 25.694 77.3644 25.694C77.4584 25.647 77.5994 25.788 77.6934 25.882L77.7404 25.835ZM77.6934 25.882C77.7874 25.929 77.8344 25.976 77.9284 26.023C77.9284 26.023 77.9284 26.117 77.9284 26.164C77.8814 26.117 77.7404 26.117 77.7404 26.117C77.6934 26.023 77.7404 25.929 77.7404 25.835L77.6934 25.882ZM80.2314 28.749C80.1844 28.796 80.1374 28.843 80.0434 28.89C80.0434 28.89 79.9964 28.843 79.9494 28.843C80.0904 28.843 80.1844 28.796 80.2784 28.796L80.2314 28.749ZM77.1294 26.258H77.2234H77.1294ZM77.3174 29.219C77.3174 29.219 77.3174 29.266 77.2704 29.313L77.3174 29.266V29.219ZM77.4114 31.193C77.4114 31.287 77.4584 31.381 77.4584 31.428C77.4584 31.475 77.4114 31.475 77.3174 31.569C77.3174 31.428 77.3644 31.287 77.3644 31.146L77.4114 31.193ZM67.0244 13.051V11.453C67.1184 11.406 67.2124 11.406 67.3064 11.359C67.5414 11.312 67.7294 11.453 67.7294 11.641C67.7764 12.064 67.7764 12.44 67.7764 12.863C67.7764 13.192 67.5884 13.286 67.1654 13.098C67.1184 13.098 67.0714 13.051 67.0244 13.051ZM71.1604 14.884C70.9724 14.837 70.7374 14.837 70.5494 14.79C70.5024 14.79 70.4554 14.649 70.4554 14.555C70.4084 14.555 70.5024 14.461 70.5024 14.461C70.5964 14.414 70.7374 14.414 70.7844 14.461C70.9254 14.602 71.0194 14.743 71.1134 14.931L71.1604 14.884ZM69.6094 15.824C69.5624 15.871 69.5624 15.918 69.5154 15.965C69.4684 16.153 69.3274 16.294 69.0924 16.153C69.0454 16.059 68.9514 15.871 68.9984 15.777C69.0924 15.542 69.2804 15.495 69.5154 15.589C69.5624 15.589 69.5624 15.73 69.6094 15.824ZM70.5024 15.73C70.6904 15.918 70.7844 16.012 70.8784 16.106C70.7374 16.153 70.6904 16.294 70.5494 16.341C70.5024 16.341 70.3144 16.247 70.3144 16.153C70.3614 16.059 70.4084 15.918 70.5024 15.73ZM67.6354 19.584C67.7764 19.678 67.9174 19.678 68.0584 19.772C68.1054 19.819 68.1524 19.96 68.1524 20.007C68.1524 20.101 68.0114 20.148 67.9644 20.148C67.8704 20.148 67.7764 20.054 67.7294 20.007C67.6824 19.866 67.6824 19.725 67.6824 19.537L67.6354 19.584ZM68.3874 15.307C68.3404 15.354 68.2464 15.448 68.2464 15.448C68.1524 15.401 68.1054 15.354 68.0584 15.26C68.0584 15.213 68.1524 15.166 68.1994 15.119C68.2934 15.166 68.3404 15.26 68.3874 15.307ZM69.0924 11.265C69.1864 11.359 69.3274 11.406 69.3274 11.453C69.3274 11.547 69.2334 11.641 69.1864 11.688C69.0924 11.829 68.9984 11.782 68.9984 11.641C68.9984 11.5 69.0454 11.406 69.0924 11.265ZM70.7844 10.466C71.0194 10.701 71.2074 10.936 71.4424 11.171C71.0194 11.124 70.7844 10.889 70.7844 10.466ZM69.5624 19.255C69.5154 19.349 69.4214 19.443 69.3744 19.49C69.3744 19.49 69.2804 19.49 69.2334 19.443C69.3744 19.396 69.4684 19.349 69.6094 19.302L69.5624 19.255ZM68.8104 9.479L68.7634 9.385C68.7634 9.385 68.8104 9.338 68.8574 9.338C68.8574 9.338 68.9044 9.385 68.9514 9.432C68.9044 9.432 68.8574 9.432 68.8104 9.479ZM67.4004 16.529C67.4004 16.576 67.4474 16.623 67.4004 16.67C67.4004 16.67 67.3534 16.67 67.3064 16.67L67.2594 16.576C67.3064 16.576 67.3534 16.576 67.4004 16.529ZM71.7714 16.435C71.7714 16.576 71.7714 16.67 71.7714 16.811C71.5364 16.811 71.3014 16.811 71.0664 16.811C71.3014 16.67 71.5364 16.576 71.7714 16.435ZM71.0664 11.782H71.1134H71.0664ZM68.5284 12.769C68.5284 12.722 68.5754 12.722 68.5754 12.675C68.5754 12.675 68.5754 12.722 68.5754 12.769H68.5284ZM67.5414 15.871H67.6354H67.5414ZM69.6564 18.127L69.5624 18.08H69.7034L69.6564 18.127ZM85.1194 15.072L85.1664 15.025C85.7304 14.461 85.8244 13.756 85.8244 13.004C86.0124 12.957 86.2474 12.91 86.4354 12.863C86.6234 12.816 86.8114 13.051 86.7174 13.239C86.6704 13.333 86.6234 13.427 86.5764 13.521C86.3414 13.944 86.3414 13.944 86.6704 14.226C86.7644 14.32 86.9054 14.461 86.9994 14.555C86.9994 14.649 86.9994 14.743 86.9524 14.837C86.9524 14.884 86.9054 14.931 86.8584 14.931C85.9654 15.072 85.6364 15.777 85.4014 16.529C85.3074 16.717 85.0254 16.67 84.8844 16.482C85.3544 16.059 85.3074 15.589 85.1664 15.025L85.1194 15.072ZM85.4954 17.563C85.5424 17.563 85.5894 17.563 85.6364 17.563C85.5894 17.61 85.5894 17.704 85.5424 17.751C85.5424 17.798 85.4484 17.798 85.4014 17.798C85.4484 17.751 85.4484 17.657 85.4954 17.563ZM86.2004 18.362C86.0594 18.362 85.9654 18.362 85.8244 18.362C85.9654 18.362 86.0594 18.362 86.2004 18.362ZM85.8244 18.315V18.691V18.315ZM72.8524 17.61C72.8994 17.704 72.9464 17.798 72.9464 17.892C72.9934 17.939 72.9934 17.986 72.9464 18.033C72.8524 18.127 72.7584 18.08 72.8054 17.939C72.8054 17.845 72.8524 17.751 72.8994 17.657L72.8524 17.61ZM71.7244 16.764C71.9124 16.764 72.1474 16.764 72.3824 16.764C72.1474 16.999 71.9594 17.046 71.7244 16.764ZM87.0934 5.719C87.8454 5.766 88.1274 6.001 88.2214 6.706C88.2214 6.894 88.0804 7.176 87.8924 7.176C87.7514 7.129 87.5164 7.035 87.5164 6.941C87.4694 6.565 87.3754 6.283 86.9524 6.189C86.9054 6.189 86.8584 6.001 86.9054 5.907C86.9054 5.813 87.0464 5.766 87.0934 5.719ZM85.1664 15.025C84.9784 14.79 84.8374 14.508 84.6964 14.226C84.6964 14.179 84.7904 14.038 84.8374 14.038C84.8844 13.991 85.0724 14.085 85.0724 14.132C85.1194 14.461 85.1194 14.743 85.1194 15.072L85.1664 15.025ZM68.9514 8.022C68.8104 8.116 68.7164 8.21 68.6224 8.351L67.7764 8.163H67.8234C67.7294 8.069 67.6354 8.022 67.5884 7.928C67.2594 7.505 67.2594 7.505 67.6824 7.035C67.9174 7.599 68.3404 7.787 68.9514 7.693C68.9514 7.787 68.9514 7.881 68.9514 8.022ZM67.7764 8.163L67.7294 8.069L67.8234 8.163H67.7764ZM83.3804 19.302C83.2394 19.302 83.0984 19.302 83.0044 19.302C83.0984 19.302 83.2394 19.302 83.3804 19.302ZM89.3494 11.735L89.2554 11.782L89.3024 11.735H89.3494ZM91.7934 30.723C91.7934 21.511 91.7934 12.346 91.7934 3.134C91.7934 2.617 91.7934 2.1 91.7464 1.583C91.7464 1.348 91.6054 1.16 91.3704 1.16C89.7724 1.16 88.2214 1.16 86.6704 1.16C86.3884 1.16 86.2004 1.301 86.0594 1.583C85.9184 1.865 85.7774 2.1 85.6364 2.429C85.0724 4.074 84.5084 5.766 83.9444 7.458C82.6754 11.03 81.5944 14.696 80.2314 18.268C79.7144 19.631 79.2444 21.041 78.7744 22.404C78.7274 22.451 78.7274 22.498 78.6804 22.498C78.5394 22.639 78.3984 22.827 78.3514 23.062C78.3044 23.203 78.3514 23.344 78.2574 23.438C78.2104 23.532 78.1164 23.626 78.0224 23.626C77.9284 23.626 77.8814 23.626 77.8344 23.626C77.5994 23.532 77.4584 23.344 77.3174 23.109C76.9884 22.122 76.6594 21.135 76.2834 20.148C75.7194 18.503 75.1084 16.905 74.5444 15.26C73.2754 11.5 72.0064 7.646 70.7374 3.839C70.5024 3.134 70.2204 2.382 69.9854 1.63C69.8914 1.301 69.6564 1.113 69.2804 1.113C68.2464 1.113 67.2124 1.113 66.1784 1.113C65.6614 1.113 65.1444 1.16 64.5804 1.16C64.3924 1.16 64.2044 1.348 64.2044 1.536C64.1574 2.147 64.1104 2.711 64.1104 3.275C64.1104 9.573 64.1104 15.918 64.1104 22.216C64.1104 25.318 64.1104 28.373 64.1104 31.475C64.1104 32.462 64.1574 33.449 64.3924 34.436C64.4864 34.812 64.6274 34.953 65.0034 34.953C66.3664 35 67.7294 35 69.0924 35C69.8914 35 69.8444 34.812 69.9384 34.201C70.0324 33.543 70.1734 32.932 70.1734 32.321C70.2204 29.125 70.3144 25.929 69.8444 22.78C69.7974 22.169 69.8444 21.558 69.8444 20.9C69.8444 20.853 69.9854 20.712 70.0324 20.712C70.1734 20.759 70.3614 20.806 70.4084 20.9C70.5024 21.041 70.5024 21.229 70.5494 21.37L70.7374 22.075C71.0194 23.015 71.2074 23.955 71.4894 24.895C72.0064 26.446 72.5704 27.95 73.0874 29.501C73.5574 30.864 73.7924 32.321 74.4974 33.637C74.5914 33.731 74.5444 33.919 74.5914 34.06C74.7324 34.577 74.8264 34.671 75.3434 34.671C77.0824 34.671 78.8214 34.671 80.5134 34.671C80.6544 34.671 80.7484 34.671 80.8424 34.624C80.9834 34.53 81.1244 34.436 81.1714 34.342C81.3124 33.966 81.4064 33.543 81.5944 33.167C81.9234 32.415 82.2054 31.616 82.3934 30.817C82.4874 30.347 82.6754 29.924 82.8164 29.454C83.2394 28.326 83.7094 27.245 84.0384 26.07C84.4614 24.472 85.0724 22.921 85.6364 21.37C85.6364 21.323 85.6834 21.276 85.7304 21.276C85.7774 21.323 85.9184 21.37 85.9184 21.417C85.9654 22.498 85.9654 23.532 85.9184 24.566C85.9184 25.271 85.6364 26.023 85.6364 26.728C85.6834 27.433 85.9184 28.138 86.0124 28.89C86.1064 30.065 86.1534 31.287 86.0124 32.462C85.9654 32.885 86.0124 33.308 85.9654 33.731C85.9184 34.953 86.0594 35 87.1404 35C88.1274 35 89.1144 35 90.1014 35C90.4774 35 90.8534 35 91.2294 34.953C91.4644 34.906 91.6994 34.765 91.7464 34.436C91.7934 34.06 91.8404 33.637 91.8404 33.214C91.8404 32.368 91.7934 31.522 91.7934 30.723ZM90.0544 17.187L89.9604 17.14L90.0544 17.187ZM89.8664 12.205C89.9134 12.158 89.9604 12.158 90.0074 12.158C90.0074 12.158 89.9604 12.158 89.8664 12.205ZM89.4904 18.738C89.2554 18.597 88.7384 18.785 88.9264 18.174C88.7854 18.127 88.6444 18.08 88.5034 18.033C88.0804 18.033 88.0334 17.751 88.0804 17.422C88.1744 17.375 88.2214 17.375 88.3154 17.328C88.5974 17.281 88.7384 16.764 89.0674 16.999C89.2554 17.14 89.3494 17.516 89.4434 17.751C89.6314 18.08 89.5844 18.409 89.4904 18.738ZM88.9734 21.464C88.9734 21.229 89.0204 21.041 89.0204 20.853C89.0674 20.853 89.0674 20.9 89.1144 20.9C89.2084 20.994 89.3494 21.088 89.3494 21.182C89.3494 21.417 89.1614 21.464 88.9734 21.464ZM89.3024 22.921H89.2084V22.827L89.3024 22.921ZM88.9734 22.216V22.31L88.8794 22.263L88.9734 22.216ZM89.5374 14.508C89.5374 14.461 89.6784 14.461 89.8194 14.367C89.8664 14.508 89.9134 14.602 89.9604 14.743C89.9604 14.79 89.8664 14.884 89.8194 14.978C89.7254 14.884 89.6314 14.884 89.5844 14.79C89.5374 14.696 89.5374 14.602 89.5374 14.508ZM88.8324 12.863C88.7384 12.675 88.6444 12.534 88.5974 12.346C88.5504 12.158 88.4564 11.876 88.5504 11.782C89.0204 11.265 88.8324 10.795 88.5974 10.278C88.5504 10.184 88.6914 10.043 88.7384 9.902C89.0204 9.902 89.2084 9.949 89.3024 10.278C89.3964 10.56 89.5374 10.889 89.6314 11.171L89.3494 11.735H89.3024L89.7724 12.205C89.3964 12.346 88.9734 12.393 88.8324 12.863ZM87.2814 9.808C87.2344 9.808 87.0464 9.62 86.9994 9.526C86.9524 9.385 87.0464 9.197 87.0934 9.15C87.3284 9.009 87.6104 8.962 87.8454 8.915C87.9864 8.915 88.1744 9.009 88.2684 9.103C88.3154 9.197 88.3154 9.385 88.3154 9.526C87.9864 9.62 87.6574 9.761 87.2814 9.808ZM88.0334 11.077C87.9394 11.124 87.7984 11.218 87.7044 11.265C87.7044 11.218 87.6574 11.171 87.6574 11.124C87.7044 10.936 87.8924 10.842 87.9864 10.936C88.0334 10.983 88.0334 11.03 88.0334 11.077ZM87.6104 12.205L87.5164 12.158L87.6104 12.064V12.205ZM89.8194 8.586C89.7724 8.586 89.6784 8.586 89.6314 8.586C89.6784 8.539 89.7254 8.445 89.7724 8.398C89.7724 8.398 89.8664 8.398 89.9134 8.398C89.8664 8.445 89.8664 8.586 89.8194 8.586ZM86.6234 5.249C86.7644 5.014 86.9994 4.967 87.2814 4.967C87.7514 5.014 88.2684 5.014 88.7854 5.061V4.356H88.8324L88.7854 5.014C88.6444 6.048 88.9264 6.847 89.7724 7.411L89.8664 7.458H89.8194C89.7254 7.552 89.5844 7.599 89.4904 7.74C89.2084 8.069 89.2084 8.116 89.5844 8.586C89.5374 8.727 89.5374 8.915 89.4904 9.009C89.4434 9.103 89.3024 9.15 89.2084 9.15C89.1614 9.103 89.0204 9.056 89.0204 8.962C88.9734 8.68 88.9734 8.351 88.9734 8.069C88.9734 8.022 88.8794 7.975 88.8794 7.975C88.7854 7.975 88.6444 7.975 88.5974 8.022C88.4564 8.163 88.4564 8.445 88.3154 8.539C88.0334 8.633 87.7044 8.68 87.4224 8.68C87.0464 8.68 86.7174 8.586 86.3884 8.539C86.5764 8.398 86.8114 8.304 87.0464 8.21C87.6104 7.928 87.5164 7.834 87.2344 7.411C86.9524 7.035 86.7174 6.659 86.4824 6.236C86.2474 5.907 86.3884 5.578 86.6234 5.249ZM86.3414 7.787C86.3414 8.022 86.3414 8.304 86.3414 8.539V7.787ZM85.4954 9.009C85.5894 8.774 85.9654 8.68 86.1064 8.868C86.1534 8.915 86.1064 8.962 86.1534 9.009C86.0594 9.197 85.6364 9.291 85.4954 9.103C85.4954 9.103 85.4484 9.009 85.4954 9.009ZM85.7304 10.419C85.7774 10.419 85.8244 10.513 85.7774 10.56C85.7774 10.654 85.7304 10.795 85.6834 10.795C85.5424 10.842 85.4014 10.795 85.2604 10.795C85.3074 10.654 85.3544 10.513 85.4484 10.419C85.4954 10.372 85.6364 10.419 85.7304 10.419ZM84.9314 10.842C85.0254 10.842 85.1194 10.842 85.2134 10.842C85.2134 11.171 85.3074 11.547 84.9784 11.782C84.8844 11.594 84.8374 11.359 84.7434 11.171C84.6964 10.936 84.7904 10.889 84.9314 10.842ZM83.9914 14.978C83.8974 15.072 83.7564 15.119 83.6624 15.213C83.6624 15.119 83.6624 15.025 83.6624 14.978C83.7564 14.978 83.8974 14.978 83.9914 14.978ZM83.6154 15.307C83.5684 15.401 83.5684 15.542 83.5214 15.636C83.4744 15.683 83.3334 15.636 83.2394 15.636C83.2394 15.589 83.2394 15.495 83.2864 15.495C83.3804 15.401 83.5214 15.354 83.6154 15.307ZM83.1924 14.32C83.2394 14.226 83.3334 14.179 83.4274 14.179C83.4744 14.179 83.5684 14.273 83.6154 14.367C83.6154 14.508 83.6154 14.696 83.6154 14.884C83.4744 14.79 83.2864 14.696 83.1924 14.602C83.1454 14.555 83.1454 14.367 83.1924 14.32ZM79.6674 24.472C79.7614 24.519 79.8554 24.519 79.9024 24.566C79.8554 24.519 79.7614 24.519 79.6674 24.472C79.5264 24.895 79.1974 25.083 78.8684 25.271C78.5864 24.942 78.5864 24.848 78.8214 24.707C79.1034 24.613 79.3854 24.566 79.6674 24.472ZM76.3304 24.472C76.3774 24.519 76.5184 24.519 76.5654 24.613C76.5654 24.66 76.4714 24.754 76.4714 24.801C76.3774 24.801 76.2364 24.754 76.2364 24.707C76.2364 24.66 76.2834 24.566 76.3304 24.472ZM75.2494 24.989C75.2494 24.942 75.3434 24.848 75.3904 24.801C75.3904 24.848 75.4374 24.848 75.4844 24.895C75.5784 25.224 75.7664 25.553 75.5784 25.929C75.3434 25.647 75.2024 25.365 75.2494 24.989ZM74.7794 20.195C74.8734 20.101 74.9674 20.148 74.9674 20.289C74.9204 20.289 74.8734 20.336 74.8264 20.336C74.8264 20.289 74.7794 20.242 74.7794 20.195ZM74.5914 24.613V24.566V24.613ZM73.8864 23.579C73.8864 23.485 73.8394 23.391 73.8864 23.344C73.8864 23.25 73.9804 23.203 74.0744 23.156C74.1214 23.25 74.1684 23.391 74.2154 23.485C74.1214 23.532 73.9804 23.532 73.8864 23.579ZM74.0744 21.182C74.0744 21.135 74.0744 21.041 74.1214 20.994C74.1214 21.041 74.1684 21.088 74.1684 21.088C74.1684 21.135 74.1214 21.182 74.0744 21.182ZM74.4974 25.13C74.3564 25.13 74.1684 25.177 74.0274 25.177C73.9804 25.13 73.8864 25.083 73.8394 25.083C73.8864 25.083 73.9804 25.036 74.0744 25.036C74.2154 25.083 74.3094 25.083 74.4974 25.13ZM74.4504 24.19V24.143C74.4504 24.237 74.4974 24.331 74.5444 24.425C74.4974 24.331 74.4504 24.284 74.4504 24.19ZM74.5444 22.169C74.5444 22.216 74.5914 22.31 74.5444 22.31C74.4974 22.404 74.4504 22.451 74.3564 22.498C74.3564 22.404 74.3094 22.357 74.3094 22.263C74.3094 22.216 74.4504 22.216 74.5444 22.169ZM74.2154 19.302C74.1214 19.255 74.0274 19.255 73.9804 19.208C73.9804 19.161 73.9804 19.067 73.9804 18.973C74.0274 19.02 74.1214 19.067 74.1684 19.114C74.2154 19.161 74.2154 19.208 74.2154 19.302ZM70.7844 7.74H70.6904C70.7374 7.74 70.7844 7.74 70.7844 7.74ZM70.5494 7.458C70.5964 7.505 70.5964 7.599 70.6434 7.646C70.5494 7.599 70.5024 7.505 70.4554 7.411C70.5024 7.458 70.5494 7.411 70.5494 7.458ZM69.3744 8.116C69.4684 8.116 69.6094 8.116 69.7034 8.116C69.6094 8.116 69.5154 8.116 69.3744 8.116ZM69.5154 6.424L69.4684 6.518V6.424H69.5154ZM68.0114 5.672C68.0584 5.954 68.1994 6.189 68.5284 6.236C68.4344 6.236 68.3404 6.236 68.2934 6.236C67.5884 6.142 67.4474 6.048 67.4944 5.39C67.4944 5.249 67.4944 5.108 67.5414 4.967C67.6824 4.967 67.8704 4.967 68.0114 4.967C68.0114 5.202 68.0114 5.437 68.0114 5.672ZM68.3874 5.625C68.4814 5.625 68.5754 5.625 68.6694 5.578C68.5754 5.625 68.4814 5.625 68.3874 5.625ZM68.4344 4.685C68.4344 4.638 68.4344 4.638 68.4344 4.591C68.4344 4.638 68.4344 4.638 68.4344 4.685ZM68.0114 4.262C68.0584 4.168 68.2464 4.121 68.3874 4.074C68.3874 4.027 68.3874 4.027 68.3874 3.98V4.027C68.2464 4.215 68.1994 4.403 68.4344 4.591C68.2934 4.685 68.1994 4.779 68.0584 4.92C68.0584 4.685 68.0114 4.45 68.0114 4.262ZM66.7894 5.014C67.0244 4.967 67.2594 4.967 67.4944 4.967C67.3064 5.108 67.1654 5.296 66.9774 5.437C66.7894 5.531 66.6014 5.578 66.4134 5.625C66.4134 5.625 66.3664 5.578 66.3194 5.531C66.2724 5.343 66.5074 5.108 66.7894 5.014ZM66.0844 8.257C66.1784 8.022 66.3194 7.834 66.4604 7.599L66.4134 7.646C66.4134 7.599 66.4134 7.505 66.4134 7.458C66.4134 7.082 65.9904 6.659 66.4134 6.377C66.7424 6.189 67.0714 6.565 67.3534 6.753C67.4944 6.8 67.5414 6.988 67.6354 7.082L68.5284 6.283C68.3874 6.8 68.7634 7.223 68.9044 7.693C69.0454 7.787 69.1394 7.881 69.0924 8.069C69.0454 8.022 68.9514 8.022 68.9044 7.975L68.5754 8.304C68.5754 8.68 68.2934 8.868 68.0584 9.056C68.0114 8.821 67.8704 8.68 67.6354 8.774C67.2594 9.056 66.8364 8.962 66.4604 8.915C66.0374 8.821 65.8964 8.633 66.0844 8.257ZM65.5674 11.735C65.7084 11.547 65.8494 11.312 65.9904 11.124C65.9904 11.077 66.0844 11.077 66.1314 11.124C66.1784 11.171 66.2254 11.265 66.3194 11.406C66.1314 11.547 65.9434 11.735 65.7554 11.876C65.7554 11.876 65.6614 11.876 65.6144 11.876C65.6144 11.829 65.5674 11.782 65.5674 11.735ZM65.4264 16.811V16.905C65.4264 16.905 65.4264 16.905 65.4264 16.858V16.811ZM65.5674 17.281C65.5204 17.187 65.4734 17.046 65.4264 16.905C65.5674 16.999 65.6614 17.046 65.8024 17.093C65.8024 17.14 65.8024 17.234 65.8024 17.234C65.7084 17.234 65.5674 17.281 65.5674 17.281ZM65.8964 18.738C65.8964 18.738 65.9434 18.785 65.9434 18.832C65.9434 18.926 65.8964 19.02 65.8964 19.114C65.8494 19.02 65.7554 18.973 65.7554 18.879C65.7554 18.832 65.8494 18.785 65.8964 18.738ZM66.6014 19.067L66.5544 19.114C66.3194 19.114 66.1314 19.114 65.8964 19.114C66.1314 19.114 66.3664 19.114 66.6014 19.067ZM66.6954 17.422C66.6954 17.61 66.7424 17.751 66.6954 17.939C66.6954 17.986 66.6014 18.08 66.5074 18.127C66.4604 18.033 66.3194 17.845 66.3194 17.798C66.4134 17.657 66.5544 17.563 66.6954 17.422ZM67.0244 25.506C66.9304 25.459 66.8834 25.459 66.8364 25.459C66.8834 25.459 66.9304 25.459 67.0244 25.506ZM67.2124 27.245H67.2594C67.1654 27.386 67.0714 27.527 66.9774 27.715C66.9304 27.621 66.8834 27.574 66.8834 27.48C66.8364 27.198 66.8834 27.151 67.2124 27.245ZM67.3534 27.245C67.4474 27.245 67.5414 27.245 67.6824 27.245C67.5414 27.292 67.4474 27.292 67.3534 27.245ZM67.6824 24.002C67.4944 24.002 67.3064 24.002 67.2124 23.908C67.1654 23.861 67.2594 23.626 67.3064 23.485C67.3064 23.438 67.4004 23.391 67.4474 23.344C67.5884 23.485 67.6824 23.626 67.8234 23.814C67.8234 23.861 67.7294 24.002 67.6824 24.002ZM68.3404 23.062C68.2464 23.062 68.1524 22.968 68.1524 22.921C68.0584 22.216 68.4344 21.746 68.9044 21.323C68.9044 21.887 68.7164 22.451 68.4814 23.015C68.4344 23.015 68.3874 23.062 68.3404 23.062ZM68.9514 21.182C68.9514 20.994 68.9514 20.759 68.9514 20.571C69.3274 20.806 69.3274 20.853 68.9514 21.182ZM70.7844 22.075C70.9254 21.558 71.0664 20.994 71.2074 20.477C71.2544 20.43 71.3954 20.336 71.4894 20.336C71.5364 20.336 71.6774 20.43 71.6774 20.524C71.6774 20.806 71.6774 21.135 71.6774 21.417C71.7244 21.793 71.8654 22.122 72.1004 22.357C71.6304 22.451 71.2074 22.216 70.7844 22.075ZM73.3224 22.639C72.6644 22.921 72.6644 22.968 72.1944 22.404C72.4764 22.357 72.8054 22.357 72.7584 21.934C72.7114 21.558 72.8524 21.229 72.8524 20.853C72.8994 20.289 72.8994 19.725 72.8994 19.161C72.8994 18.973 72.6644 18.879 72.5704 18.973C72.2414 19.396 71.8654 19.537 71.3484 19.631C71.2074 19.631 70.9724 19.49 71.0664 19.396C71.2544 19.02 71.4424 18.691 71.2074 18.268C71.2074 18.268 71.4894 18.127 71.5834 18.033C71.6304 17.986 71.6304 17.845 71.6304 17.845C71.3484 17.704 71.1134 17.563 70.8314 17.422L71.1134 16.764C70.5024 17.046 69.8914 17.328 69.7034 18.08L69.6564 18.127C69.8914 18.221 70.1264 18.315 70.3144 18.456C70.4554 18.503 70.5964 18.644 70.5964 18.738C70.5964 19.02 70.3614 18.973 70.1734 18.926C69.8444 18.879 69.7034 19.067 69.6094 19.302L69.5624 19.255C69.6094 19.443 69.7504 19.584 69.7504 19.772C69.7504 19.866 69.5624 20.007 69.4214 20.054C69.0924 20.054 68.9044 20.195 68.9044 20.524C68.3404 20.759 68.0584 21.229 67.7294 21.699C67.4004 22.169 67.2594 22.686 67.4474 23.297C67.2124 23.297 66.9774 23.344 66.7424 23.344C66.6484 23.297 66.4604 23.203 66.4134 23.109C66.3664 23.015 66.4604 22.78 66.5544 22.733C67.0714 22.451 66.9304 22.122 66.6954 21.793H66.7424C66.7424 21.276 66.8364 20.759 66.2254 20.477C66.0374 20.383 66.0844 20.054 66.2254 19.96C66.4134 19.819 66.5544 19.725 66.7424 19.678C67.0244 19.584 67.3534 19.584 67.6354 19.537L67.6824 19.302C67.7294 19.302 67.7764 19.302 67.8234 19.302C68.1524 19.255 68.5754 19.208 68.5754 18.785C68.5754 18.456 68.1994 18.362 67.9644 18.268C67.9174 18.221 67.8704 18.221 67.8234 18.221C67.8704 18.221 67.8704 18.174 67.9174 18.174C68.4814 17.798 68.4814 17.798 68.3404 17.234C68.2464 16.811 68.2464 16.858 67.8704 16.905C67.4474 16.999 67.2124 17.563 66.6954 17.375C66.3194 17.046 66.5544 16.529 66.3664 16.153C66.3194 16.106 66.4604 15.918 66.5544 15.777C66.8364 16.153 67.2124 16.2 67.5884 15.871H67.5414C67.5414 15.636 67.5884 15.354 67.5414 15.119C67.5414 14.978 67.3064 14.79 67.3064 14.79C66.8364 15.072 66.3664 14.367 65.8494 14.79C65.7554 14.884 65.5674 14.696 65.5674 14.508C65.5674 14.414 65.7084 14.273 65.7554 14.132C65.8024 14.132 65.8494 14.132 65.9434 14.132C66.9774 14.085 66.9774 14.085 67.0714 13.004C66.6014 12.393 66.6014 12.158 67.0714 11.453C66.8834 10.842 66.6484 10.231 66.7894 9.573C67.1654 9.62 67.0244 10.043 67.3064 10.184C67.5884 10.325 67.9174 10.372 68.0584 10.701C68.0584 10.795 68.2934 10.842 68.3874 10.795C68.4344 10.795 68.5284 10.654 68.5284 10.56C68.5754 10.278 68.6694 9.996 68.2464 9.855C67.8234 9.714 67.9644 9.338 68.0584 9.056C68.7164 9.056 69.2804 8.868 69.8444 8.633C70.0324 8.586 70.2204 8.821 70.1734 9.009C70.1264 9.62 69.7034 9.855 69.1394 9.996C69.0924 10.043 69.0454 10.278 69.0924 10.419C69.0924 10.466 69.2334 10.56 69.3274 10.56C69.7504 10.654 69.9384 10.983 69.8914 11.359C69.8914 11.688 69.7974 11.97 69.7034 12.299C69.7034 12.44 69.6564 12.581 69.6094 12.722C69.4684 12.675 69.3274 12.628 69.1864 12.534C68.9044 12.44 68.7164 12.581 68.5284 12.769H68.5754C68.2464 13.662 68.4814 14.414 69.2804 14.978C69.3744 15.072 69.6094 15.072 69.7034 15.025C69.7504 14.978 69.7974 14.79 69.7974 14.649C69.7974 14.555 69.7034 14.461 69.6564 14.367L68.9984 14.414L69.6564 14.367H69.7034C69.6564 14.273 69.6094 14.179 69.5624 14.085C69.5154 13.568 69.6564 13.427 70.1734 13.568C70.4084 13.662 70.5494 13.662 70.6904 13.474C70.7844 13.286 70.9254 13.098 70.9724 12.91C70.9724 12.769 70.9254 12.581 70.8314 12.534C70.0794 11.735 70.0324 11.453 70.5964 10.701C70.6434 10.654 70.7374 10.607 70.8314 10.513C70.7844 10.419 70.7374 10.325 70.6904 10.231C70.6434 10.09 70.6904 9.949 70.8784 9.902C70.9254 9.855 71.1134 9.855 71.1604 9.949C71.3954 10.278 71.7244 10.654 71.3954 11.171C71.5364 11.453 71.3484 11.641 71.1134 11.782C71.2074 11.876 71.3014 12.017 71.3954 12.111C71.8654 12.581 71.8184 12.581 71.4424 13.145C71.3954 13.192 71.3954 13.192 71.3484 13.239C71.1134 13.568 71.2074 13.709 71.5364 13.803C71.7244 13.85 71.9124 13.897 72.1004 13.991C72.2884 14.085 72.2884 14.414 72.1004 14.508C71.7714 14.649 71.4894 14.79 71.1604 14.884C71.1604 15.072 71.2074 15.213 71.3954 15.166C71.6774 15.166 72.0064 14.978 72.2414 15.26C72.4294 15.495 72.8524 15.354 72.8524 15.73C72.6174 15.777 72.3824 15.824 72.1474 15.871C71.6304 15.871 71.7714 16.247 71.7244 16.482L72.3824 16.623L72.4294 16.482V16.576C72.3354 16.67 72.3354 16.764 72.3354 16.811C72.5234 16.811 72.6644 16.764 72.8054 16.764C73.1344 16.764 73.2754 16.952 73.1344 17.281C73.0874 17.375 72.9934 17.516 72.8994 17.61C72.9934 17.657 73.0404 17.704 73.1344 17.704C73.7924 17.798 73.9334 18.362 73.9334 18.926C73.7454 19.114 73.5574 19.208 73.5574 19.49C73.6044 20.524 73.6514 21.558 73.6984 22.592L74.0274 22.545L73.7454 22.592C73.6044 22.592 73.4164 22.545 73.3224 22.639ZM66.4134 21.887C66.5074 21.887 66.6014 21.84 66.6954 21.793C66.6484 21.981 66.6484 22.122 66.4134 21.887ZM67.1184 18.738C67.1654 18.644 67.2594 18.597 67.3534 18.597C67.4004 18.55 67.5414 18.644 67.5884 18.691C67.6354 18.879 67.6354 19.067 67.6824 19.255C67.5414 19.255 67.3534 19.255 67.2594 19.208C67.0244 19.114 67.0244 18.926 67.1184 18.738ZM67.7764 18.221C67.8234 18.08 67.8704 17.986 67.8704 17.845C67.8704 17.892 67.9174 17.939 67.9174 17.986C67.8704 18.033 67.8234 18.127 67.7764 18.221ZM66.4604 15.824L66.5074 15.777L66.4604 15.824ZM73.6514 24.002C73.6514 23.955 73.6514 23.861 73.6984 23.861C73.7454 23.767 73.7924 23.72 73.8394 23.673C73.8864 23.72 73.8864 23.814 73.8864 23.861C73.8864 23.955 73.7924 24.002 73.7454 24.096C73.6984 24.049 73.6514 24.002 73.6514 24.002ZM73.7924 26.399C73.9334 25.929 74.0744 25.459 74.4974 25.13C74.5914 25.271 74.7324 25.412 74.7794 25.6C74.8264 25.835 74.8264 26.07 74.4974 26.211C74.4034 26.211 74.3094 26.352 74.2624 26.446C74.1684 26.493 74.0744 26.54 73.9804 26.54C73.9334 26.54 73.7924 26.446 73.7924 26.399ZM78.4454 32.462C78.4454 32.509 78.3514 32.509 78.3044 32.462C78.2574 32.415 78.1634 32.321 78.1634 32.274C78.3514 31.898 78.5864 31.522 78.7744 31.146C79.0094 31.663 78.8214 32.086 78.4454 32.462ZM80.2784 30.206C80.2784 30.112 80.2314 30.065 80.2314 29.971C80.2784 30.018 80.3724 30.065 80.4194 30.112C80.4664 30.112 80.4664 30.206 80.4664 30.206C80.4194 30.347 80.3724 30.347 80.2784 30.206ZM81.0774 28.326C80.7954 28.42 80.4664 28.467 80.2784 28.749C80.8424 28.984 80.8424 29.031 80.5134 29.454C80.4194 29.595 80.2784 29.783 80.1844 29.924C79.9494 29.783 79.7614 29.642 79.5264 29.548C79.4324 29.501 79.2914 29.548 79.2444 29.595C79.1974 29.642 79.1504 29.783 79.1504 29.877C79.2444 30.112 79.3854 30.3 79.4794 30.535C79.5734 30.77 79.3854 30.817 79.2444 30.817C79.0094 30.817 78.8214 30.864 78.7744 31.099C78.5394 31.193 78.2574 31.287 78.0224 31.381C77.7874 31.428 77.5524 31.522 77.3174 31.569L77.3644 31.522C77.2234 31.663 77.1294 31.804 76.9884 31.945C76.9414 31.945 76.6594 31.804 76.6594 31.757C76.6594 31.475 76.7064 31.193 76.7064 30.911C76.6124 30.911 76.4714 30.911 76.3774 30.864C76.0014 30.77 76.0014 30.629 76.3304 30.347C76.3774 30.3 76.4244 30.3 76.4244 30.253V30.3L76.8004 29.924L76.7534 29.971L76.0954 29.36C75.8604 29.783 75.7194 29.783 75.4844 29.36C75.2024 29.219 74.9674 29.031 74.9674 28.702C75.0144 27.903 74.5914 27.245 74.3094 26.493C74.7324 26.587 75.0144 26.681 75.2494 26.681C75.6254 26.681 75.7664 26.446 76.1424 25.882C76.4244 25.412 76.7534 25.365 77.1764 25.318C77.3644 25.271 77.5054 25.177 77.5524 25.036C77.5994 25.083 77.6934 25.083 77.7404 25.036C77.8814 25.083 77.9754 25.13 78.1164 25.083C78.1634 25.13 78.2574 25.271 78.3044 25.318C78.4924 25.506 78.6804 25.412 78.8214 25.318C79.3854 25.459 79.3854 25.506 79.1034 25.835C79.1034 25.882 79.0564 25.882 79.0094 25.929C78.7744 26.258 78.6804 26.587 78.8214 26.587C79.0094 26.587 79.1974 26.54 79.3854 26.446C79.7144 26.258 80.0434 25.976 80.0904 25.506C80.1374 25.271 80.4194 25.318 80.5604 25.506C80.8894 25.929 80.8894 26.305 80.5604 26.775C80.2784 27.151 80.3724 27.527 80.7954 27.762C80.8894 27.809 80.9834 27.809 81.0774 27.856C81.1714 27.903 81.2184 28.044 81.2184 28.091C81.2184 28.185 81.1244 28.279 81.0774 28.326ZM81.1714 24.049C81.1244 24.049 81.2184 23.955 81.2184 23.955C81.2654 23.908 81.3594 23.908 81.3594 23.955C81.5004 24.049 81.6414 24.143 81.8294 24.237C81.6414 24.237 81.4534 24.284 81.3124 24.237C81.2654 24.237 81.1714 24.096 81.1714 24.049ZM82.1114 27.057L82.1584 26.493C82.2054 26.681 82.2994 26.916 82.1114 27.057ZM82.2054 26.399V26.352C81.9704 26.399 81.7824 26.352 81.6414 26.164C81.5944 26.07 81.5474 25.882 81.5004 25.788C81.1244 25.271 81.2654 24.848 81.7354 24.472C81.7824 24.425 81.8294 24.378 81.8764 24.284C82.1114 24.613 82.4874 24.848 82.2054 25.365C82.0644 25.647 82.4874 26.023 82.2054 26.399ZM81.9704 22.921V22.827L82.0644 22.874L81.9704 22.921ZM82.3934 21.934C82.2524 21.887 82.0644 21.793 82.0644 21.746C82.0644 21.229 82.1584 20.712 82.2054 20.195C82.2994 20.712 82.4404 21.229 82.5814 21.746C82.5814 21.793 82.4404 21.934 82.3934 21.934ZM82.8634 24.049L82.8164 23.908L82.9104 23.955L82.8634 24.049ZM84.2264 19.302C83.8974 19.443 83.6154 19.396 83.3334 19.255C83.1924 19.819 83.8034 20.148 83.8034 20.665C83.8034 20.712 83.7564 20.9 83.6624 20.9C83.5684 20.947 83.3334 20.947 83.2864 20.853C83.0984 20.477 82.9574 20.054 82.8164 19.631C82.7694 19.537 82.9574 19.396 83.0514 19.255C83.0044 19.255 82.9574 19.302 82.9104 19.255C82.6754 19.208 82.4404 19.067 82.2054 19.302C82.0174 19.584 81.9234 19.819 82.1584 20.101C81.9704 20.101 81.7824 20.148 81.5944 20.101C81.4064 20.101 81.3124 19.772 81.3594 19.631C81.5944 19.114 82.0644 18.926 82.4874 18.644C82.9574 18.362 83.2864 18.503 83.6624 18.738C83.8504 18.832 84.0384 18.926 84.2264 19.067C84.2734 19.067 84.2734 19.114 84.2734 19.161C84.2734 19.208 84.2264 19.255 84.2264 19.302ZM85.0254 18.691C84.9784 18.409 84.8374 18.362 84.6024 18.409C84.2734 18.503 83.9914 18.597 83.6624 18.691C83.7094 18.409 83.7564 18.127 84.0854 17.986C84.3204 17.939 84.4614 17.798 84.4614 17.563C84.4144 17.422 84.3674 17.234 84.2734 17.234C84.1794 17.187 83.8974 17.281 83.8974 17.328C83.9444 17.657 83.7094 17.751 83.4744 17.892C83.1454 18.08 82.8164 18.127 82.4874 18.033C82.3464 17.986 82.2994 17.798 82.2524 17.657L82.1114 17.704L82.2054 17.61C82.4404 17.704 82.6754 17.657 82.7224 17.469C82.9574 16.952 83.5214 16.764 83.8504 16.388H83.8034L83.8504 16.341C84.0384 16.341 84.1324 15.871 84.3674 16.294C84.4614 16.435 84.7434 16.435 84.9314 16.529C84.8844 16.2 84.8844 15.824 84.7904 15.495C84.6964 15.166 84.4614 14.978 84.0854 14.978C84.0854 14.226 84.1324 13.427 84.4614 12.722C84.6024 12.487 84.5084 12.299 84.3674 12.111L84.9784 11.876C84.9784 12.534 85.1194 13.051 85.8714 13.051C85.8244 12.769 85.7774 12.44 85.7304 12.158C85.6834 11.829 85.7774 11.594 86.0124 11.312C86.2004 11.124 86.1534 10.748 86.2474 10.466C86.2944 10.419 86.4354 10.278 86.4824 10.325C86.6234 10.372 86.7644 10.419 86.8114 10.56C86.9994 10.983 86.8584 11.312 86.6234 11.688C86.4354 11.923 86.5294 12.205 86.7644 12.346C86.9994 12.44 87.2344 12.581 87.4694 12.628C87.9394 12.769 88.3624 12.816 88.8324 12.91C88.8794 13.051 89.0674 13.051 89.1614 13.004C89.3964 12.957 89.5844 12.957 89.7724 13.098C89.8194 13.145 89.8664 13.239 89.9134 13.333C89.9134 13.38 89.8664 13.474 89.8664 13.474C89.3964 13.662 88.9734 13.803 88.5504 13.944C88.5034 13.991 88.3624 13.85 88.3154 13.803C88.1744 13.709 87.9864 13.709 87.9394 13.85C87.8454 13.991 87.7514 14.226 87.7984 14.273C88.2684 14.649 88.3624 15.26 88.6914 15.636C88.8324 15.777 89.0674 15.777 89.2554 15.871C89.3024 15.871 89.3494 15.918 89.3494 15.965C89.3494 16.012 89.3494 16.059 89.3024 16.059C89.2084 16.106 89.1144 16.153 89.0204 16.153C88.1744 16.388 88.1274 16.388 88.0334 17.375C87.7514 17.328 87.4224 17.187 87.5164 16.811C87.6574 16.153 87.2344 15.871 86.7644 15.636C86.6234 15.542 86.4824 15.683 86.4824 15.871C86.4824 15.965 86.4824 16.059 86.4354 16.153C86.2944 16.623 86.6704 16.482 86.8114 16.529C86.8114 16.858 86.7174 17.14 86.9524 17.422C87.1874 17.657 87.0464 17.892 86.9524 18.127C86.8114 18.55 86.7644 18.55 86.1534 18.315C86.1064 18.503 86.0124 18.644 85.8244 18.691C86.0124 18.973 86.2004 19.302 86.3884 19.631C86.2944 19.631 86.2474 19.678 86.1534 19.678C85.2134 19.631 85.2134 19.631 85.0254 18.691ZM86.6704 20.007C86.6234 19.866 86.5294 19.772 86.4824 19.678C86.5764 19.678 86.6704 19.631 86.7644 19.631C86.7644 19.772 86.7174 19.866 86.6704 20.007ZM86.7644 20.054C86.8584 20.007 86.9054 20.007 86.9524 20.007C86.9054 20.148 86.8584 20.054 86.7644 20.054ZM86.8584 19.631C87.0464 19.396 87.2814 19.302 87.4694 19.302C87.7044 19.302 87.9394 19.396 88.1744 19.537C88.2684 19.584 88.3154 19.678 88.3624 19.772C88.2684 19.772 88.1744 19.866 88.1274 19.866C87.7044 19.819 87.2814 19.725 86.8584 19.631ZM87.9864 21.558C87.9394 21.652 87.7044 21.699 87.6104 21.652C87.5164 21.605 87.4224 21.417 87.4224 21.276C87.5164 20.806 87.7984 20.571 88.2684 20.618C88.4564 20.665 88.6914 20.712 88.8794 20.806C88.4564 20.853 88.2214 21.182 87.9864 21.558ZM88.9264 26.07C88.6914 26.117 88.5504 25.929 88.6914 25.694C88.7854 25.553 88.8794 25.365 89.0204 25.224C89.0674 25.177 89.2554 25.224 89.2554 25.224C89.3494 25.459 89.3964 25.694 89.4904 25.976C89.5374 25.976 89.5374 25.976 89.5844 25.976C89.3494 26.023 89.1614 26.07 88.9264 26.07ZM89.9604 18.973C89.8664 18.973 89.8194 19.02 89.7254 19.02C89.6784 18.926 89.6314 18.879 89.5374 18.785C89.6784 18.738 89.7724 18.691 89.9134 18.691C89.9604 18.691 90.0074 18.785 90.0544 18.879C90.0544 18.879 90.0074 18.926 89.9604 18.973ZM76.1424 29.313C76.0954 29.36 76.0954 29.36 76.0954 29.36L76.1424 29.313ZM71.1604 14.884C71.1604 14.931 71.1134 14.931 71.1134 14.931L71.1604 14.884ZM72.8524 17.61C72.8994 17.61 72.8994 17.657 72.8994 17.657L72.8524 17.61ZM71.1134 11.782C71.1134 11.782 71.1134 11.782 71.0664 11.782H71.1134ZM76.8004 30.911C76.7534 30.911 76.7534 30.911 76.7534 30.864L76.8004 30.911ZM67.6354 19.584V19.537H67.6824L67.6354 19.584ZM80.2314 28.749C80.2784 28.749 80.2784 28.749 80.2784 28.796L80.2314 28.749ZM75.4844 29.36V29.313V29.36ZM101.463 1.395C99.5832 1.395 97.7032 1.395 95.8702 1.395C95.4942 1.395 95.1182 1.395 94.7892 1.442C94.1782 1.583 94.0372 2.476 94.0372 2.993C94.0372 3.745 94.0842 4.544 94.0842 5.296C94.1312 6.283 94.2252 7.27 94.2252 8.257C94.2722 14.931 94.2722 21.652 94.2722 28.326C94.2722 29.078 94.1782 29.877 94.1312 30.629C94.0842 31.569 93.9902 32.509 94.0372 33.449C94.1312 35 94.4132 34.906 95.6352 34.906C99.4892 34.906 103.296 34.906 107.15 34.906C107.385 34.906 107.667 34.906 107.902 34.906C108.372 34.906 108.607 34.718 108.607 34.248C108.607 32.885 108.607 31.569 108.607 30.206C108.607 29.642 108.325 29.454 107.808 29.501C105.599 29.736 103.39 29.548 101.134 29.642C100.476 29.642 100.053 29.313 99.8182 28.749C99.4422 27.762 99.4892 26.728 99.5832 25.694C99.6302 25.224 100.006 24.942 100.429 24.942C100.899 24.942 101.369 24.895 101.839 24.989C102.45 25.13 103.061 24.895 103.672 24.848C103.813 24.848 104.001 24.566 104.048 24.425C104.189 24.143 104.236 23.814 104.236 23.485C104.236 22.498 104.189 21.558 104.142 20.571C104.095 20.007 103.907 19.866 103.343 19.819C102.45 19.819 101.557 19.819 100.711 19.819C99.9122 19.819 99.5832 19.49 99.4892 18.691C99.4422 18.174 99.4892 17.657 99.4892 17.14C99.4422 14.743 99.4422 12.393 99.4422 9.996C99.4422 9.432 99.4892 8.868 99.5362 8.304C99.5832 7.364 99.9122 7.129 100.617 7.129C100.852 7.129 101.087 7.129 101.228 7.082C101.98 6.659 102.732 6.753 103.531 6.753C104.518 6.753 105.505 6.753 106.492 6.753C106.821 6.753 107.197 6.753 107.573 6.706C108.043 6.706 108.325 6.424 108.466 6.001C108.56 5.813 108.607 5.578 108.607 5.39C108.607 4.215 108.56 2.993 108.56 1.818C108.513 1.583 108.372 1.442 108.137 1.442C107.761 1.395 107.385 1.395 107.056 1.395C105.176 1.395 103.296 1.395 101.463 1.395ZM96.6692 5.296L96.7162 5.343C96.7632 5.155 96.8102 4.92 96.9512 4.826C97.0922 4.685 97.5152 4.732 97.5622 4.591C97.6562 4.403 97.5152 4.121 97.4682 3.839C97.4212 3.557 97.4682 3.463 97.7502 3.51C98.1262 3.557 98.5492 3.604 98.9722 3.651C99.0192 3.698 99.1602 3.792 99.1602 3.839C99.1602 3.933 99.1132 4.027 99.0192 4.074C98.9722 4.121 98.8312 4.121 98.7372 4.121C98.3612 4.168 98.1732 4.356 98.1262 4.685C98.0792 4.873 97.9852 5.108 97.9852 5.296C97.9852 5.531 98.0322 5.672 98.3142 5.719C98.5962 5.766 98.7372 6.001 98.7842 6.236C98.8312 6.377 98.7842 6.565 98.6902 6.659C98.5962 6.753 98.3612 6.8 98.2672 6.706C97.8912 6.424 97.6092 6.095 97.2332 5.813C97.0922 5.672 96.9042 5.484 96.7162 5.343L96.6692 5.39C96.7162 5.531 96.7632 5.719 96.7632 5.907C96.8102 5.954 96.6692 6.048 96.6222 6.142C96.5282 6.048 96.3872 5.907 96.3872 5.813C96.4342 5.672 96.5752 5.531 96.6692 5.39V5.296ZM100.1 4.779C100.194 4.779 100.288 4.779 100.335 4.826C100.429 4.873 100.476 5.014 100.429 5.061C100.429 5.108 100.288 5.202 100.241 5.155C100.147 5.155 100.053 5.108 99.9592 5.061C99.9592 5.014 99.9122 4.967 99.9122 4.92C99.9592 4.873 100.006 4.826 100.1 4.779ZM96.3872 7.599C96.2932 7.646 96.2932 7.74 96.1992 7.74C96.0582 7.834 95.9172 7.646 95.9642 7.505C96.0112 7.458 96.1522 7.364 96.1992 7.411C96.2462 7.411 96.2932 7.505 96.3872 7.599ZM96.7162 8.821C96.7162 8.633 96.6222 8.539 96.4342 8.492C96.6692 8.257 96.8572 8.069 97.0452 7.834C97.1392 7.74 97.2332 7.599 97.3742 7.74C97.4212 7.834 97.3742 7.928 97.3742 8.069C97.3742 8.445 96.9982 8.586 96.7162 8.821ZM96.7162 8.821C96.6692 9.197 96.4812 9.479 96.0582 9.479C96.0112 9.479 95.9642 9.479 95.9172 9.432C95.9172 9.15 96.1052 8.586 96.4342 8.492C96.4812 8.68 96.5752 8.774 96.7162 8.821ZM98.0792 8.774C97.9852 8.821 97.9382 8.821 97.8442 8.821C97.8442 8.821 97.8442 8.727 97.8442 8.68C97.8912 8.68 97.9852 8.68 98.0322 8.68L98.0792 8.774ZM96.7632 11.453C96.6692 11.453 96.6222 11.5 96.5282 11.5C96.5752 11.406 96.5752 11.359 96.6222 11.312L96.7632 11.453ZM97.3742 12.44C97.3742 12.487 97.3742 12.534 97.3272 12.534C97.3272 12.581 97.2802 12.534 97.2332 12.534C97.2332 12.487 97.2332 12.393 97.2802 12.393C97.3272 12.393 97.3742 12.44 97.3742 12.44ZM97.7502 15.26C97.7032 15.307 97.7032 15.354 97.6562 15.354C97.6092 15.307 97.5622 15.213 97.5152 15.166C97.5152 15.166 97.5622 15.119 97.6092 15.072C97.6562 15.166 97.7032 15.213 97.7502 15.26ZM96.1522 16.388L96.1052 16.294L96.2462 16.341L96.1522 16.388ZM96.1992 19.631L96.7632 19.725H96.8102C96.7632 19.302 96.8102 18.785 96.4812 18.409C96.1992 18.08 96.3872 17.751 96.4812 17.375C96.5282 17.234 96.6222 17.187 96.6692 17.281C96.7162 17.798 97.0922 18.08 97.4212 18.409C97.5152 18.503 97.5152 18.691 97.5152 18.832C97.4682 19.114 97.4212 19.443 97.3272 19.725C97.2802 20.007 97.1862 20.007 96.8102 19.725H96.8572H96.7632C96.5752 19.866 96.3872 19.866 96.1992 19.678V19.631C96.1052 19.631 96.1052 19.631 96.1992 19.537V19.631ZM96.2462 22.404H96.1522L96.2462 22.357L96.2932 21.323L96.6222 20.712C96.4342 20.806 96.2932 20.9 96.1522 20.994C96.0582 21.041 95.9172 21.041 95.8702 20.994C95.7762 20.806 95.8702 20.759 96.0582 20.712C96.2462 20.712 96.4342 20.712 96.6222 20.712V20.665V20.712C97.1392 20.618 97.1392 20.618 97.2802 20.947C97.3272 21.229 97.4682 21.37 97.7032 21.464C97.7972 20.994 97.9382 20.524 98.0792 20.054C98.1262 19.96 98.3612 19.866 98.4082 19.913C98.9252 20.148 99.2542 20.618 99.5362 21.088C99.5362 21.135 99.3952 21.417 99.3012 21.464C98.9252 21.558 98.7372 21.699 98.7372 22.169C98.6902 22.827 98.7842 23.532 98.4552 24.143H98.5492L98.5022 24.19C97.7972 23.955 97.1392 24.049 96.4342 24.096V24.143C96.4342 24.096 96.4342 24.096 96.4342 24.096L96.2462 24.237L96.2932 23.955L96.2462 23.908L96.0582 24.002L96.2932 23.908V23.955C96.3402 24.002 96.3872 24.049 96.4342 24.096C96.4342 23.908 96.4342 23.72 96.4812 23.532C96.4812 23.297 96.5752 23.203 96.8102 23.109C97.2802 22.968 97.2802 22.78 97.0452 22.451C96.8102 22.075 96.5752 21.699 96.2932 21.323L96.2462 22.404ZM97.6562 21.511C97.7502 21.746 97.7502 21.887 97.7972 22.075C97.7972 22.122 97.9382 22.122 98.0322 22.169C98.0322 22.075 98.1262 21.981 98.0792 21.934C97.9852 21.793 97.8442 21.699 97.7032 21.464L97.6562 21.511ZM99.6772 23.532C99.6302 23.532 99.5832 23.485 99.5832 23.438C99.4422 23.062 99.7242 23.062 99.9592 23.015C99.9592 22.78 99.9592 22.545 99.9592 22.31C99.9592 22.545 99.9592 22.78 99.9592 23.015C99.9592 23.25 100.053 23.532 99.6772 23.532ZM96.5282 25.177C96.5282 25.13 96.5752 25.083 96.6222 25.036C96.9512 24.66 97.1862 24.472 97.4682 24.472C97.6562 24.472 97.9382 24.613 98.3142 24.848C97.8442 25.224 97.2332 25.271 96.7162 25.459C96.6692 25.506 96.5752 25.459 96.5752 25.412C96.5282 25.318 96.5282 25.271 96.5282 25.177ZM98.3142 24.942L98.3612 24.848L98.3142 24.942ZM98.1262 25.788L98.0792 25.882L98.1262 25.788ZM98.1262 26.117C98.1262 26.023 98.1262 25.929 98.1732 25.835C98.2202 25.976 98.3612 26.023 98.2202 26.164L98.1262 26.117ZM96.0582 26.258H96.0112L96.1052 26.211L96.0582 26.258ZM97.6562 26.587C97.6092 26.775 97.6092 26.963 97.5152 27.151C97.3742 27.574 97.1862 27.668 96.7162 27.48C96.5752 27.433 96.3872 27.386 96.4812 27.198C96.6692 26.916 96.9512 26.634 97.1862 26.352C97.2332 26.305 97.3742 26.305 97.4682 26.352C97.5152 26.352 97.5622 26.493 97.6562 26.587ZM98.2672 29.36C97.7972 29.83 97.6562 29.877 97.2802 29.595C97.1392 29.454 97.0452 29.266 96.8572 29.172C96.8102 29.125 96.6692 29.125 96.5752 29.172C96.5752 29.172 96.5282 29.266 96.5282 29.313C96.6222 29.83 96.7162 30.394 96.7632 30.958C96.8102 31.005 96.6692 31.052 96.5752 31.099C96.5282 31.146 96.4342 31.146 96.4342 31.099C96.1052 30.535 95.8232 29.924 95.5412 29.36C95.4002 29.078 95.8702 28.326 96.1992 28.279C96.2462 28.279 96.2932 28.232 96.3402 28.232C97.0452 28.514 97.7032 28.749 98.3612 28.984C98.3612 28.984 98.3142 29.219 98.2672 29.36ZM99.8182 31.005C100.053 31.522 100.006 31.663 99.5362 31.757C99.4422 31.757 99.3482 31.757 99.2542 31.71C99.2072 31.663 99.2542 31.522 99.3012 31.475C99.4422 31.287 99.6302 31.146 99.8182 31.005ZM97.7032 32.885C97.6562 32.885 97.5622 32.885 97.5622 32.838C97.5152 32.791 97.4212 32.697 97.4212 32.603C97.4212 32.18 97.4212 31.71 97.4682 31.287C97.4682 31.24 97.6092 31.146 97.7032 31.193C97.7972 31.193 97.8912 31.334 97.8912 31.381C97.8442 32.368 97.8442 32.603 97.8442 32.838C97.8442 32.885 97.7502 32.885 97.7032 32.885ZM103.672 32.133H103.719L103.813 32.227L103.672 32.133ZM100.946 32.18C101.04 32.274 101.181 32.368 101.181 32.462C101.134 32.65 101.04 32.791 100.946 32.979H100.805C100.758 32.885 100.617 32.744 100.617 32.603C100.617 32.509 100.711 32.368 100.758 32.227C100.758 32.18 100.852 32.227 100.946 32.18ZM129.326 26.258H129.279C129.326 23.814 129.373 21.37 129.42 18.926C129.42 18.456 129.467 17.986 129.373 17.516C129.373 17.187 129.232 16.811 129.091 16.482C128.95 16.106 128.668 15.965 128.198 16.153C127.775 16.294 127.352 16.247 126.882 16.153C126.412 16.012 125.942 15.965 125.425 15.965C124.955 15.965 124.438 16.012 123.968 16.153C123.451 16.294 122.934 16.341 122.417 16.341C121.665 16.341 120.866 16.341 120.114 16.341C119.691 16.341 119.409 16.576 119.268 16.905C119.127 17.187 119.08 17.516 119.08 17.798C119.174 18.55 119.315 19.255 119.409 19.96C119.456 20.148 119.503 20.383 119.55 20.571C119.738 21.135 119.973 21.323 120.584 21.37C121.101 21.37 121.618 21.37 122.135 21.37C124.015 21.37 123.874 21.323 124.109 23.109C124.25 24.049 124.25 24.989 123.921 25.882C123.263 27.997 122.182 28.984 120.302 30.159C120.067 30.3 119.832 30.347 119.597 30.347C119.315 30.347 119.08 30.3 118.845 30.159C118.563 30.018 118.328 29.83 118.093 29.595C116.542 28.279 115.743 26.587 115.696 24.566C115.649 23.673 115.696 22.827 115.696 21.934C115.743 20.242 115.79 18.597 115.555 16.952C115.508 16.717 115.508 16.435 115.508 16.2C115.555 15.072 115.602 13.991 115.649 12.91C115.649 12.487 115.649 12.064 115.79 11.688C115.931 11.218 115.978 10.795 115.978 10.325C116.119 8.727 117.482 5.766 119.409 5.766C122.088 5.766 123.357 8.774 123.921 10.936C124.015 11.171 124.156 11.265 124.391 11.265C125.801 11.312 127.258 11.312 128.715 11.312C129.044 11.312 129.232 11.124 129.279 10.842C129.373 9.479 129.326 8.116 128.809 6.847C128.01 4.92 126.788 3.228 124.955 2.147C124.203 1.677 123.404 1.254 122.652 0.830997C122.182 0.548998 121.712 0.454999 121.148 0.454999C120.114 0.454999 119.08 0.501999 118.046 0.454999C117.435 0.454999 116.965 0.595998 116.495 1.019C116.119 1.348 115.602 1.536 115.132 1.724C114.098 2.241 113.205 2.946 112.594 3.933C112.077 4.779 111.56 5.625 111.09 6.471C110.432 7.646 110.197 8.868 110.197 10.184C110.244 13.427 110.244 16.623 110.244 19.866C110.244 20.9 110.291 21.934 110.103 22.968C110.056 23.156 110.009 23.391 110.056 23.579C110.385 24.425 110.244 25.318 110.244 26.211C110.197 27.668 110.62 29.078 111.231 30.394C111.419 30.864 111.607 31.334 111.983 31.71C112.782 32.65 113.675 33.496 114.615 34.389C114.897 34.624 115.32 34.765 115.602 35.047C116.119 35.47 116.683 35.658 117.341 35.658C118.751 35.658 120.114 35.658 121.524 35.658C122.088 35.658 122.558 35.517 123.028 35.282C123.216 35.141 123.451 35 123.686 34.906C123.921 34.765 124.109 34.812 124.156 35.047C124.25 35.423 124.391 35.611 124.767 35.658C125.049 35.658 125.284 35.752 125.519 35.846C125.895 35.987 126.271 36.034 126.6 35.846C127.07 35.658 127.446 35.752 127.916 35.893C128.574 36.081 129.232 35.611 129.279 34.953C129.326 34.483 129.326 34.013 129.326 33.543C129.326 31.099 129.326 28.702 129.326 26.258ZM117.576 3.604C117.623 3.604 117.717 3.604 117.717 3.604C117.764 3.745 117.717 3.792 117.576 3.745C117.576 3.745 117.576 3.651 117.576 3.604ZM116.354 4.168H116.26H116.354ZM124.109 6.189C124.25 6.001 124.391 5.86 124.485 5.672C124.579 5.531 124.626 5.531 124.72 5.625C124.72 5.719 124.767 5.813 124.72 5.907C124.626 6.189 124.344 6.189 124.109 6.189ZM124.109 6.283V6.189V6.283ZM124.626 7.364C124.579 7.364 124.532 7.364 124.532 7.364C124.485 7.317 124.485 7.27 124.532 7.223C124.579 7.129 124.673 7.129 124.673 7.27C124.673 7.317 124.626 7.364 124.626 7.364ZM112.641 8.257L112.735 8.304H112.688L112.641 8.257ZM114.333 8.492L114.38 8.398L114.474 8.492H114.333ZM113.722 8.774C113.91 9.15 113.863 9.526 113.581 9.855C113.346 10.09 113.158 10.372 112.97 10.654C112.782 10.607 112.594 10.607 112.406 10.56C112.312 10.56 112.265 10.466 112.218 10.372C112.218 10.325 112.265 10.231 112.265 10.231C113.205 10.184 113.299 9.338 113.722 8.774ZM113.017 11.03C112.97 11.03 112.97 10.983 112.97 10.936C112.97 10.842 112.97 10.748 112.97 10.701C113.064 10.748 113.111 10.795 113.158 10.889C113.205 10.936 113.158 11.03 113.111 11.124C113.064 11.077 113.017 11.077 113.017 11.03ZM113.487 18.221C113.393 18.315 113.346 18.456 113.252 18.503C113.158 18.55 113.017 18.503 112.97 18.456C112.923 18.362 112.923 18.221 112.97 18.174C113.064 18.08 113.205 18.033 113.346 17.939C113.393 18.033 113.44 18.127 113.487 18.221ZM125.566 18.08V18.127H125.472L125.566 18.08ZM127.446 19.067L127.305 19.114L127.399 19.067H127.446ZM124.485 19.161L124.391 19.255L124.438 19.114L124.485 19.161ZM125.378 19.913C125.378 19.866 125.378 19.772 125.425 19.725C125.425 19.725 125.472 19.725 125.519 19.725C125.519 19.772 125.519 19.819 125.472 19.866L125.378 19.913ZM126.788 21.605C126.741 21.558 126.694 21.558 126.647 21.511C126.506 21.229 126.271 20.994 126.13 20.759C126.083 20.665 126.177 20.43 126.271 20.383C126.459 20.242 126.694 20.148 126.694 19.866C126.835 19.96 126.976 19.96 127.023 20.054C127.117 20.195 127.164 20.383 127.117 20.477C127.023 20.759 126.835 21.041 126.882 21.37C126.882 21.417 126.835 21.511 126.788 21.605ZM126.412 22.827C126.459 22.827 126.553 22.827 126.553 22.827C126.553 22.921 126.553 22.968 126.506 23.062C126.459 23.015 126.412 22.968 126.365 22.921L126.412 22.827ZM112.735 23.626C112.594 23.297 112.641 23.25 112.876 23.156L112.735 23.626ZM112.782 23.673C112.829 23.626 112.923 23.579 113.017 23.532C113.064 23.532 113.111 23.532 113.158 23.532C113.252 23.626 113.205 23.673 113.064 23.673C112.97 23.673 112.876 23.673 112.782 23.673ZM127.493 23.861C127.446 24.284 127.117 24.425 126.835 24.613C126.694 24.707 126.365 24.613 126.365 24.425C126.365 24.284 126.365 24.049 126.459 24.002C126.788 23.861 127.117 23.72 127.399 23.626C127.446 23.626 127.493 23.673 127.493 23.72C127.54 23.767 127.493 23.814 127.493 23.861ZM113.722 24.707L113.769 24.801H113.675L113.722 24.707ZM112.688 25.365C112.594 25.318 112.5 25.271 112.359 25.224C112.406 25.224 112.406 25.13 112.406 25.13C112.547 25.13 112.688 25.177 112.829 25.177C112.782 25.224 112.735 25.271 112.688 25.365ZM126.365 25.412L126.412 25.459V25.506L126.365 25.412ZM125.707 25.788C125.754 25.741 125.801 25.694 125.848 25.647C125.989 25.6 126.177 25.553 126.365 25.506C126.224 25.647 126.13 25.788 125.989 25.882C125.942 25.882 125.801 25.788 125.707 25.788ZM113.675 26.07L113.722 25.976L113.769 26.07H113.675ZM126.929 26.54L126.882 26.446C126.882 26.352 126.835 26.258 126.882 26.164C126.929 26.117 127.023 26.07 127.07 26.023C127.117 26.023 127.211 26.07 127.211 26.07C127.164 26.164 127.164 26.258 127.117 26.305C127.07 26.352 126.976 26.399 126.882 26.399L126.929 26.54ZM125.66 27.245C125.519 27.198 125.378 27.151 125.284 27.057C125.237 27.01 125.284 26.869 125.331 26.775C125.378 26.634 125.613 26.681 125.66 26.869C125.707 26.963 125.66 27.104 125.66 27.245ZM114.521 26.963L114.568 27.057H114.521V26.963ZM114.145 27.151C114.192 27.151 114.192 27.057 114.239 27.057C114.286 27.057 114.38 27.057 114.427 27.104C114.333 27.104 114.239 27.151 114.145 27.151ZM125.707 27.245C125.989 27.104 126.318 27.057 126.647 27.245C126.647 27.292 126.694 27.339 126.694 27.386C126.694 27.433 126.647 27.48 126.6 27.48C126.271 27.621 125.942 27.527 125.707 27.245ZM124.767 27.903L124.673 27.95L124.72 27.856L124.767 27.903ZM120.02 31.71L120.114 31.616L120.067 31.663L121.148 31.475L122.229 31.381C122.229 31.24 122.229 31.099 122.276 30.911C122.323 30.582 122.417 30.488 122.793 30.535C122.934 30.535 123.075 30.629 123.263 30.629H123.827C123.921 30.253 124.109 30.018 124.579 30.206C124.861 30.347 125.096 30.206 125.237 29.971C125.237 29.877 125.237 29.689 125.19 29.689C124.814 29.595 124.391 29.501 124.015 29.407C123.827 29.36 123.545 29.454 123.592 29.125C123.592 29.031 123.78 28.89 123.921 28.843C124.156 28.749 124.438 28.655 124.673 28.655C125.096 28.702 125.425 28.514 125.801 28.373C125.895 28.232 125.895 28.091 125.989 27.997C126.13 27.809 126.412 27.809 126.553 27.95C127.164 28.702 127.775 29.501 127.117 30.535C127.023 30.77 126.976 31.099 127.258 31.24C127.587 31.381 127.587 31.475 127.399 31.757C127.258 31.945 127.446 32.133 127.634 32.274C127.681 32.321 127.634 32.415 127.634 32.509C127.54 32.509 127.446 32.556 127.352 32.509C127.258 32.509 127.164 32.509 127.07 32.462C126.788 33.073 126.365 33.543 125.707 33.778C125.707 33.637 125.707 33.496 125.707 33.355C125.66 32.838 125.66 32.838 125.096 32.791C125.049 32.744 125.002 32.65 124.955 32.556C124.767 32.321 124.814 32.227 125.096 32.18C125.237 32.18 125.425 32.227 125.566 32.18C125.754 32.133 125.754 31.945 125.66 31.804C125.613 31.71 125.519 31.663 125.472 31.616C125.237 31.71 125.002 31.851 124.767 31.851C124.344 31.898 124.109 32.18 123.874 32.556L123.498 32.509C123.169 32.368 122.934 32.133 122.981 31.663C123.028 31.428 122.934 31.193 122.934 30.911L122.229 31.381L121.148 31.475L121.336 32.368H121.383C121.383 32.415 121.43 32.462 121.43 32.509C121.43 32.509 121.477 32.556 121.383 32.556C121.383 32.509 121.383 32.462 121.383 32.415L121.336 32.368C121.101 32.274 120.866 32.18 120.631 32.039C120.443 31.945 120.255 31.804 120.067 31.663L120.02 31.71ZM114.474 27.997L114.568 27.95V28.044L114.474 27.997ZM125.801 28.42C125.801 28.561 125.707 28.655 125.707 28.749C125.707 28.796 125.801 28.843 125.895 28.89C125.895 28.89 125.942 28.843 125.942 28.796C125.895 28.655 125.848 28.561 125.848 28.373L125.801 28.42ZM112.406 28.843C112.359 28.843 112.312 28.89 112.312 28.89C112.265 28.89 112.265 28.796 112.265 28.796C112.265 28.749 112.312 28.749 112.359 28.749L112.406 28.843ZM114.662 28.984C114.662 29.548 114.286 29.783 113.863 29.971C113.816 29.971 113.769 29.971 113.722 29.924C113.675 29.924 113.628 29.877 113.675 29.83C113.722 29.219 113.957 29.031 114.662 28.984ZM115.367 29.313C115.32 29.266 115.32 29.172 115.273 29.031C115.32 29.078 115.367 29.078 115.414 29.125C115.414 29.219 115.367 29.266 115.367 29.313ZM114.521 30.723C114.897 30.77 115.179 30.864 115.367 31.193C115.367 31.24 115.367 31.334 115.367 31.334C115.273 31.381 115.179 31.475 115.132 31.475C114.897 31.287 114.662 31.099 114.427 30.911V30.817C114.427 30.77 114.474 30.77 114.521 30.723ZM125.425 31.569C125.707 31.569 125.942 31.522 125.989 31.193C125.989 31.099 125.895 30.864 125.801 30.864C125.66 30.864 125.425 30.911 125.284 31.005C125.002 31.287 125.284 31.428 125.425 31.569ZM117.106 31.757C117.106 31.522 117.106 31.287 117.106 31.099L117.153 31.052L117.106 31.757ZM125.472 31.569C125.472 31.569 125.472 31.569 125.425 31.569H125.472ZM117.67 32.415C117.388 32.415 117.153 32.415 116.871 32.415C116.636 32.415 116.448 32.321 116.307 32.086C116.26 32.086 116.213 32.086 116.166 32.086C116.73 32.18 117.2 32.321 117.67 32.415ZM122.605 32.744C122.558 32.838 122.558 32.932 122.511 32.932C122.464 32.979 122.417 32.979 122.37 32.979C122.276 32.791 122.182 32.603 122.088 32.415C122.088 32.368 122.182 32.274 122.229 32.227C122.229 32.18 122.37 32.227 122.37 32.274C122.464 32.415 122.558 32.603 122.605 32.744ZM117.764 32.415C117.717 32.415 117.717 32.415 117.717 32.415V32.274L117.764 32.415ZM127.07 32.462H126.835C126.929 32.462 126.976 32.462 127.07 32.462ZM120.067 32.791H119.926C119.738 32.979 119.55 33.12 119.315 32.932C119.221 32.885 119.221 32.697 119.221 32.556C119.268 32.556 119.409 32.556 119.456 32.603C119.597 32.744 119.738 32.838 119.973 32.744L120.067 32.791ZM125.707 33.778C125.425 33.919 125.143 34.013 124.908 33.684C124.767 33.543 124.626 33.355 124.673 33.214C124.72 33.073 124.955 32.979 125.096 32.838L125.707 33.778ZM123.874 33.637V33.543L123.921 33.59C123.874 33.59 123.874 33.637 123.874 33.637Z" fill="white"/>
</svg>
