<svg width="38" height="17" viewBox="0 0 38 17" fill="none" xmlns="http://www.w3.org/2000/svg">
<path d="M18.5059 14.6448L18.8114 15.0406L18.4961 15.284L18.1884 15.0311L18.5059 14.6448ZM2.12061 1.17777L1.88278 0.737953L2.17843 0.578082L2.43808 0.791494L2.12061 1.17777ZM1.24097 1.65342L0.923496 2.0397L0.348866 1.56741L1.00315 1.21361L1.24097 1.65342ZM18.3592 15.7229L18.5971 16.1627L18.3014 16.3226L18.0418 16.1092L18.3592 15.7229ZM19.2389 15.2472L19.5562 14.8608L20.1313 15.3331L19.4767 15.6871L19.2389 15.2472ZM19.2387 15.2471L18.9214 15.6335L18.436 15.235L18.9331 14.8513L19.2387 15.2471ZM37 1.53663L37.2495 1.10332L37.8968 1.47601L37.3055 1.93242L37 1.53663ZM36.1334 1.03766L35.8279 0.641869L36.0928 0.43735L36.3829 0.604353L36.1334 1.03766ZM18.1884 15.0311L1.80313 1.56404L2.43808 0.791494L18.8233 14.2585L18.1884 15.0311ZM2.35843 1.61758L1.4788 2.09324L1.00315 1.21361L1.88278 0.737953L2.35843 1.61758ZM1.55845 1.26715L18.6767 15.3366L18.0418 16.1092L0.923496 2.0397L1.55845 1.26715ZM18.1214 15.2831L19.001 14.8074L19.4767 15.6871L18.5971 16.1627L18.1214 15.2831ZM18.9216 15.6337L18.9214 15.6335L19.556 14.8606L19.5562 14.8608L18.9216 15.6337ZM18.9331 14.8513L36.6945 1.14083L37.3055 1.93242L19.5442 15.6429L18.9331 14.8513ZM36.7505 1.96994L35.8839 1.47098L36.3829 0.604353L37.2495 1.10332L36.7505 1.96994ZM36.4389 1.43346L18.8114 15.0406L18.2003 14.249L35.8279 0.641869L36.4389 1.43346Z" fill="#929292"/>
</svg>
