<svg width="37" height="37" viewBox="0 0 37 37" fill="none" xmlns="http://www.w3.org/2000/svg">
<circle cx="18.5" cy="18.5" r="17.5" stroke="#4D4D4D" stroke-width="2"/>
<path d="M18.7954 13.7139L18.4276 13.3753L18.8071 12.9629L19.1737 13.3869L18.7954 13.7139ZM27.9784 24.3367L28.2812 24.7345L27.9074 25.0191L27.6001 24.6636L27.9784 24.3367ZM28.7741 23.731L29.1524 23.404L29.5004 23.8066L29.077 24.1289L28.7741 23.731ZM18.9342 12.3482L18.6314 11.9503L19.0052 11.6658L19.3124 12.0212L18.9342 12.3482ZM18.1384 12.9538L17.7593 13.2799L17.4132 12.8774L17.8356 12.556L18.1384 12.9538ZM18.1385 12.9539L18.5176 12.6279L18.8077 12.9652L18.5064 13.2925L18.1385 12.9539ZM7.92871 24.0461L7.61392 24.4346L7.20018 24.0993L7.56083 23.7075L7.92871 24.0461ZM8.70565 24.6757L9.07353 25.0143L8.7556 25.3597L8.39086 25.0642L8.70565 24.6757ZM19.1737 13.3869L28.3567 24.0097L27.6001 24.6636L18.4172 14.0409L19.1737 13.3869ZM27.6756 23.9388L28.4713 23.3332L29.077 24.1289L28.2812 24.7345L27.6756 23.9388ZM28.3959 24.058L18.5559 12.6752L19.3124 12.0212L29.1524 23.404L28.3959 24.058ZM19.237 12.7461L18.4412 13.3517L17.8356 12.556L18.6314 11.9503L19.237 12.7461ZM18.5175 12.6278L18.5176 12.6279L17.7594 13.2799L17.7593 13.2799L18.5175 12.6278ZM18.5064 13.2925L8.29659 24.3847L7.56083 23.7075L17.7706 12.6153L18.5064 13.2925ZM8.2435 23.6577L9.02044 24.2872L8.39086 25.0642L7.61392 24.4346L8.2435 23.6577ZM8.33776 24.3371L18.4276 13.3753L19.1633 14.0525L9.07353 25.0143L8.33776 24.3371Z" fill="#4D4D4D"/>
</svg>
